<?xml version="1.0" encoding="UTF-8"?>
<!-- Generator: Adobe Illustrator 18.0.0, SVG Export Plug-In . SVG Version: 6.00 Build 0)  -->
<svg xmlns="http://www.w3.org/2000/svg" xmlns:xlink="http://www.w3.org/1999/xlink" version="1.1" id="Layer_1" x="0px" y="0px" viewBox="0 0 2000 1266.1" xml:space="preserve">
<g>
	<g>
		<path fill="#A0A0A0" d="M1534.5,471.2c15.5,0.1,31,0,46.4,0.1c0.4,56.5,0.1,113.1,0.2,169.7c-0.3,32.7,0.5,65.4-0.4,98.1    c-15-0.4-30.1,0-45.1-0.2c-3.2-5.2-0.6-12.8-1.1-18.9c-9.4,11-22.5,19.1-37,20.6c-24.9,3.2-51.9-3.7-70-21.6    c-17.5-18-24.9-43.6-25.7-68.2c-1.5-26.8,3.5-55.6,20.6-77.1c16.6-21.3,45-30.3,71.2-28.3c15.4,0.8,29.3,8.8,40.6,18.9    C1534.5,533.2,1533.9,502.2,1534.5,471.2z M1486.3,586.4c-20.5,4.1-32.7,24.6-34.8,44.2c-2.1,20.4,0.1,43.6,15,59.1    c13.7,14.8,39.2,15.7,54,1.9c15.6-13.8,19.2-36.3,17.5-56.1c-1.4-17.1-8-36.2-24-44.7C1505.9,585.6,1495.7,584.3,1486.3,586.4z"/>
	</g>
	<path fill="#A0A0A0" d="M1653.4,555.5c30.3-21.7,77.3-11.3,96.9,19.9c-9.3,8.3-18.6,16.7-27.7,25.2c-9.5-11.4-25.6-19.9-40.3-14.3   c-9.4,3.2-11.8,16.3-5.5,23.5c7,7.5,17.4,9.8,26.7,12.8c19.4,6.6,41.5,14.1,51.7,33.4c12.5,26.4-0.1,60.8-25.5,74.7   c-16.9,10.1-37.7,11.8-56.6,7.4c-24.7-6.5-45.6-25.1-56.2-48.2c11.7-8,24.9-13.6,37.1-20.8c4.8,10.5,10.9,21.7,21.6,27.1   c8.8,5.2,20,5.4,29.5,2c9.8-3.3,13.8-16.2,9.4-25.2c-4.9-7.6-14-10.4-22-13.5c-16.6-6-34.4-11.3-47.6-23.7   c-11.9-11.1-15.9-28.3-14.1-44C1633.2,577.5,1641.5,563.9,1653.4,555.5z"/>
	<g>
		<path fill="#A0A0A0" d="M188.3,554.1c20.1-10.4,43.8-10.8,65.6-6.3c17.6,3.7,34.4,13.9,43,30.2c11.2,19.7,10.5,43.1,10.6,65    c0,31.8,0.1,63.6-0.1,95.4c-12.6,0-25.2,0.3-37.7-0.1c-4.2-6.6-3.3-16.2-6.1-23.8c-10.4,12.2-24.3,22.1-40.4,24.9    c-18.5,3.9-39.2,2.1-54.7-9.4c-19.3-14.2-25.4-41.5-18.7-63.8c6.2-20.4,24.9-34.8,44.9-40.4c21.1-6.9,43.5-4,65.2-4.6    c0.3-10.7-0.5-23.4-9.8-30.3c-10.9-7.3-25.3-7.6-37.7-4.6c-9.7,2.7-15.5,11.6-19.7,20.1c-12.6-3.2-25.4-5.3-38-8.6    C158.8,579.2,171.1,562.5,188.3,554.1z M197.2,677.4c-2.8,10.2,4.1,21.9,14.8,23.6c11.6,1.4,23.9-1.9,33.2-9.1    c10.4-7.4,15.9-20.5,14.7-33.1c-13.4,0.2-26.9-0.7-40.2,0.6C209.6,660.3,198.7,666.5,197.2,677.4z"/>
	</g>
	<g>
		<path fill="#A0A0A0" d="M1091.7,559.4c20.6-14.9,47.8-16.8,72.1-12.1c16.4,3.1,32.5,11.2,42.1,25.3c16.1,22.6,13.7,51.9,13.9,78.2    c0.1,29.1-0.1,58.1,0.1,87.2c-12.9,0.9-25.8,0.2-38.7,0.3c-1.6-8-3.3-16.1-4.6-24.2c-12,14.5-29.3,24.7-48.2,26.5    c-21.4,2.9-45.8-3.7-58.5-22.2c-14.1-21.4-13.9-52.7,3.7-72.2c14.5-16.4,36.7-23.4,57.9-24.9c13.5-0.5,27-0.1,40.5-0.2    c0-8.3,1.3-17.5-4.1-24.6c-8.2-12.3-25-13.2-38.3-11.4c-11.4,1.4-20.2,10.5-23.9,21c-12.9-2.7-25.8-5.3-38.6-8.4    C1070.5,582.7,1078.8,568.4,1091.7,559.4z M1113.7,668.5c-9.3,10.2-4.2,29.9,10,32.4c15.3,1.9,31.9-4.2,41.3-16.7    c5.8-7.2,7.7-16.5,7-25.5c-8.2,0-16.4,0-24.6,0C1135.8,658.7,1121.9,658.8,1113.7,668.5z"/>
	</g>
	<path fill="#A0A0A0" d="M1308.6,579.4c9.7-16.4,25.6-29.5,44.5-33.2c11.5-2.5,23.3-0.9,34.5,2c-2.2,14.5-5.4,28.8-8.2,43.2   c-13.7-6.7-31.1-6.5-43.8,2.3c-6.9,5-12.7,11.6-16.3,19.4c-9.1,18.4-11.1,39.3-10.8,59.5c0,21.9,0.1,43.8-0.1,65.7   c-15.5,0.2-31,0.5-46.4,0.4c0-63.6,0-127.1,0-190.7c15.5-0.1,31.1,0,46.6,0C1308.8,558.4,1308.8,568.9,1308.6,579.4z"/>
	<path fill="#A0A0A0" d="M326,548.4c15.8,0,31.7-0.1,47.5,0.1c11.1,42.8,22.1,85.7,33.6,128.4c2.8-5.5,3.6-11.6,5.2-17.5   c9.3-36.9,18.3-74,27.6-110.9c14.3-0.3,28.7,0,43-0.2c11.2,42.8,21.2,86,32.1,128.9c3.3-5.5,3.8-12.1,5.6-18.2   c10-36.8,18.8-74,29.3-110.7c15.4,0.5,30.8-0.6,46.2-0.3c-19.4,61.6-39.5,123.1-58.9,184.7c-0.9,2.3-1.3,6.4-4.9,5.7   c-12.5,0-24.9,0.2-37.4-0.2c-2.4-1.6-2.2-5-3.2-7.4c-10.2-38.5-20.1-77.1-31.1-115.4c-10.4,41.2-22,82.1-32.6,123.3   c-13.9,0.4-27.7,0-41.6,0.2C366.4,675.4,345.6,612.1,326,548.4z"/>
	<path fill="#A0A0A0" d="M665,548c14.8,0,29.6-0.3,44.4,0.2c10,43.1,20.9,86,31.4,129c1.3-2.7,2.3-5.6,3-8.6   c10.2-40.1,20.7-80.2,30.7-120.4c15.8-0.6,31.7-0.1,47.6-0.2c-20.3,63.7-40.3,127.4-61,191c-13.4-0.3-26.8,0-40.2-0.1   c-2.1-1.4-2-4.4-2.9-6.6c-9.8-38.6-20.5-76.9-30.5-115.4c-3,7.1-4.6,14.7-6.6,22.1c-8.9,33.3-17.8,66.6-26.7,99.8   c-13.9,0-27.8,0.1-41.7,0c-7.6-26.2-16.5-52-24.1-78.1c5.5-19.3,11.9-38.4,18-57.6c9.6,25,17.4,50.7,27.3,75.5   C643.9,635,654.6,591.6,665,548z"/>
	<path fill="#A0A0A0" d="M890.8,548.1c14.8-0.3,29.6-0.2,44.4,0c10.3,43,20.8,86,31.5,128.9c2.2-4.4,3.4-9.3,4.6-14   c9.8-38.4,19.9-76.7,29.8-115c15.5,0,31.1-0.1,46.6,0c-9.9,33-20.9,65.8-31.1,98.7c-10.1,30.7-19.3,61.7-29.8,92.3   c-13.6-0.4-27.3-0.2-40.9-0.1c-11.4-40.6-21.1-81.8-33-122.2c-11.4,40.6-21.5,81.7-33.1,122.2c-13.6-0.1-27.2-0.3-40.7,0.1   c-8.2-23.1-14.5-46.8-22.4-70.1c-1.1-3.9-3.2-8-1.4-12c5.9-17.8,11.1-35.9,17-53.6c10.2,24.2,16.7,50,27.3,74   C870.3,634.3,880.7,591.3,890.8,548.1z"/>
	<path fill="#A0A0A0" d="M1814.8,677.7c12.1-2.6,25.8,2.2,32.7,12.7c9.3,13.5,6.4,34.5-7.5,43.8c-14.8,11-39.1,6-47-11.1   C1783.8,705.5,1794.4,680.6,1814.8,677.7z"/>
</g>
</svg>