<?xml version="1.0" encoding="UTF-8"?>
<!-- Generator: Adobe Illustrator 18.0.0, SVG Export Plug-In . SVG Version: 6.00 Build 0)  -->
<svg xmlns="http://www.w3.org/2000/svg" xmlns:xlink="http://www.w3.org/1999/xlink" version="1.1" id="Layer_1" x="0px" y="0px" viewBox="0 0 2000 881.8" xml:space="preserve">
<g>
	<path fill="#A0A0A0" d="M537,199.9c28.9,0,57.8,0,86.6,0c0,178.3,0,356.7,0,535c-28.9,0-57.8,0-86.6,0   C537,556.6,537,378.3,537,199.9z"/>
	<path fill="#A0A0A0" d="M1629.3,199.9c28.9,0,57.7,0,86.6,0c-0.1,65.2,0.1,130.5-0.1,195.7c18.4-17.4,43.1-27,68.3-28.9   c28.9-2.4,60.1,0.7,84.7,17.2c17.2,11.3,32.7,26.1,41.9,44.7c15.9,30.3,19.3,65.2,19.9,98.9c0,67.8,0,135.6,0,203.4   c-29,0-57.9-0.1-86.9,0.1c0-67.9,0-135.7,0-203.6c0.1-20.3,1.6-41.9-7.3-60.8c-6.3-14.1-22-21.4-36.8-21.9   c-25.5-1.8-53.8,7.5-68.2,29.7c-11.9,17.3-15.7,38.8-15.5,59.4c-0.1,67,0,134,0,201c-28.9,0-57.7,0-86.6,0   C1629.3,556.6,1629.3,378.3,1629.3,199.9z"/>
	<path fill="#A0A0A0" d="M163.5,253.7c35.1-22.2,76.6-34.2,118-35c28.9-0.1,58.2,2.2,86,10.6c46.6,12.9,87.4,41.5,120.6,76.1   c-18.6,18.9-38.2,36.9-55.9,56.7c-9.2-8.2-17.6-17.3-27.2-25.1c-34.9-28.3-81-43.2-125.9-38.2c-33,2.3-65.2,15.5-90.1,37.2   c-34.3,29.1-53.5,72.9-57.8,117.1c-2.5,33.6,0.7,68.2,14,99.5c16.7,40.7,50.1,75.2,92,89.7c29.5,11.2,62.1,11.6,92.8,5.4   c37.9-6.8,72.6-27.6,97.7-56.5c19.2,18.7,37.5,38.4,56.8,56.9c-11.4,10.9-21.7,23-34.2,32.8C382.7,735.1,285.7,750,205,718.3   c-48.7-17.9-89.7-53.8-117.3-97.5c-25.5-41.7-39.5-90.3-39.9-139.2c-2.2-33.1,3.8-66.4,14-97.9C79.4,330.4,115.3,282.8,163.5,253.7   z"/>
	<path fill="#A0A0A0" d="M1094.4,241.4c28.9,0,57.8,0,86.8,0c0,43.8,0,87.7,0,131.5c21.2,0,42.5,0,63.7,0c0.3,27.7,0.2,55.3,0.1,83   c-21.3,0-42.6,0-63.9,0c0.2,93,0,186,0.1,279.1c-28.9,0-57.9,0-86.8,0c0.1-93,0.3-186.1-0.1-279.2c-21.2,0.1-42.5,0-63.7,0   c-0.1-27.6,0.1-55.3-0.1-82.9c21.3,0,42.5,0,63.8,0C1094.6,329.1,1094.4,285.3,1094.4,241.4z"/>
	<path fill="#A0A0A0" d="M1341.9,394.9c62.9-39.9,149.1-38.1,210.3,4.3c12.2,8.7,23.9,17.9,35.7,27c-20.5,18.3-40.2,37.4-60.3,55.9   c-8.6-7.2-15.5-16.3-25.1-22.1c-22.4-14.4-50.3-17.3-76.2-14.2c-26.6,4.2-52.1,18.5-66.9,41.4c-17.5,26.6-20.2,60.8-12.2,91.1   c7.9,31,31.5,57.6,61.8,68c18.4,5.7,38.2,7.3,57.1,3.5c22.9-6.4,45.7-16.8,61.2-35.4c20.2,19.9,40.2,40,60.2,60.2   c-11.6,7.7-21.7,17.4-33.1,25.3c-51.4,36.6-121.1,44.8-179.8,22.2c-40-14.7-73.4-45.2-93.4-82.7c-16.7-32.5-23.1-69.5-21.2-105.8   c3.3-38.1,17.8-75.6,42.8-104.8C1314.8,416.1,1327.5,404.3,1341.9,394.9z"/>
	<path fill="#A0A0A0" d="M687.6,372.9c29,0,57.9,0.1,86.8-0.1c-0.3,69.1,0,138.2-0.1,207.3c0,20.2,3.9,41.7,17,57.8   c11,13.1,28.8,18.2,45.4,18c24.6-1.2,50.6-8.8,67.3-27.8c15.7-17,20.9-40.8,20.9-63.3c-0.1-63.9,0.2-127.9-0.2-191.8   c29,0.2,57.9,0,86.9,0.1c-0.2,120.7,0,241.3-0.1,362c-28.9,0-57.8,0-86.6,0c0-10.3-0.1-20.5,0.2-30.8c-26.2,24.7-64,31.1-98.7,30.6   c-33.5-0.5-67.4-11.9-91.5-35.6c-25.6-22.5-39.9-55.4-44.7-88.7c-2.5-17.3-2.8-34.8-2.6-52.2C687.6,496.4,687.8,434.7,687.6,372.9z   "/>
</g>
<g>
	<path fill="#A0A0A0" d="M1403.8,502.8c16.7-12.2,39.8-17.3,59.1-8.3c13.1,4.9,23.9,14.8,30.7,26.9c10.6,18.1,9.7,41.9-1,59.7   c-7.5,12.9-20.3,22-34.3,26.9c-16.9,4.5-36,2.6-50.5-7.6c-16.9-10.6-27.1-30.2-27.1-50C1380.5,531.9,1389.9,514.6,1403.8,502.8z"/>
</g>
</svg>