<?xml version="1.0" encoding="UTF-8"?>
<!-- Generator: Adobe Illustrator 24.1.2, SVG Export Plug-In . SVG Version: 6.00 Build 0)  -->
<svg xmlns="http://www.w3.org/2000/svg" xmlns:xlink="http://www.w3.org/1999/xlink" version="1.1" id="Layer_1" x="0px" y="0px" viewBox="0 0 1837.8 335" style="enable-background:new 0 0 1837.8 335;" xml:space="preserve">
<style type="text/css">
	.st0{fill:#FFFFFF;}
</style>
<path class="st0" d="M0,0c30.7,23.6,60.5,48.4,87.8,75.9c12.1,12.2,23.8,25,33.9,38.9c2.9,4,6.1,7.8,8.1,12.3  c-12.8-12.2-26.4-23.8-42.4-31.6c-5-2.4-10.2-4.7-15.8-5.6c6.9,12.9,11.6,27.9,8.7,42.6c-2.5,15.4-11.8,28.7-22.9,39.3  c18.5,10,33.9,24.8,46.8,41.3c13.1,16.6,23.7,35,33.2,53.8c3.5,0,7,0.1,10.4-0.1c14.9-30.1,33.4-59.3,59.3-81.2  c6.2-5.4,13.3-9.6,20.3-13.9c-10.4-10.3-19.5-22.7-22.3-37.4c-3.5-15.5,1.1-31.5,8.7-45.1c-16.6,4.9-31.5,14.3-44.7,25.4  c-5.1,3.8-9,9-14.3,12.6c10.4-16.7,23.4-31.5,36.9-45.7c18.6-19,38.2-37,58.7-53.9c11.1-9.4,22.8-18.1,34-27.4  c-1.1,3.5-3.8,6.1-5.9,8.9c-12.5,16.7-23.8,34.3-33.6,52.7c-9.2,17.8-17.2,36.6-20.3,56.5c-0.6,7.4-0.9,15.2,2.3,22.1  c6.7,16.2,21.7,27.6,37.5,34.3c-0.1,0.5-0.2,0.9-0.2,1.4c-5.2,0.5-10,2.7-14.8,4.6c-14.8,6.2-27.9,15.8-39,27.2  c-22.3,23.7-38.3,52.5-51.1,82.2c-5.6,12.5-9.8,25.6-14.1,38.6c-0.7,2.2-1.6,4.4-2.9,6.3c-4.5-12.5-8.3-25.2-13.3-37.5  c-13.2-32.3-30-63.8-54.1-89.4c-14.9-15.8-33.9-27.2-54.8-33c16-7,31.6-18.4,38.3-35.1c4.5-10.7,2.5-22.6-0.2-33.4  C51.8,82.1,39.8,59.5,26.6,38C19.8,27.5,12.9,17,5.2,7.2C3.2,5,1.5,2.6,0,0z"></path>
<path class="st0" d="M1481.3,38.9c22-2.5,44.9-0.1,65.3,9.1c18.1,8,33.7,20.6,45.3,36.6c15.7,21.5,23.6,48.1,23.8,74.5  c0.6,22.3-3.8,45-14.1,64.9c-9.6,19.1-24.4,35-42.6,46.1c-39.8,23.3-89.4,22.1-128.1-3c-18.9-12.6-33.5-31.3-42.4-52.2  c-10-23.8-12.2-50.4-8.4-75.8c3.2-21.5,12-41.8,25.6-58.7C1424.5,57.2,1451.6,42.3,1481.3,38.9z M1489.4,74.6  c-15.8,1.3-31.4,7.3-43.5,17.7c-13.9,12-22.4,29.3-25.8,47.2c-3.6,20-2.8,41.2,4.2,60.5c6.3,17.3,18.4,32.7,34.9,41.2  c19.1,10.1,42.2,11.4,62.7,5.5c17-5.2,31.6-16.5,40.7-31.8c12.5-20.6,15.3-45.7,12.3-69.3c-2.7-21.2-12.5-42.1-29.5-55.5  C1529.8,77.6,1509.1,72.8,1489.4,74.6z"></path>
<path class="st0" d="M393.6,40.9H436c13.9,65.7,27.5,131.5,41.5,197.2c0.9-1.9,1.5-3.8,2-5.8c16.9-63.8,34.1-127.5,50.9-191.4  c14.3-0.1,28.6,0,42.9,0c13.9,53.1,28.3,106,42.3,159.1c3.6,12.7,6.4,25.7,10.6,38.2c14-65.7,27.6-131.5,41.5-197.2h42.4  c-19.9,80.9-39.8,161.8-59.8,242.8l-0.8,0.5c-15.6,0.2-31.3,0.2-46.9-0.1C586,221.8,569,159.6,552.4,97.3c-0.2,0-0.7-0.1-0.9-0.1  c-16.6,62.4-33.4,124.8-50.4,187.2c-15.8-0.2-31.7,0.2-47.5-0.2C433.6,203,413.6,121.9,393.6,40.9z"></path>
<path class="st0" d="M744.8,40.9c12.9,0,25.7-0.1,38.6,0c-0.1,81.1-0.1,162.2,0,243.3c-12.9,0.2-25.7,0-38.6,0.1V40.9z"></path>
<path class="st0" d="M831.3,40.9h60.6c21.7,0.1,44.2-1.3,64.7,6.8c17.6,6.7,31.5,20.7,38.1,38.3c5.3,14.4,6,30.3,3.4,45.4  c-3.1,18-13.8,33.7-29.5,43.1c-9.3,5.7-19.9,8.8-30.6,10.8c20.9,33,41.9,66,62.9,98.9c-13.2,0.2-26.5,0-39.7,0.1  c-1.5-0.2-3.6,0.5-4.4-1.3c-18.5-30.1-37-60.1-55.5-90.1c-1.3-2-2.3-4.4-4.2-6c-9-0.2-18.1,0.1-27.1-0.1  c-0.3,32.4-0.1,64.9-0.1,97.3c-12.9,0.2-25.7,0-38.6,0.1L831.3,40.9z M869.9,74.6c-0.1,28.2,0,56.3,0,84.5h37.9  c15,0.4,32.2-1.1,42.8-13c7.4-8.2,9.5-19.6,9.3-30.3c0-11.2-3.6-23.1-12.2-30.8c-8.9-8.2-21.5-10.2-33.1-10.5  C899.7,74.6,884.8,74.6,869.9,74.6L869.9,74.6z"></path>
<path class="st0" d="M1034.8,40.9H1172v31.8h-98.6c0,24.6-0.1,49.2,0,73.7h88.4v30.2c-29.4,0-58.9,0.1-88.3-0.1  c-0.2,25.2-0.1,50.5-0.1,75.7h98.6v32h-137.2V40.9z"></path>
<path class="st0" d="M1210,40.9h141.6v31.8h-103v75.5c28.4,0.1,56.7-0.1,85.1,0.1c-0.2,10.1,0,20.1-0.1,30.2h-85  c0,35.2-0.1,70.5,0,105.7c-12.9,0.2-25.7,0.1-38.6,0.1V40.9z"></path>
<path class="st0" d="M1636.6,40.9c14.1-0.1,28.2,0,42.3,0c1.4,0.2,3.7-0.5,4.5,1.1c18.6,29,37.1,58.2,55.9,87.1  c17.2-29.3,34.1-58.8,51.1-88.2h44.4c-24.3,40.1-48.7,80.2-73.2,120.3c-1.1,1.1-0.7,2.5,0.2,3.6c25.4,39.8,50.7,79.6,76,119.4  c-15.4,0.1-30.8,0.1-46.2,0c-19-30.1-38.3-60-57.5-90c-17.3,29.8-34.2,59.8-51.3,89.6c-14.8,0.9-29.7,0.2-44.5,0.3  c24.7-41.4,49.5-82.7,74.4-124C1687.4,120.4,1661.9,80.7,1636.6,40.9z"></path>
<path class="st0" d="M82.3,169.6c8.7,2.6,16.8,6.6,24.3,11.7c4.4,3.2,8.9,7.9,8,13.8c-5.3,0.7-10-2.4-14.1-5.3  C93.5,184,87.4,177.2,82.3,169.6z"></path>
<path class="st0" d="M170.9,184.2c7.7-7.1,17.7-11,27.3-14.7c-1.5,3.8-4.5,6.7-7,9.9c-6.5,7.1-14.1,15.6-24.5,15.7  C166.1,191,167.7,186.8,170.9,184.2z"></path>
</svg>
