<?xml version="1.0" encoding="UTF-8"?>
<!-- Generator: Adobe Illustrator 18.0.0, SVG Export Plug-In . SVG Version: 6.00 Build 0)  -->
<!DOCTYPE svg PUBLIC "-//W3C//DTD SVG 1.1//EN" "http://www.w3.org/Graphics/SVG/1.1/DTD/svg11.dtd">
<svg version="1.1" id="Layer_1" xmlns="http://www.w3.org/2000/svg" xmlns:xlink="http://www.w3.org/1999/xlink" x="0px" y="0px" viewBox="0 0 2958.6 920" enable-background="new 0 0 2958.6 920" xml:space="preserve">
<g>
	<path fill="#fff" d="M498.7,636.9c-20.7,5.6-74.5,11.2-74.5,11.2c-9.2,1-4.6-4.6-4.6-4.6l7.5-10.8c7.4-8.9,24.1-38.1,28.2-45.5   c0.6-1.1,0.3-2.4-0.8-3.1c-16.5-10.8-61.6,9.9-61.6,9.9l7.1-22.6c0.1-0.3,0.2-0.5,0.2-0.8c10.4-55.9,4.5-97.5,4.5-97.5   c21.9,14,50,23.8,61.9,27.6c2.8,0.9,5.7-1.2,5.7-4.2v-64.3c-8.5,2-17.1-1.5-17.1-1.5c1.8,16.8-1.2,33.8-2.9,41.6   c-0.6,2.6-3.3,4.1-5.8,3.1c-15.7-6-42.6-26.8-42.6-26.8v-41.4c0-37.9-11.2-72.4-16.5-86.5c-1.8-4.7-3.3-9.5-4.7-14.3   c-26.3-87.5-100.2-20.7-100.2-20.7c-5.9,5.6-2-7.6-2-7.6c0.3-3.9,2.6-7.2,2.6-7.2c11.8-14.1,2-23,2-23   c-20.7-7.9-20.1,11.9-20.1,11.9c-1.3,10.1-6,3.9-6,3.9c-2.5-7.4-7.6-6.4-7.6-6.4c-9,0.9-9.2,22.3-9.2,22.3   c-5.1,0.6-9.6,8.3-9.6,8.3c-4.4,9.6,3.9,10.7,3.9,10.7c-3.5,11.6,4.3,18.5,4.3,18.5c1.8-3.6-0.8,4.8,1.2,0.1   c7.5-18.1,26.9-18.2,26.9-18.2c-8.1,6.3-14.7,38.3-14.7,38.3c-3.7,18.7-0.7,42.5,1.2,53.6c0.5,3.1,1.3,6.2,2.3,9.2   c3.9,11.2,12.6,45.1,12.6,45.1c3.9,9.5,3.2,24.8,2.3,33.7c-0.4,3.6-1.2,7-2.4,10.4c-5.9,17-11.6,71.8-11.6,71.8   c-2.3,22.3,7.6,52.3,10.4,60.5c0.5,1.4,0.3,2.8-0.4,4.1c-2.1,3.6-4.1,7.4-6,11.3l10.4,21.8l0,0c4.7-8.1,9-15,10.6-17.6   c0.3-0.5,1-0.5,1.3,0c8.2,11.9,42.9,11,42.9,11l0.2,4.8c-7.9,1.1-16.7,8.9-16.7,8.9c-6.1,9,2.6,18.4,2.6,18.4   c7.7,9.5,17.1-3,17.1-3c2.8-5.6,5.4-1,5.4-1l0.5,4.8c1,12.8,7.5,10.2,7.5,10.2c4.9,0.7,13.6-12.3,13.6-12.3c9.4,2,13-1.6,13-1.6   c8.7-4.4,1.8-11.5,1.8-11.5c2.3-0.8,5.3-6.1,5.3-6.1c5.6-9.6-0.1-10.7-3.6-10.6c-1.2,0-2.3,0.3-3.3,0.9c-9,5.1-23.7-4.5-23.7-4.5   c27.9-8.7,37.4-35.6,37.4-35.6c16.1-6,25.8-8.6,31.1-9.7c2.4-0.5,4.5,1.7,3.8,4c-5.2,18.7-20.9,36.5-20.9,36.5   c-7.2,9.2-13.8,30.9-13.8,30.9c-1.6,21.7,7.9,22,7.9,22c3.6,1.3,17.7-7.6,17.7-7.6c9.8-9.2,36.1-11.5,36.1-11.5   c23.3-2.6,55.1-34.5,55.1-34.5C514.1,633,498.7,636.9,498.7,636.9z"/>
	<path fill="#fff" d="M262.8,637.1c-13,26.4-20.7,55.8-22.8,64.5c-0.4,1.6,0.2,3.2,1.4,4.2l4.6,3.8c6.6,6.6,52.5,26.9,52.5,26.9   c-1.1,3.7-13.3,5.6-13.3,5.6l-0.6,2.1c-0.1,0.2-0.1,0.5-0.1,0.7c-0.3,9.4-11.4,30.3-11.4,30.3c-5.3-1.1-35.2,6.6-35.2,6.6   c-7.9,1.2-7.3,4.4-5.1,7.2c2.3,2.9,5.9,4.4,9.6,4.3l34.9-0.8c14.2-0.9,17.5-7,17.5-7c3.9-2.4,8.5-16.8,8.5-16.8   c5-14.8,17.7-32.1,22-37.7c1.1-1.4,1.3-3.3,0.6-4.9c-3-7-11.6-6.6-11.6-6.6c-4.6,6.3-9.2,4.4-9.2,4.4   c-25.5-3.2-39.7-22.5-45.4-29.9c-1.1-1.5-1.5-3.4-0.9-5.2c2.3-7.6,8.7-19.7,14.5-29.9l0,0L262.8,637.1z"/>
</g>
<path fill="#fff" d="M273.7,465.4c0,0-4.3,2.6-23.3,5.7c0,0-15.4,3-27,3.3c-4.9,0.1-9.5-2.5-11.9-6.8c-2.6-4.6-5.6-10.2-5.6-11.5  h-19l14.6,32c2.3,5,7.2,8.3,12.6,8.5c7.7,0.2,18.7,0,26-2.6c0,0,29.1-9.3,31.5-7.6C271.5,486.3,274.8,469.6,273.7,465.4z"/>
<path fill="#fff" d="M247.2,471.6c0,0-3.8,2.2,0,1.5c0,0,18.3-1.9,17.9,3c0,0,2.7,5.2-0.7,10.9l7-0.7c0,0,2.6-16.8,2.3-20.9  C273.7,465.4,267.1,469.2,247.2,471.6z"/>
<path fill="#FCFCFC" d="M166.3,420.8c0,0,5,5,10.4,2.9c0,0,16.6-3,22-10.4c0,0,13.7-9.9,14.4-15.4c0.8-5.5,0.8-19.6,0.8-19.6  s1.5-18.3,10.7-18.1c0,0,14.9-3.2,2.2-14.3c0,0-2.9-5.6-11.6,0c0,0,7.7-9.2-3.1-8.2l-51.6-14.8c0,0-9.8-12.9-17.8-11.8  c0,0-9.2-1.3-2.3,17.2l12.1,27.1c0,0,0.8,9.6,2.4,11.6c0,0-11.6-27.4-20.5-29.5c0,0-5.8-3.5-12.6-1.1c0,0-8.5,0.4,0.9,10.9  c0,0,14.2,13.1,17.5,30.4c0,0,2.7,21.7,12.4,31C152.6,408.6,162.2,418.1,166.3,420.8z"/>
<path fill="#58595B" d="M165.4,419.7c0,0-6,12.9,3.7,16.4c0,0,23.6,4.2,27.8-11.2c0,0,2.4-6.2,2.2-11.1  C199.1,413.9,173.4,431.8,165.4,419.7z"/>
<path fill="#fff" d="M157,276.8c0,0,30.8-16.2,59.7-0.5c0,0,1.9,70.2-17.3,102.6l-9,17h4.2l0,0h1.5l-0.1-4.7c0,0,0.2-3.7,3.6-1.7  c0,0,1.9,2.1,1.2,6.6l-0.3,4.9h-7l-1.2-2.7l-4.2-1.4v13.6c0,0,6.8,25.6,25.1,35.3c0,0,5.8,3.3,4.1,6.1c0,0,0.3,2.1-2,2.1h-54.7  c0,0-4.7,1.3-3.3-4.6c0,0,2.3-1.6,4.5-3.2c0,0,13.2-8.9,26.2-34.9v-14l-7-0.1v1.4l-5-0.1c0,0-2.9-2.2-2.6-5.8c0,0,0.2-5.3,4.2-1.3  l0.2,4.6h2.5h-0.2h1.5l-13.7-35.8c0,0-5.9-15.6-7.5-32.5C160.4,327.7,155.9,282.3,157,276.8z"/>
<line fill="none" stroke="#FFFFFF" stroke-miterlimit="10" x1="169" y1="449.5" x2="207" y2="449.5"/>
<path opacity="0.31" fill="none" stroke="#231F20" stroke-miterlimit="10" d="M152.1,373.5c0,0,16.7-7.2,19.7-7"/>
<path fill="#58595B" d="M258.9,300.1c-0.2,2.1-0.6,8.6,3.2,7.7c1.1-0.3,2-1.1,2.7-2.1c2.3-3.7,9.9-15.5,16-19.4  c1.7-1.1,2.8-2.9,2.8-4.9c0-1-0.2-2-1.1-2.8c-1.1-1-2.7-1.2-4.1-0.7c-4.1,1.7-14.9,7.2-19.3,21C259,299.4,258.9,299.8,258.9,300.1z"/>
<path fill="#D1D3D4" d="M480.1,416.9c0,0,3.8,6.6-1.3,9.7c0,0-4.6,4.8-10.8,5.6c0,0-13.8,1.3-20.7-8.4c0,0-5.1-4.3-2.5-13.5  C444.8,410.3,459.6,424.3,480.1,416.9z"/>
<path fill="#FCFCFC" d="M434.3,356c0,0-11.5,10.8,0,12.1c0,0,11.7,1,13.3,3.3c0,0,8.2,4.1,0.8,13c0,0-8.2,11.5-6.9,19  c0,0,1.3,12.7,24.3,15.5c0,0,6.4,0.1,14.3-2.1c0,0,2.3-3,5.3-2.6c0,0,16.4-10.4,29.4-26.8c0,0,16.7-17.7,35.1-22.1  c0,0,11.3-2.3,5.1-13.3l-32.2-2.4c-8.8-0.7-17.4,2.9-22.8,9.8c-0.3,0.3-0.5,0.7-0.8,1c-2.4,3.4-5.2,6.4-8.6,8.7  c-2.8,1.9-6.3,3.6-9.5,3.9c-0.6,0.1-1.2,0.1-1.8,0.3c-2,0.6-7.4,1.8-11.9,1c-2-0.4-3.3-2.3-2.9-4.4c0.9-4.7,1.4-13.8-6.2-18  C458.3,352,438.6,350.4,434.3,356z"/>
<path opacity="0.3" fill="none" stroke="#231F20" stroke-miterlimit="10" d="M452.1,407.2c0,0,4.4-13.9,31.3-15.6"/>
<path fill="#C9CBCC" d="M498.8,367.5c0,0,8.7,11.2,7.1,16.2c0,0,1.2,2.1,2.4-0.4C508.3,383.3,506.3,371.5,498.8,367.5z"/>
<path fill="#C9CBCC" d="M502.2,369.4c0,0,1.2-7.4,16.1-13.4h3.4c0,0-5.8,1.5-9.7,5.4C511.9,361.4,503,367.7,502.2,369.4z"/>
<path fill="#C9CBCC" d="M508.9,375.5c0,0,4.9-10.1,9.5-13.5c0,0,8.9-9.4,13.6-9.4c0,0,4.1-1.4,2.2,0.8c-1.9,2.2-0.4,0.2-0.4,0.2  s-8.6,3.9-12.7,8.6C521.2,362.4,514.7,368,508.9,375.5z"/>
<path fill="none" d="M326.7,652.7c0,0-1.1,2.1,0.4,3.2c0,0,6.1,6.4,20.1,1.6c0,0,14.8-3.6,10.3-12.1c0,0-15.8,7-22.3,6.2  c0,0-7.4,1-8.3,0.7L326.7,652.7z"/>
<path fill="#D1D3D4" d="M397.1,647.4c0,0-4.2-1.5-3.2-6.6c0,0-0.9-7.6,9-10.9c0,0,14.8-4.2,22.6,2.6c0,0,8.6,5.7,5.2,14.8l-0.2,0.6  l-10.2,0.4c-3,0.6-0.6-8.9-10.3-7.8C410.1,640.6,400.8,641.2,397.1,647.4z"/>
<path fill="#D1D3D4" d="M286.1,730.5c0,0-4.7,18.2,5,19.7c0,0,12.6,2.1,18.6-12.6c0.4-1,0.9-2,1.4-3c1.4-2.9,4.1-9.6,3.1-16.7  c-0.5-3.7-2.9-7-6.4-8.2c-3.6-1.3-12.2,1.1-17.1,10.4c-0.1,0.5,4.9,1.8,11,3.3c0,0,4.8-1.1,1.1,8.2c0,0-1.2,5.4-6.3,3.9L286.1,730.5  z"/>
<path fill="#D1D3D4" d="M441.6,678.6c1.5,0.2,6.7,0,6.7,0s8.5-2.2,10.5-3.9c0,0,17-7.9,23.7-14.4c0,0,19.4-14,19.9-16.6  c0,0,3-2.2,3.2-3c0,0,1.4-3.7-4.3-1.8c0,0-20.2,5.6-23.4,7.7c0,0-21.2,8.9-30.9,14.7c-2.9,1.7-6.1,2.8-9.5,2.9l-10.1,0.6  c0,0-15.3,1.7-20.9,6.9c0,0-5.6,0.5-6.6,0.8c0,0-15.3,3.3-11.2,20c0,0,2.5,10.1,18.5-0.4c0,0,9.5-7.1,17.6-9.8c0,0,8.4-3.1,15.2-3.3  "/>
<path fill="#FFFEFF" d="M314,358.8c0,0,12.7-31.3,32.2-17.5c0,0,21.4,12,11.8,51.9c0,0-10.7,36.8-34.6,18.2c0,0-5-3.9-7.2-9.6  c0,0-6.1,23.3-25.6,19.5c0,0-25.2-6.3-15.2-51.4c1.2-5.4,3.6-10.5,7.1-14.7C288.8,347.4,300.1,340.2,314,358.8z"/>
<path fill="#58595B" d="M300.6,326c0,0-16.4-7.2-23.6,0.9c0,0-4.9,4.2-4,16.6C273,343.5,277,323.4,300.6,326z"/>
<path fill="#58595B" d="M328.2,390.8c0,0-0.2-27.1,15.5-27.1c0,0,9.6,0.4,11.8,17.3c0,0,2.7,32.2-16.6,29.4  C338.9,410.3,330.2,409.2,328.2,390.8z"/>
<path fill="#58595B" d="M298.2,373.3c0,0-10.9,5.7-9.8,22.5c0,0,1.1,19,12.3,19c0,0,10.5,2.8,12.9-15.5  C313.6,399.4,317.7,370.2,298.2,373.3z"/>
<path fill="#202124" d="M302.2,386c0,0-7-0.4-5.5,10.3c0,0,1.5,11.8,7.7,8.3c0,0,6.1-3.9,2.8-14.7  C307.2,389.9,307.2,386.4,302.2,386z"/>
<ellipse fill="#FFFFFE" cx="304.4" cy="387.5" rx="2.9" ry="4.2"/>
<ellipse fill="#FFFFFF" cx="346.4" cy="379.6" rx="2.9" ry="4.2"/>
<path fill="#211F24" d="M342.2,378.3c-1.4,0.2-2.7,1-3.5,2.2c-1.2,1.8-2.6,5-1.8,8.6c0,0,1.2,9.5,5,10c0,0,6.7,0.9,7.3-7.7  C349.3,391.3,352.7,377,342.2,378.3z"/>
<path fill="#fff" d="M295.8,375c0,0,1.9,3.2,3,6.7c0,0,1.2,2.9,1.3,4.2c0,0.2,0,0.3,0,0.4c0,0-2.1,1.2-2.5,2.3c0,0-7-2.3-8.5-1.8  C289,386.8,292,377,295.8,375z"/>
<path fill="#fff" d="M337,365.7c0,0,2.1,10.1,5.1,12.6c0,0-3.2,0.6-4.2,3.5c0,0-7.1-2.6-8.5-2.2  C329.5,379.6,332.6,368.3,337,365.7z"/>
<path fill="#808285" d="M282.7,435.6c0,0-0.9-1.6,0.3-3.5c0,0,1.4-2.4,2.5-2.9c0,0,2.8-0.9,2.1,1c0,0-2.2,0.9-2.8,2.1  C284.7,432.3,283.9,433.1,282.7,435.6z"/>
<path fill="#FFFFFF" d="M293,445.4c0,0,10.2,8.1,23.6,6.1c0,0,15.5-2.2,18.7-5.5c0,0,17.9-11.6,20.4-19.8c0,0-3.7,30.9-13.8,38.4  c0,0-23.3,20.2-42.7,0.7C299.2,465.3,292.7,457.8,293,445.4z"/>
<path fill="#231F20" d="M299.8,465.8c0,0,3.7,22.1,4,32.2c0.1,1.5,0.4,2.9,1,4.2c2,4.3,6.9,12.3,13.6,7.4c0,0,7.2-2.8,17-24.7  c0,0,9.6-19.5,9.7-23.5C345,461.4,321.7,486.5,299.8,465.8z"/>
<path fill="none" stroke="#FFF200" stroke-miterlimit="10" d="M288.8,575.7c0,0-12.2,3.6-24-8.2"/>
<path fill="#58595B" d="M325.4,518.9c0,0-4.3,6.2-9,5.6c0,0-6.2,1.6-9.8-8c0,0,1,11.7,8,11.3C314.5,527.8,321.6,528.8,325.4,518.9z"/>
<path fill="#58595B" d="M301.7,574.7c0,0,33,3.5,46.4-1.6c0,0,32.2-10.5,41-8.6c0,0,4.3,1.4,5.7-1.4l3.3-9.4l-38.6,6.2L301.7,574.7z  "/>
<path fill="#58595B" d="M263.2,636.3c0,0,11.2,1.8,10.7,11.9l0,9.4l9.8-16.2l0.7-2c0,0-11.3-10.8-12.9-15  C271.5,624.3,266.9,626.5,263.2,636.3z"/>
<path fill="#58595B" d="M313.6,683.7c0,0,8.2,1.9,10.7-2.9c0,0,8.2-10.2,9-22c0,0-0.5,15.4-2.2,18.8c0,0-1.1,5.7-3.7,7.3  C327.4,685,319.1,691.1,313.6,683.7z"/>
<path fill="#58595B" d="M337.3,659.3c0,0,2.5,9.7,0.5,16c0,0-1.4,4-1.3,5c0,0,1.4,11.9,3,13.3c0,0,2.9-8.8,2.8-12.4  C342.3,681.2,341.9,664.3,337.3,659.3z"/>
<path fill="#58595B" d="M351,656.2c0,0,10.3,2.6,14.7,7.3c0,0,4.2,2.3,4.4,5.5c0,0,7.2-2.5,6.8-10.5  C376.8,658.4,370.2,660.3,351,656.2z"/>
<path fill="#D1D3D4" d="M348.7,657c0,0,9.4,9,10.9,13.2c0,0,5.1,6.1-0.5,9.8c0,0,6.1,1.8,8.8,0.8c0,0,5.6-0.4,1-5.1  C369,675.7,358.2,660.3,348.7,657z"/>
<path fill="#D1D3D4" d="M344.2,687.4l-0.5,4.7c0,0,10-0.8,13.2-11C356.9,681.1,350.5,690.5,344.2,687.4z"/>
<path fill="#58595B" d="M382.7,613.6c0,0-2.8,2-7.1,2.3c0,0-2,13-12.6,21.4c0,0-8.9,7.3-11.5,7.9c0,0,16.5-6.5,23.1-16.6  C374.6,628.7,383.5,617.7,382.7,613.6z"/>
<path fill="#58595B" d="M404.8,473l-8.5-4.8c0,0-5.3-3.9-1.3,2.4c0,0,9.4,18.4,6.7,31.5c0,0,5-5.7,4.5-13.5L404.8,473z"/>
<path fill="#58595B" d="M200.7,795.9c0,0-5.1,1,0.1,1.3c0,0,115.6,1.6,130,1.1L366,797c0,0,19-1,0-1c0,0-71.3-1-77.9-1.5l-30.5-1  L200.7,795.9z"/>
<path fill="#58595B" d="M398.2,561.2c0,0-5.4,28.2-10.2,31.5l5.7-1.2l5.4-17.2C399.1,574.4,399.9,564.2,398.2,561.2z"/>
<path fill="#58595B" d="M285.3,289.2l3.7,7.5c0,0-13.1,2.3-21.9,23.3c0,0-6.9,17.1-7.5,47.5c0,0,0.3,14.7,0.7,16.3  c0,0-0.3,4.4-1.3-0.6c0,0-4.4-42.9,2.1-57.3C261,325.9,267.1,301.3,285.3,289.2z"/>
<path fill="#58595B" d="M276,246.1c0,0-9.8,8.1-4.8,23.4c0,0,2.5,8.9,3.4,10.4c0,0-5.2-6.9-6.8-13.8c0,0-2.4-5.8-2.2-9.8  C265.6,256.2,266,247.4,276,246.1z"/>
<path fill="#58595B" d="M262.1,265.6c0,0-0.5,12.3,9,16.5c0,0-9.5,0.9-19.6-24.8c0,0,4.4-0.2,6.8,4.4  C258.4,261.7,259.2,265,262.1,265.6z"/>
<path fill="#58595B" d="M261.4,293.5l-25.1-2.3c0,0-4.6-0.9,0.8-6c0,0,1.9-2.8,4.9-3.1l3.3,0.9c0,0-2.5,7.5,7.1,8.4  C252.4,291.4,259.8,293.1,261.4,293.5z"/>
<path fill="#58595B" d="M259.3,296.3c0,0-8.3,3.6-12.2,7.2c-2.2,2-4.6,3.9-7.1,5.5c-1.4,0.9-2.6,1.6-3,1.9c0,0-2.5-8.8-0.3-12.3  c0,0,5.5,0.1,9.5,0.4c2.2,0.1,4.3,0,6.5-0.5C255.3,298,258.5,297.2,259.3,296.3z"/>
<path fill="#808285" d="M378.1,431.6c0,0-16.8-13.6-27.1-11.6c0,0-3.4,1.6-1.1,3.4C349.8,423.4,367.7,424.5,378.1,431.6z"/>
<path fill="#58595B" d="M356.9,423.4c0,0-13.4,23.4-31.9,25.4c-1,0.1-1.9,0.3-2.8,0.6c-5.8,1.7-26.6,6.2-35.3-15.1c0,0,2,9.6,6,12.1  c0,0,15.7,11,34.2,4.2c0.6-0.2,1.3-0.4,1.9-0.6C333.2,448.9,352.2,442.9,356.9,423.4z"/>
<circle fill="#58595B" cx="365.4" cy="617.1" r="2.6"/>
<circle fill="#58595B" cx="375.8" cy="599.5" r="2.5"/>
<circle fill="#58595B" cx="379.4" cy="582.6" r="0.9"/>
<circle fill="#58595B" cx="389.4" cy="572.9" r="2"/>
<circle fill="#58595B" cx="381" cy="572.9" r="1.7"/>
<circle fill="#58595B" cx="367.1" cy="607.2" r="2.2"/>
<circle fill="#58595B" cx="359.7" cy="631.2" r="1.8"/>
<circle fill="#58595B" cx="343.4" cy="634.7" r="1.6"/>
<circle fill="#E6E7E8" cx="303.9" cy="641" r="1.6"/>
<circle fill="#E6E7E8" cx="293.5" cy="634.7" r="1.6"/>
<circle fill="#E6E7E8" cx="286.1" cy="628.7" r="1.7"/>
<circle fill="#E6E7E8" cx="279.4" cy="621" r="1.8"/>
<circle fill="#E6E7E8" cx="286.9" cy="617.1" r="1.5"/>
<ellipse fill="#808285" cx="276.2" cy="519.3" rx="1.4" ry="1.2"/>
<circle fill="#808285" cx="278.3" cy="504.3" r="1.2"/>
<circle fill="#808285" cx="278.3" cy="478.1" r="1.2"/>
<circle fill="#808285" cx="278.3" cy="461.9" r="1.6"/>
<circle fill="#808285" cx="283.6" cy="453.6" r="1.4"/>
<ellipse fill="#808285" cx="277.1" cy="446.8" rx="1.2" ry="0.8"/>
<circle fill="#808285" cx="276.7" cy="432.3" r="1.7"/>
<circle fill="#808285" cx="281.1" cy="421" r="3.7"/>
<circle fill="#808285" cx="272" cy="417.6" r="1.7"/>
<circle fill="#808285" cx="273" cy="406.4" r="1.4"/>
<ellipse fill="#808285" cx="265.5" cy="403.7" rx="1.3" ry="1.3"/>
<ellipse fill="#808285" cx="360.7" cy="410.2" rx="2" ry="2.4"/>
<ellipse fill="#808285" cx="368.6" cy="407.9" rx="1.5" ry="3.8"/>
<ellipse fill="#808285" cx="365.5" cy="399.3" rx="0.8" ry="1.4"/>
<ellipse fill="#808285" cx="373.4" cy="419.1" rx="1.9" ry="0.9"/>
<ellipse fill="#808285" cx="380.9" cy="421.5" rx="2.8" ry="3.2"/>
<ellipse fill="#808285" cx="378.2" cy="409.2" rx="0.8" ry="1.3"/>
<ellipse fill="#808285" cx="385.5" cy="397" rx="2.7" ry="2.3"/>
<ellipse fill="#808285" cx="386.7" cy="377.4" rx="2.9" ry="2.3"/>
<ellipse fill="#808285" cx="377.1" cy="371.1" rx="1.9" ry="2"/>
<ellipse fill="#808285" cx="343.1" cy="422.3" rx="2" ry="2.4"/>
<path fill="#58595B" d="M393.4,592.7c0,0-9.5,5.1-10.6,10.4c0,0,23.8-12,35.5-14.1c0.2,0,0.5-0.1,0.7-0.2c1.7-0.6,9.3-3.1,15.3-2.5  c0,0-7.4-2.7-34.9,6.3l-6.3,1.2L393.4,592.7z"/>
<path fill="#58595B" d="M453.6,585.2c-0.7-0.6-1.7-0.8-3,0.2c-0.4,0.3-0.7,0.8-0.9,1.2c-2,4.8-14.4,34.4-21.2,39.8  c0,0,7.5-6.2,12.1-13.9l13.7-23.4C454.9,587.9,454.8,586.2,453.6,585.2z"/>
<path fill="#92352E" d="M300.1,301.2c0,0,8.1,13.8,23.5,23.1c0,0,24.4,13.1,38.8,15.1c0,0,21.6,3.1,32.6,0l-0.9-3.2  c0,0-22.2,5.3-42-2.8c0,0-22.9-7.2-35.8-18C316.4,315.4,302.5,305.2,300.1,301.2z"/>
<path fill="#58595B" d="M382.2,342c0,0,8.4,0.3,10.2-0.8l3.1,29.5c0,0,3.7,28.6,3.5,35.2c0,0,0.4,33.8-0.8,40.4  c-1.2,6.5-0.5,0-0.5,0s-0.9-38.8-1.5-41.3c0,0-5-40.2-7.9-48.9C388.2,356.1,386.6,350,382.2,342z"/>
<ellipse fill="#808285" cx="376.4" cy="354.8" rx="1.7" ry="2.1"/>
<path fill="#F8DAB6" stroke="#FFFFFF" stroke-linecap="round" stroke-miterlimit="10" d="M312.3,727c0,0-4.6,15.1-7.9,16.6"/>
<path fill="none" stroke="#FFFFFF" stroke-linecap="round" stroke-miterlimit="10" d="M400.8,633c0,0,12.5-3.8,18,0"/>
<path opacity="0.3" fill="none" stroke="#FFFFFF" stroke-linecap="round" stroke-miterlimit="10" d="M219.6,476.9  c0,0,18.6,2.2,22.4-0.7"/>
<path fill="#58595B" d="M406.1,452.2c0,0-4.3,1.7-1.2,3.9l19.5,10.9l-16.4-13.3C408.1,453.7,406.9,451.8,406.1,452.2z"/>
<path fill="#E4EBEE" d="M275.1,179.9c4.4-15.7,21.1-63,63.2-64.5c2.1-0.1,4.2,0.3,6.1,1c5.5,2.2,16.2,8.1,19.4,22.6  c0,0,5.4-6,8.4-1.9c0,0,10.1-33.3,41.6-11.6c0,0,19.3,10.5,17.3,38.1c0,0,50.8-27.8,67.2,40.9c0,0,13.6,55.4-66.1,56.7  c0,0-29.8,21-34.4,50.1c0,0,17.1,25.8-7.4,30.2s-69.8-8.1-98.7-45.7c0,0-18.2-27.1,14.9-29.8c0,0,14.2-9.2,10.9-52.7  c0,0-37.1,6.9-42.9-22.1C273.8,187.5,274.1,183.6,275.1,179.9z"/>
<path fill="#FFFFFF" d="M291.2,207c0,0-13.8-8.5-3.3-29.2c0,0-3.3,30.9,14.4,24.6c0,0,16.1-2,31.2-15.1c0,0,4.9,25.9,31.2,19.7  c0,0,1,37.4,46.3,7.2c0,0,8.2,15.8,16.7,9.5c0,0,10.7,31.3,61,18.2c0,0,9.6-10.8,9.9-21.8c0,0,2-14.3-2.3-22.3c0,0-7.4-25-21-33.1  c0,0-16.5-13.8-44.4-1c0,0,4.8-29.2-26.7-43.2c0,0-22.5-10.4-32.2,16.8c0,0-3.3-4.4-8.4,1.9c0,0-10.3-35.8-44.5-19.4  c0,0-22.3,6.6-38.8,44.8c0,0-10.4,20.9-4.5,31.9C276,196.3,286,207.1,291.2,207z"/>
<path fill="#F8F8F8" d="M319.9,214.6c0,0-0.2-9.6,5.5-1.8c0,0,2,4.2,11.4,4.6c0,0,13.6,1.3,19.9,17.1c0,0,11.4,14.7,37,3.3  c0,0,16.6-9.2,22.5-4.4c0,0,9,2.2,4.8,15.8c0,0-6.1,25.8-24.3,41.4c0,0-15.2,17.7-36.2,18.6c0,0,22.7,4.5,31.9,1.8  c0,0-22.5,10.5-42,6.7c0,0-33.3-9.7-41.1-40c0,0-1.3,22.3,24.5,35c0,0,23.4,18.1,62.6,10.4c0,0,8.1-4.2,2.4,4.7  c0,0-3.6,12-25.4,10.9c0,0-54-12.7-74.8-39.4c0,0-16.4-20.8,2.2-28.7c0,0,1.6-0.5,3.2-0.5c2.7-0.1,5.2-1.3,6.7-3.6  C315.9,258.3,325.1,239.8,319.9,214.6z"/>
<line opacity="0.3" fill="none" stroke="#231F20" stroke-linecap="round" stroke-miterlimit="10" x1="169.6" y1="381.8" x2="175.2" y2="388.9"/>
<path fill="#fff" d="M406.1,316.6h188.2v24.3c0,0,0,0.2-0.1,0.6c-1.3,6.8-7.4,11.7-14.3,11.7H420.2c-3.7,0-7.4-1.2-10.1-3.7  c-2.1-1.9-4-4.7-4-8.5V316.6z"/>
<path fill="#58595B" d="M412.6,322.6c0,0-1.9-3.1-2.2-0.2l0.3,14.2c0,1,0.2,2,0.5,2.9c1,2.9,3.7,8.8,8.2,9.1l73.6,0.8h86.2  c3,0,6-1.2,8.1-3.4c0.1-0.1,0.3-0.3,0.4-0.4c2.7-2.8,4.2-6.7,4.2-10.6v-12.6c0,0-0.4-4.4-2.8,0l-0.2,9.2c0,1.7-0.4,3.3-1.2,4.8  c-1.5,2.7-4.4,6.4-9.3,6.6l-98.6-0.2h-57c-1.7,0-3.4-0.5-4.8-1.4c-0.6-0.4-1.2-0.8-1.7-1.3c-2.6-2.3-3.9-5.6-3.8-9L412.6,322.6z"/>
<path opacity="0.74" fill="none" stroke="#FFFFFF" stroke-width="2" stroke-linecap="round" stroke-miterlimit="10" d="M454.1,426.2  c0,0,12.2,7.3,19.6,0"/>
<path fill="#FFFFFF" d="M308.1,516.5c0,0,1.1,4.8,4.2,5.7"/>
<path fill="#fff" d="M225.7,279.3c0,0,6.7-3,4.5,6.2c0,0-1,7.4-9.1,3.2c0,0-9.7-7.3-2.5-19.7c0,0,7.8-16.3,20.5-5.3  c0,0,9.3,8.4,7,26.8c0,0-1.8,24.4-11.2,42.3l-19.7,31.9l-16,18.5l-6.5,4.2l6.6-10.8c0,0,20.8-22.9,26.1-34.3c0,0,10.4-15.9,13-28.5  c0,0,7.8-29.4,2.2-40.6c0,0-8.5-14.1-16.5-6.1c0,0-6.7,5.9-3.2,15.8c0,0,0.9,2.7,3.1,2.5c0,0,2.4,0.8,2.3-1.3  C226.4,284.1,220.3,280.5,225.7,279.3z"/>
<path fill="#fff" d="M148.4,279c0,0-8.2-0.1-2.3,9.8c0,0,5,3.2,8.3-1c0,0,6.4-10.3,2.1-18.8c-0.1-0.2-0.2-0.3-0.3-0.5  c-4.8-8.6-20.2-17.1-27.4,6.6c0,0-2.1,17.3,0,26.8c0,0,5.4,22.8,10,29c0,0,10.9,21.4,14.2,25.3c0,0,20.1,26,26.2,30l-4-9.8  c0,0-19.6-19.5-24-32c0,0-13.1-25.7-15.6-34.5c0,0-8.3-28,1.4-40.3c0,0,8.1-13.3,16.5,3c0,0,2.4,9.3-0.9,11.8c0,0-2.2,2.6-3.9,0.8  C148.9,285.1,152.6,279,148.4,279z"/>
<path fill="#FCFCFC" d="M267.7,500.1c0,0-9.5-5-14.1,13.6c0,0-3.1,16.2-5.1,24.7c-1.4,5.9,0,12.3,4,16.9c1.6,1.8,3.7,3.5,6.4,4.8  l5.1,2.2c0,0-0.3,4.3,0.7,5.2c0,0-9.8-0.6-12.3,1.1c0,0-18.9,6.6-26.3,29.8c0,0-8,20.1-7.5,25.2c0,0,18.4-13.3,25.3-13.6l2.7-0.4  l1.6-0.1c0,0-9.7,24.8-9.5,33.2c0,0-2.4,17-1,22.9c0,0,15.8-28.9,24.2-33.7c1.9-1.1,3.7-2.2,5.3-3.6c4.1-3.5,10.3-9.3,11.5-12.2  c0,0,9.5-15,10.1-26.7c0,0,1.2-9.4,0-13.6l0.5-1.3c0,0,41,0.5,56.2-5.4c0,0,18.3-4.7,26.4-9.2c0,0,30.3-11.3,50-4.6  c0,0,8.5,3,11.9,4.8c0,0,3.9-21.8-2.3-29.2c0,0-1.5-2.3-3-4.5c-1.3-1.9-2.8-3.6-4.5-5.2c-1.4-1.3-2.9-3.6-2.3-7.1  c0,0,1.4-23.1-5.7-27.2c0,0-8.5-7.7-10,1.9c0,0,0.2,8.1-3.9,13.6c-4.2,5.5-0.5-0.1-0.5-0.1s-19.8,24.7-31.8,31.5  c0,0-33.1,21.7-60.3,23.4c0,0-8.2,1-12.1-1.5c0,0,2.8-18.1-4.8-16.7l-15.9-0.7c0,0-3.3,0.7-4.6,4.3  C272.2,542.4,261.8,528,267.7,500.1z"/>
<path fill="#58595B" d="M355.6,336.5c0,0-12.2-27.7-27.3-9C328.2,327.5,340.7,321.4,355.6,336.5z"/>
<path fill="#E6E6E6" d="M365.4,554.6c0,0,38.9-19.9,43.8-25.9c0,0,7.2-4.6,9.4-12.1c0,0,2,6.2,5.9,7.1  C424.5,523.5,389.7,548.3,365.4,554.6z"/>
<path fill="#E7E7E7" d="M239.7,596.2c0,0,7.4-14.4,16.2-19.5c0,0,7.2-5.7,10.5-5.9c0,0,7.5,2.6,8.2,4.8l-3.8,4.6  c0,0-3.1-9.7-13.7-0.3C257.2,579.8,240.4,594.9,239.7,596.2z"/>
<path opacity="0.3" fill="none" stroke="#FFFFFF" stroke-miterlimit="10" d="M272,542.4c0,0-7.4,6.3-8,19.9"/>
<path fill="#E8E8E8" d="M255.6,517.8c0,0-6.2,10.8,0,23.5c0,0,5.2,8.9,10.3,11.1c0,0-6-10.8-7.3-15.7  C258.6,536.7,253.2,523.9,255.6,517.8z"/>
<g opacity="0.25">
	<path fill="#231F20" d="M273,568.7c-0.4,0-0.8-0.3-0.9-0.8c-0.1-0.6-2.3-15.8,6.6-25.2c0.3-0.4,0.9-0.4,1.2,0   c0.4,0.3,0.4,0.9,0,1.2c-8.3,8.8-6.2,23.6-6.2,23.7c0.1,0.5-0.3,0.9-0.7,1C273.1,568.7,273.1,568.7,273,568.7z"/>
</g>
<g opacity="0.25">
	<path fill="#231F20" d="M281.4,561C281.4,561,281.4,561,281.4,561c-0.5,0-0.9-0.6-0.9-1.1c0-1.6,0.5-16.1,6.9-17.3   c0,0,3.2-1.2,5.6,0.7c1.9,1.5,2.7,4.3,2.3,8.4c0,0.5-0.5,0.8-1,0.8c-0.5,0-0.8-0.5-0.8-1c0.3-3.4-0.3-5.8-1.6-6.8   c-1.6-1.3-4.1-0.5-4.1-0.5c-4.4,0.9-5.6,11.7-5.6,15.8C282.3,560.5,281.9,561,281.4,561z"/>
</g>
<g opacity="0.25">
	<path fill="#231F20" d="M292.3,575.2l-9.6-4.7l-0.1-0.3c-0.1-0.3-3.1-7.1,0.1-11.7c0.5-1.1,2.7-4.8,4.7-4.8l10,1l-0.2,1.8l-9.9-1   c-0.5,0-2.1,1.9-3.2,4c-2.4,3.4-0.6,8.5-0.1,9.8l9.1,4.4L292.3,575.2z"/>
</g>
<g opacity="0.25">
	<path fill="#231F20" d="M248.3,610.4c-0.2,0-0.4-0.1-0.5-0.2c-0.4-0.3-0.5-0.8-0.2-1.2l22.5-29.3c0.3-0.4,0.8-0.5,1.2-0.2   c0.4,0.3,0.5,0.8,0.2,1.2L249,610C248.9,610.2,248.6,610.4,248.3,610.4z"/>
</g>
<path fill="#E5EDF5" d="M266.4,624.3c0,0,14.6-8.9,15.4-31.5c0,0,0.5-7.8-0.5-12.8h5.3c0,0,1.6,19.1-3.3,25.7  C283.4,605.7,273.5,623.8,266.4,624.3z"/>
<path fill="#863035" d="M257.2,637.6"/>
<g>
	<path fill="#fff" d="M815.6,214.7h73.2c12.2,0,21.6,3,28.1,9c6.5,6,9.8,13.4,9.8,22.2c0,7.4-2.3,13.7-7,19   c-3.1,3.5-7.7,6.3-13.6,8.4c9.1,2.2,15.8,5.9,20.1,11.1c4.3,5.3,6.4,11.9,6.4,19.8c0,6.5-1.5,12.3-4.6,17.5   c-3.1,5.2-7.2,9.3-12.5,12.3c-3.3,1.9-8.2,3.2-14.8,4.1c-8.8,1.1-14.6,1.7-17.5,1.7h-67.5V214.7z M855,263.7h17   c6.1,0,10.3-1,12.7-3.1c2.4-2.1,3.6-5.1,3.6-9c0-3.6-1.2-6.5-3.6-8.5c-2.4-2-6.5-3.1-12.5-3.1H855V263.7z M855,312.8H875   c6.7,0,11.5-1.2,14.2-3.5c2.8-2.4,4.1-5.5,4.1-9.5c0-3.7-1.4-6.7-4.1-8.9c-2.7-2.2-7.5-3.4-14.4-3.4H855V312.8z"/>
	<path fill="#fff" d="M1027.8,319.1h-44.4l-6.2,20.6h-39.9l47.6-125h42.7l47.6,125h-40.9L1027.8,319.1z M1019.7,292l-14-44.9   L991.9,292H1019.7z"/>
	<path fill="#fff" d="M1088,339.7v-125h65.2c12.1,0,21.3,1,27.7,3.1s11.5,5.8,15.5,11.4c3.9,5.5,5.9,12.3,5.9,20.2   c0,6.9-1.5,12.9-4.5,17.9c-3,5-7.1,9.1-12.4,12.2c-3.3,2-7.9,3.6-13.7,4.9c4.7,1.5,8.1,3.1,10.2,4.6c1.4,1,3.5,3.2,6.3,6.6   c2.7,3.4,4.6,5.9,5.5,7.8l18.9,36.2h-44.2l-20.9-38.2c-2.6-4.9-5-8.2-7.1-9.6c-2.8-1.9-6-2.9-9.6-2.9h-3.5v50.7H1088z    M1127.3,265.4h16.5c1.8,0,5.2-0.6,10.4-1.7c2.6-0.5,4.7-1.8,6.3-3.9c1.6-2.1,2.5-4.5,2.5-7.2c0-4-1.3-7.1-3.9-9.3   c-2.6-2.2-7.5-3.2-14.6-3.2h-17.2V265.4z"/>
	<path fill="#fff" d="M1225.5,339.7v-125h65.2c12.1,0,21.3,1,27.7,3.1s11.5,5.8,15.5,11.4c3.9,5.5,5.9,12.3,5.9,20.2   c0,6.9-1.5,12.9-4.5,17.9c-3,5-7.1,9.1-12.4,12.2c-3.3,2-7.9,3.6-13.7,4.9c4.7,1.5,8.1,3.1,10.2,4.6c1.4,1,3.5,3.2,6.3,6.6   c2.7,3.4,4.6,5.9,5.5,7.8l18.9,36.2h-44.2l-20.9-38.2c-2.6-4.9-5-8.2-7.1-9.6c-2.8-1.9-6-2.9-9.6-2.9h-3.5v50.7H1225.5z    M1264.8,265.4h16.5c1.8,0,5.2-0.6,10.4-1.7c2.6-0.5,4.7-1.8,6.3-3.9c1.6-2.1,2.5-4.5,2.5-7.2c0-4-1.3-7.1-3.9-9.3   c-2.6-2.2-7.5-3.2-14.6-3.2h-17.2V265.4z"/>
	<path fill="#fff" d="M1362.4,214.7h104.8v26.7h-65.6v19.9h60.9v25.5h-60.9v24.6h67.5v28.3h-106.7V214.7z"/>
	<path fill="#fff" d="M1481.3,214.7h118.9v30.9h-39.9v94.1h-39.1v-94.1h-39.9V214.7z"/>
	<path fill="#fff" d="M1609,214.7h118.9v30.9h-39.9v94.1h-39.1v-94.1H1609V214.7z"/>
	<path fill="#fff" d="M1738.7,298.4l37.2-2.3c0.8,6,2.4,10.5,4.9,13.6c4,5.1,9.8,7.6,17.3,7.6c5.6,0,9.9-1.3,12.9-3.9   c3-2.6,4.5-5.6,4.5-9c0-3.2-1.4-6.1-4.3-8.7c-2.9-2.6-9.6-5-20-7.2c-17.1-3.8-29.4-8.9-36.7-15.2c-7.4-6.3-11-14.3-11-24.1   c0-6.4,1.9-12.5,5.7-18.2c3.8-5.7,9.4-10.2,17-13.5c7.6-3.3,17.9-4.9,31.1-4.9c16.2,0,28.5,3,37,8.9c8.5,5.9,13.5,15.4,15.1,28.3   l-36.9,2.1c-1-5.6-3-9.7-6.2-12.3c-3.1-2.6-7.5-3.8-13-3.8c-4.5,0-8,1-10.3,2.9c-2.3,1.9-3.5,4.2-3.5,6.9c0,2,1,3.8,2.8,5.4   c1.8,1.6,6.2,3.2,13.1,4.6c17.1,3.6,29.3,7.3,36.7,11c7.4,3.7,12.8,8.3,16.1,13.9c3.4,5.5,5,11.7,5,18.5c0,8-2.2,15.4-6.7,22.2   c-4.5,6.8-10.8,11.9-18.8,15.4c-8.1,3.5-18.2,5.2-30.5,5.2c-21.5,0-36.4-4.1-44.7-12.3C1744.5,321.4,1739.8,311,1738.7,298.4z"/>
	<path fill="#fff" d="M1925.3,298.4l37.2-2.3c0.8,6,2.4,10.5,4.9,13.6c4,5.1,9.8,7.6,17.3,7.6c5.6,0,9.9-1.3,12.9-3.9   c3-2.6,4.5-5.6,4.5-9c0-3.2-1.4-6.1-4.3-8.7c-2.9-2.6-9.6-5-20-7.2c-17.1-3.8-29.4-8.9-36.7-15.2c-7.4-6.3-11-14.3-11-24.1   c0-6.4,1.9-12.5,5.7-18.2c3.8-5.7,9.4-10.2,17-13.5c7.6-3.3,17.9-4.9,31.1-4.9c16.2,0,28.5,3,37,8.9c8.5,5.9,13.5,15.4,15.1,28.3   l-36.9,2.1c-1-5.6-3-9.7-6.2-12.3c-3.1-2.6-7.5-3.8-13-3.8c-4.5,0-8,1-10.3,2.9c-2.3,1.9-3.5,4.2-3.5,6.9c0,2,1,3.8,2.8,5.4   c1.8,1.6,6.2,3.2,13.1,4.6c17.1,3.6,29.3,7.3,36.7,11c7.4,3.7,12.8,8.3,16.1,13.9c3.4,5.5,5,11.7,5,18.5c0,8-2.2,15.4-6.7,22.2   c-4.5,6.8-10.8,11.9-18.8,15.4c-8.1,3.5-18.2,5.2-30.5,5.2c-21.5,0-36.4-4.1-44.7-12.3C1931.1,321.4,1926.4,311,1925.3,298.4z"/>
	<path fill="#fff" d="M2137.6,319.1h-44.4l-6.2,20.6h-39.9l47.6-125h42.7l47.6,125h-40.9L2137.6,319.1z M2129.5,292l-14-44.9   l-13.8,44.9H2129.5z"/>
	<path fill="#fff" d="M2273.6,214.7h39v74.5c0,7.4-1.2,14.4-3.5,20.9c-2.3,6.6-6,12.3-11,17.2c-5,4.9-10.2,8.4-15.7,10.3   c-7.6,2.8-16.7,4.2-27.4,4.2c-6.2,0-12.9-0.4-20.2-1.3c-7.3-0.9-13.4-2.5-18.3-5.1c-4.9-2.5-9.4-6.1-13.4-10.8   c-4.1-4.7-6.8-9.5-8.3-14.4c-2.4-8-3.6-15-3.6-21.1v-74.5h39V291c0,6.8,1.9,12.1,5.7,16c3.8,3.8,9.1,5.7,15.9,5.7   c6.7,0,12-1.9,15.8-5.7c3.8-3.8,5.7-9.1,5.7-16.1V214.7z"/>
	<path fill="#fff" d="M2331.7,298.4l37.2-2.3c0.8,6,2.4,10.5,4.9,13.6c4,5.1,9.8,7.6,17.3,7.6c5.6,0,9.9-1.3,12.9-3.9   c3-2.6,4.5-5.6,4.5-9c0-3.2-1.4-6.1-4.3-8.7c-2.9-2.6-9.6-5-20-7.2c-17.1-3.8-29.4-8.9-36.7-15.2c-7.4-6.3-11-14.3-11-24.1   c0-6.4,1.9-12.5,5.7-18.2c3.8-5.7,9.4-10.2,17-13.5c7.6-3.3,17.9-4.9,31.1-4.9c16.2,0,28.5,3,37,8.9c8.5,5.9,13.5,15.4,15.1,28.3   l-36.9,2.1c-1-5.6-3-9.7-6.2-12.3c-3.1-2.6-7.5-3.8-13-3.8c-4.5,0-8,1-10.3,2.9c-2.3,1.9-3.5,4.2-3.5,6.9c0,2,1,3.8,2.8,5.4   c1.8,1.6,6.2,3.2,13.1,4.6c17.1,3.6,29.3,7.3,36.7,11c7.4,3.7,12.8,8.3,16.1,13.9c3.4,5.5,5,11.7,5,18.5c0,8-2.2,15.4-6.7,22.2   c-4.5,6.8-10.8,11.9-18.8,15.4c-8.1,3.5-18.2,5.2-30.5,5.2c-21.5,0-36.4-4.1-44.7-12.3C2337.5,321.4,2332.8,311,2331.7,298.4z"/>
	<path fill="#fff" d="M2544,319.1h-44.4l-6.2,20.6h-39.9l47.6-125h42.7l47.6,125h-40.9L2544,319.1z M2535.9,292l-14-44.9   l-13.8,44.9H2535.9z"/>
	<path fill="#fff" d="M2664.1,294.4v-26h60.4v53.3c-11.6,7.8-21.8,13.1-30.7,15.9c-8.9,2.8-19.4,4.2-31.6,4.2   c-15,0-27.3-2.5-36.7-7.6c-9.5-5.1-16.8-12.6-22-22.6c-5.2-10-7.8-21.5-7.8-34.4c0-13.6,2.8-25.5,8.5-35.6c5.7-10.1,14-17.7,25-23   c8.6-4,20.1-6.1,34.6-6.1c14,0,24.4,1.3,31.4,3.8c6.9,2.5,12.7,6.4,17.3,11.6c4.6,5.3,8,11.9,10.3,20l-37.7,6.6   c-1.6-4.7-4.2-8.3-7.9-10.8c-3.7-2.5-8.4-3.8-14.2-3.8c-8.6,0-15.4,2.9-20.5,8.8s-7.6,15.2-7.6,27.9c0,13.5,2.6,23.2,7.7,29   c5.1,5.8,12.3,8.7,21.5,8.7c4.4,0,8.5-0.6,12.5-1.9c4-1.2,8.5-3.4,13.6-6.4v-11.8H2664.1z"/>
	<path fill="#fff" d="M2747.7,214.7h104.8v26.7h-65.6v19.9h60.9v25.5h-60.9v24.6h67.5v28.3h-106.7V214.7z"/>
</g>
<g>
	<path fill="#fff" d="M802.3,561.4l49.1-125h18.2l52.3,125h-19.3l-14.9-37.9h-53.5l-14,37.9H802.3z M839.2,510.1h43.3l-13.3-34.6   c-4.1-10.5-7.1-19.2-9.1-25.9c-1.6,8-3.9,16-6.9,23.9L839.2,510.1z"/>
	<path fill="#fff" d="M947.4,561.4L919,470.9h16.2l14.7,52.3l5.5,19.4c0.2-1,1.8-7.2,4.8-18.7l14.7-53h16.1l13.9,52.5l4.6,17.3   l5.3-17.5l15.9-52.3h15.3l-29,90.5h-16.3l-14.7-54.2l-3.6-15.4l-18.8,69.6H947.4z"/>
	<path fill="#fff" d="M1119.7,550.3c-5.8,4.8-11.4,8.2-16.8,10.2c-5.4,2-11.1,3-17.3,3c-10.2,0-18-2.4-23.5-7.3   c-5.5-4.9-8.2-11.1-8.2-18.6c0-4.4,1-8.5,3.1-12.1c2.1-3.7,4.8-6.6,8.1-8.8c3.3-2.2,7.1-3.9,11.3-5c3.1-0.8,7.7-1.6,14-2.3   c12.7-1.5,22-3.2,28-5.3c0.1-2.1,0.1-3.4,0.1-4c0-6.3-1.5-10.7-4.4-13.2c-4-3.5-10-5.2-17.9-5.2c-7.4,0-12.8,1.3-16.4,3.8   c-3.5,2.5-6.1,7-7.8,13.4l-15.4-2c1.4-6.4,3.7-11.6,6.9-15.6c3.2-3.9,7.8-7,13.9-9.1c6-2.1,13.1-3.2,21-3.2   c7.9,0,14.3,0.9,19.3,2.7c4.9,1.8,8.6,4.1,10.9,6.9c2.3,2.8,4,6.2,4.9,10.4c0.5,2.6,0.8,7.3,0.8,14.2v20.5c0,14.3,0.3,23.3,1,27.1   c0.7,3.8,2,7.4,4,10.9h-16.4C1121.2,558.3,1120.2,554.5,1119.7,550.3z M1118.4,516c-5.7,2.3-14.2,4.2-25.6,5.8   c-6.5,0.9-11,1.9-13.7,3.1c-2.7,1.1-4.7,2.8-6.2,5c-1.5,2.2-2.2,4.6-2.2,7.3c0,4.1,1.6,7.5,4.8,10.2c3.2,2.7,7.8,4.1,13.9,4.1   c6,0,11.4-1.3,16.1-3.9c4.7-2.6,8.2-6.1,10.4-10.6c1.7-3.5,2.5-8.6,2.5-15.3V516z"/>
	<path fill="#fff" d="M1158.4,561.4v-90.5h14.1v13.7c3.6-6.4,6.9-10.7,10-12.7s6.4-3.1,10.1-3.1c5.3,0,10.7,1.6,16.1,4.9   l-5.4,14.2c-3.8-2.2-7.7-3.3-11.5-3.3c-3.4,0-6.5,1-9.2,3c-2.7,2-4.7,4.8-5.8,8.4c-1.7,5.5-2.6,11.4-2.6,17.9v47.4H1158.4z"/>
	<path fill="#fff" d="M1278.2,561.4V550c-5.9,9-14.5,13.5-25.9,13.5c-7.4,0-14.2-2-20.4-6c-6.2-4-11-9.5-14.4-16.7   c-3.4-7.1-5.1-15.3-5.1-24.6c0-9,1.5-17.2,4.6-24.6c3.1-7.4,7.7-13,13.9-16.9c6.2-3.9,13.1-5.9,20.7-5.9c5.6,0,10.6,1.2,14.9,3.5   s7.9,5.3,10.6,9v-44.8h15.6v125H1278.2z M1228.5,516.3c0,11.6,2.5,20.3,7.5,26c5,5.7,10.9,8.6,17.7,8.6c6.9,0,12.7-2.7,17.5-8.2   c4.8-5.5,7.2-13.9,7.2-25.1c0-12.4-2.4-21.5-7.3-27.3c-4.9-5.8-10.9-8.7-18.1-8.7c-7,0-12.8,2.8-17.5,8.4   C1230.9,495.5,1228.5,504.3,1228.5,516.3z"/>
	<path fill="#fff" d="M1391.4,561.4l-33.9-125h17.4l19.4,81.9c2.1,8.6,3.9,17.1,5.4,25.6c3.3-13.4,5.2-21.1,5.8-23.1l24.3-84.4   h20.4l18.3,63.3c4.6,15.7,7.9,30.4,9.9,44.2c1.6-7.9,3.8-17,6.4-27.2l20.1-80.3h17l-35.1,125h-16.3l-27-95.2   c-2.3-8-3.6-12.8-4-14.7c-1.3,5.7-2.6,10.6-3.8,14.7l-27.1,95.2H1391.4z"/>
	<path fill="#fff" d="M1535.7,454.1v-17.6h15.7v17.6H1535.7z M1535.7,561.4v-90.5h15.7v90.5H1535.7z"/>
	<path fill="#fff" d="M1575.3,561.4v-90.5h14.1v12.9c6.8-9.9,16.6-14.9,29.5-14.9c5.6,0,10.7,1,15.4,2.9c4.7,2,8.2,4.5,10.5,7.7   c2.3,3.2,4,7,4.9,11.3c0.6,2.8,0.9,7.8,0.9,14.9v55.7h-15.7v-55.1c0-6.3-0.6-10.9-1.8-14c-1.2-3.1-3.4-5.6-6.5-7.4   c-3.1-1.8-6.8-2.8-10.9-2.8c-6.7,0-12.5,2.1-17.3,6.2c-4.9,4.1-7.3,12-7.3,23.6v49.4H1575.3z"/>
	<path fill="#fff" d="M1674.7,561.4v-90.5h14.1v12.9c6.8-9.9,16.6-14.9,29.5-14.9c5.6,0,10.7,1,15.4,2.9c4.7,2,8.2,4.5,10.5,7.7   c2.3,3.2,4,7,4.9,11.3c0.6,2.8,0.9,7.8,0.9,14.9v55.7h-15.7v-55.1c0-6.3-0.6-10.9-1.8-14c-1.2-3.1-3.4-5.6-6.5-7.4   c-3.1-1.8-6.8-2.8-10.9-2.8c-6.7,0-12.5,2.1-17.3,6.2c-4.9,4.1-7.3,12-7.3,23.6v49.4H1674.7z"/>
	<path fill="#fff" d="M1774.1,454.1v-17.6h15.7v17.6H1774.1z M1774.1,561.4v-90.5h15.7v90.5H1774.1z"/>
	<path fill="#fff" d="M1813.7,561.4v-90.5h14.1v12.9c6.8-9.9,16.6-14.9,29.5-14.9c5.6,0,10.7,1,15.4,2.9c4.7,2,8.2,4.5,10.5,7.7   c2.3,3.2,4,7,4.9,11.3c0.6,2.8,0.9,7.8,0.9,14.9v55.7h-15.7v-55.1c0-6.3-0.6-10.9-1.8-14c-1.2-3.1-3.4-5.6-6.5-7.4   c-3.1-1.8-6.8-2.8-10.9-2.8c-6.7,0-12.5,2.1-17.3,6.2c-4.9,4.1-7.3,12-7.3,23.6v49.4H1813.7z"/>
	<path fill="#fff" d="M1910.2,568.9l15.3,2.2c0.6,4.6,2.4,8,5.3,10.1c3.9,2.8,9.2,4.3,16,4.3c7.3,0,12.9-1.4,16.8-4.3   s6.6-6.8,8-11.9c0.8-3.1,1.2-9.7,1.1-19.7c-6.9,7.9-15.4,11.8-25.6,11.8c-12.7,0-22.6-4.5-29.6-13.5c-7-9-10.5-19.7-10.5-32.3   c0-8.6,1.6-16.6,4.8-23.9c3.2-7.3,7.8-12.9,13.9-16.9c6.1-4,13.2-6,21.4-6c10.9,0,19.9,4.3,27,13v-10.9h14.5v78.3   c0,14.1-1.5,24.1-4.4,30c-2.9,5.9-7.6,10.5-14,13.9s-14.2,5.1-23.5,5.1c-11,0-20-2.4-26.8-7.3S1909.9,578.7,1910.2,568.9z    M1923.1,514.6c0,11.9,2.4,20.5,7.2,26c4.8,5.5,10.9,8.2,18.1,8.2c7.2,0,13.3-2.7,18.1-8.1c4.9-5.4,7.3-13.9,7.3-25.5   c0-11.1-2.5-19.4-7.5-25.1c-5-5.6-11.1-8.4-18.2-8.4c-7,0-12.9,2.8-17.8,8.3C1925.6,495.4,1923.1,503.6,1923.1,514.6z"/>
	<path fill="#fff" d="M2058.3,521.3l16-1.4c0.8,6.3,2.5,11.4,5.3,15.4c2.8,4,7,7.2,12.9,9.7c5.8,2.5,12.4,3.7,19.6,3.7   c6.5,0,12.2-0.9,17.1-2.8c4.9-1.9,8.6-4.4,11-7.7c2.4-3.3,3.6-6.8,3.6-10.7c0-3.9-1.2-7.3-3.5-10.3c-2.3-2.9-6.2-5.4-11.5-7.4   c-3.4-1.3-11-3.3-22.8-6.1c-11.7-2.8-20-5.4-24.7-7.8c-6.1-3.1-10.7-7-13.6-11.6c-3-4.6-4.5-9.8-4.5-15.6c0-6.3,1.8-12.2,5.5-17.7   c3.7-5.5,9-9.6,16-12.5c7-2.8,14.9-4.3,23.5-4.3c9.5,0,17.8,1.5,25.1,4.5s12.8,7.4,16.7,13.2c3.9,5.8,6,12.4,6.3,19.7l-16.2,1.2   c-0.9-7.9-3.8-13.9-8.9-17.9c-5-4-12.5-6.1-22.3-6.1c-10.2,0-17.7,1.8-22.4,5.5c-4.7,3.7-7,8.1-7,13.3c0,4.5,1.7,8.2,5,11.1   c3.3,2.9,11.8,5.9,25.5,8.9c13.8,3,23.2,5.7,28.3,8c7.4,3.4,12.9,7.6,16.5,12.7c3.5,5.1,5.3,11.1,5.3,17.8c0,6.6-1.9,12.9-5.8,18.8   c-3.9,5.9-9.5,10.5-16.8,13.7c-7.3,3.3-15.5,4.9-24.6,4.9c-11.6,0-21.3-1.6-29.1-4.9c-7.8-3.3-14-8.3-18.4-14.9   C2060.8,537.1,2058.5,529.6,2058.3,521.3z"/>
	<path fill="#fff" d="M2241.6,550.3c-5.8,4.8-11.4,8.2-16.8,10.2c-5.4,2-11.1,3-17.3,3c-10.2,0-18-2.4-23.5-7.3   c-5.5-4.9-8.2-11.1-8.2-18.6c0-4.4,1-8.5,3.1-12.1c2.1-3.7,4.8-6.6,8.1-8.8c3.3-2.2,7.1-3.9,11.3-5c3.1-0.8,7.7-1.6,14-2.3   c12.7-1.5,22-3.2,28-5.3c0.1-2.1,0.1-3.4,0.1-4c0-6.3-1.5-10.7-4.4-13.2c-4-3.5-10-5.2-17.9-5.2c-7.4,0-12.8,1.3-16.4,3.8   c-3.5,2.5-6.1,7-7.8,13.4l-15.4-2c1.4-6.4,3.7-11.6,6.9-15.6c3.2-3.9,7.8-7,13.9-9.1c6-2.1,13.1-3.2,21-3.2   c7.9,0,14.3,0.9,19.3,2.7c4.9,1.8,8.6,4.1,10.9,6.9c2.3,2.8,4,6.2,4.9,10.4c0.5,2.6,0.8,7.3,0.8,14.2v20.5c0,14.3,0.3,23.3,1,27.1   c0.7,3.8,2,7.4,4,10.9h-16.4C2243.1,558.3,2242,554.5,2241.6,550.3z M2240.3,516c-5.7,2.3-14.2,4.2-25.6,5.8   c-6.5,0.9-11,1.9-13.7,3.1c-2.7,1.1-4.7,2.8-6.2,5c-1.5,2.2-2.2,4.6-2.2,7.3c0,4.1,1.6,7.5,4.8,10.2c3.2,2.7,7.8,4.1,13.9,4.1   c6,0,11.4-1.3,16.1-3.9c4.7-2.6,8.2-6.1,10.4-10.6c1.7-3.5,2.5-8.6,2.5-15.3V516z"/>
	<path fill="#fff" d="M2341.2,561.4v-13.3c-7.2,10.2-17,15.3-29.4,15.3c-5.5,0-10.6-1-15.3-3.1c-4.7-2-8.3-4.6-10.6-7.7   c-2.3-3.1-3.9-6.9-4.8-11.4c-0.6-3-1-7.8-1-14.3v-56.1h15.7v50.2c0,8,0.3,13.4,1,16.2c1,4,3.1,7.2,6.3,9.5   c3.2,2.3,7.2,3.5,11.9,3.5s9.1-1.2,13.3-3.5c4.1-2.4,7-5.6,8.8-9.6c1.7-4.1,2.6-10,2.6-17.7v-48.5h15.7v90.5H2341.2z"/>
	<path fill="#fff" d="M2373.5,534.4l15.5-2.4c0.9,6.1,3.3,10.7,7.3,14c4,3.2,9.5,4.9,16.7,4.9c7.2,0,12.6-1.4,16-4.3   c3.5-2.9,5.2-6.2,5.2-10.1c0-3.5-1.5-6.2-4.6-8.2c-2.2-1.4-7.5-3.1-16-5.2c-11.5-2.8-19.5-5.3-23.9-7.4c-4.4-2.1-7.8-4.9-10.1-8.6   c-2.3-3.7-3.4-7.7-3.4-12.1c0-4,0.9-7.8,2.8-11.2c1.9-3.4,4.5-6.3,7.7-8.6c2.4-1.8,5.8-3.3,10-4.5c4.2-1.2,8.7-1.8,13.6-1.8   c7.3,0,13.6,1,19.1,3.1c5.5,2,9.5,4.8,12.2,8.3c2.6,3.5,4.4,8.2,5.4,14l-15.4,2c-0.7-4.7-2.7-8.3-6.1-10.9   c-3.3-2.6-8.1-3.9-14.2-3.9c-7.2,0-12.4,1.2-15.4,3.5c-3.1,2.3-4.6,5.1-4.6,8.2c0,2,0.6,3.8,1.9,5.4c1.3,1.6,3.3,3,6,4.1   c1.6,0.6,6.2,1.9,13.9,3.9c11.1,2.9,18.9,5.3,23.2,7.1c4.4,1.8,7.8,4.5,10.3,8.1c2.5,3.5,3.8,7.9,3.8,13.1c0,5.1-1.5,9.9-4.6,14.5   c-3.1,4.5-7.5,8-13.2,10.5c-5.8,2.5-12.3,3.7-19.5,3.7c-12,0-21.2-2.4-27.5-7.3C2379.3,551.3,2375.3,544,2373.5,534.4z"/>
	<path fill="#fff" d="M2529.6,550.3c-5.8,4.8-11.4,8.2-16.8,10.2c-5.4,2-11.1,3-17.3,3c-10.2,0-18-2.4-23.5-7.3   c-5.5-4.9-8.2-11.1-8.2-18.6c0-4.4,1-8.5,3.1-12.1c2.1-3.7,4.8-6.6,8.1-8.8c3.3-2.2,7.1-3.9,11.3-5c3.1-0.8,7.7-1.6,14-2.3   c12.7-1.5,22-3.2,28-5.3c0.1-2.1,0.1-3.4,0.1-4c0-6.3-1.5-10.7-4.4-13.2c-4-3.5-10-5.2-17.9-5.2c-7.4,0-12.8,1.3-16.4,3.8   c-3.5,2.5-6.1,7-7.8,13.4l-15.4-2c1.4-6.4,3.7-11.6,6.9-15.6c3.2-3.9,7.8-7,13.9-9.1c6-2.1,13.1-3.2,21-3.2   c7.9,0,14.3,0.9,19.3,2.7c4.9,1.8,8.6,4.1,10.9,6.9c2.3,2.8,4,6.2,4.9,10.4c0.5,2.6,0.8,7.3,0.8,14.2v20.5c0,14.3,0.3,23.3,1,27.1   c0.7,3.8,2,7.4,4,10.9h-16.4C2531.1,558.3,2530,554.5,2529.6,550.3z M2528.3,516c-5.7,2.3-14.2,4.2-25.6,5.8   c-6.5,0.9-11,1.9-13.7,3.1c-2.7,1.1-4.7,2.8-6.2,5c-1.5,2.2-2.2,4.6-2.2,7.3c0,4.1,1.6,7.5,4.8,10.2c3.2,2.7,7.8,4.1,13.9,4.1   c6,0,11.4-1.3,16.1-3.9c4.7-2.6,8.2-6.1,10.4-10.6c1.7-3.5,2.5-8.6,2.5-15.3V516z"/>
	<path fill="#fff" d="M2565.6,568.9l15.3,2.2c0.6,4.6,2.4,8,5.3,10.1c3.9,2.8,9.2,4.3,16,4.3c7.3,0,12.9-1.4,16.8-4.3   s6.6-6.8,8-11.9c0.8-3.1,1.2-9.7,1.1-19.7c-6.9,7.9-15.4,11.8-25.6,11.8c-12.7,0-22.6-4.5-29.6-13.5c-7-9-10.5-19.7-10.5-32.3   c0-8.6,1.6-16.6,4.8-23.9c3.2-7.3,7.8-12.9,13.9-16.9c6.1-4,13.2-6,21.4-6c10.9,0,19.9,4.3,27,13v-10.9h14.5v78.3   c0,14.1-1.5,24.1-4.4,30c-2.9,5.9-7.6,10.5-14,13.9s-14.2,5.1-23.5,5.1c-11,0-20-2.4-26.8-7.3S2565.4,578.7,2565.6,568.9z    M2578.6,514.6c0,11.9,2.4,20.5,7.2,26c4.8,5.5,10.9,8.2,18.1,8.2c7.2,0,13.3-2.7,18.1-8.1c4.9-5.4,7.3-13.9,7.3-25.5   c0-11.1-2.5-19.4-7.5-25.1c-5-5.6-11.1-8.4-18.2-8.4c-7,0-12.9,2.8-17.8,8.3C2581,495.4,2578.6,503.6,2578.6,514.6z"/>
	<path fill="#fff" d="M2731.2,532.3l16.2,2c-2.6,9.3-7.3,16.5-14.2,21.6c-6.9,5.1-15.8,7.7-26.5,7.7c-13.5,0-24.3-4.1-32.2-12.2   c-7.9-8.2-11.9-19.6-11.9-34.3c0-15.2,4-27.1,12-35.5c8-8.4,18.4-12.6,31.2-12.6c12.4,0,22.5,4.1,30.4,12.4   c7.8,8.2,11.8,19.8,11.8,34.8c0,0.9,0,2.3-0.1,4.1h-69.1c0.6,9.9,3.5,17.6,8.6,22.8c5.2,5.3,11.6,7.9,19.4,7.9   c5.8,0,10.7-1.5,14.7-4.4C2725.6,543.5,2728.8,538.8,2731.2,532.3z M2679.7,507.5h51.7c-0.7-7.6-2.7-13.3-5.9-17.1   c-5-5.9-11.5-8.9-19.4-8.9c-7.2,0-13.3,2.4-18.2,7.1C2682.9,493.3,2680.2,499.6,2679.7,507.5z"/>
	<path fill="#fff" d="M2760.9,534.4l15.5-2.4c0.9,6.1,3.3,10.7,7.3,14c4,3.2,9.5,4.9,16.7,4.9c7.2,0,12.6-1.4,16-4.3   c3.5-2.9,5.2-6.2,5.2-10.1c0-3.5-1.5-6.2-4.6-8.2c-2.2-1.4-7.5-3.1-16-5.2c-11.5-2.8-19.5-5.3-23.9-7.4c-4.4-2.1-7.8-4.9-10.1-8.6   c-2.3-3.7-3.4-7.7-3.4-12.1c0-4,0.9-7.8,2.8-11.2c1.9-3.4,4.5-6.3,7.7-8.6c2.4-1.8,5.8-3.3,10-4.5c4.2-1.2,8.7-1.8,13.6-1.8   c7.3,0,13.6,1,19.1,3.1c5.5,2,9.5,4.8,12.2,8.3c2.6,3.5,4.4,8.2,5.4,14l-15.4,2c-0.7-4.7-2.7-8.3-6.1-10.9   c-3.3-2.6-8.1-3.9-14.2-3.9c-7.2,0-12.4,1.2-15.4,3.5c-3.1,2.3-4.6,5.1-4.6,8.2c0,2,0.6,3.8,1.9,5.4c1.3,1.6,3.3,3,6,4.1   c1.6,0.6,6.2,1.9,13.9,3.9c11.1,2.9,18.9,5.3,23.2,7.1c4.4,1.8,7.8,4.5,10.3,8.1c2.5,3.5,3.8,7.9,3.8,13.1c0,5.1-1.5,9.9-4.6,14.5   c-3.1,4.5-7.5,8-13.2,10.5c-5.8,2.5-12.3,3.7-19.5,3.7c-12,0-21.2-2.4-27.5-7.3C2766.7,551.3,2762.6,544,2760.9,534.4z"/>
</g>
<path fill="#fff" d="M267.3,480.8l4.4,5.5l4.3-1.7c0,0-0.6-6.9-0.8-7.4c-0.2-0.5-2.7-3.3-2.7-3.3L267.3,480.8z"/>
</svg>