<?xml version="1.0" encoding="UTF-8"?>
<!-- Generator: Adobe Illustrator 18.0.0, SVG Export Plug-In . SVG Version: 6.00 Build 0)  -->
<svg xmlns="http://www.w3.org/2000/svg" xmlns:xlink="http://www.w3.org/1999/xlink" version="1.1" id="Layer_1" x="0px" y="0px" viewBox="0 812 2000 408" xml:space="preserve">
<g>
	<g>
		<path fill="#fff" d="M1389.8,879.4c29.2-5.9,62.3-1.2,85.5,18.7c17.7,14.8,26.6,37.9,27.8,60.5c1.6,35.1-10,71.7-35.4,96.6    c-21,20.2-50.2,31.5-79.3,29.9c-30.1,1.4-62.3-12.1-77.7-39c-16.7-29.3-14.3-65.6-3.5-96.5    C1319.9,913.9,1352.3,885.8,1389.8,879.4z M1389.8,925.4c-21.7,7.4-36.8,28-40.8,50.1c-4.8,18.2-3.1,40.2,11.4,53.7    c20.8,17.2,54.2,13.6,72.8-5.3c15.2-14,21.7-35.1,21.9-55.2c-0.2-13.9-4.6-28.8-16.1-37.5C1425.2,920.6,1406,921.3,1389.8,925.4z"></path>
	</g>
	<path fill="#fff" d="M766,880.4c41.9-0.6,83.7-0.1,125.6-0.3c-2.2,13.1-4.9,26.2-6.5,39.5c-25.8,0-51.6,0-77.4,0   c-2.5,14.2-4.9,28.5-7.2,42.7c22.7-0.1,45.5-0.1,68.2,0c-2.1,12.2-4.4,24.4-6.4,36.7c-22.9-0.1-45.7,0.1-68.6-0.1   c-2.7,15.1-5,30.4-7.9,45.5c25.8-0.2,51.6,0,77.5-0.1c-2.8,13.1-4.9,26.3-7,39.5c-42-0.1-83.9,0-125.9,0   C742.5,1016.1,754.1,948.2,766,880.4z"></path>
	<g>
		<path fill="#fff" d="M1147.3,880.1c26.6,0.1,53.2,0,79.8,0c17.4,0.5,36.5,3.6,49.4,16.5c13.6,13.4,16.3,34.6,11.6,52.5    c-5.4,27.7-27.2,51-54.2,58.7c-19.8,6.3-40.7,4-61.1,4.4c-4.2,23.8-8.5,47.6-12.6,71.5c-16.2,0.3-32.4,0.1-48.7,0.1    C1123.7,1016,1135.1,948,1147.3,880.1z M1188.8,919.6c-3.3,17.9-6.1,35.9-9.5,53.8c17.4-0.8,38.4,3.7,52.1-9.7    c10-11.2,13.6-34.3-2.6-41.7C1216,917.9,1202.1,920.1,1188.8,919.6z"></path>
	</g>
	<g>
		<path fill="#fff" d="M1512.2,1083.9c12.5-67.9,23.5-136,36.1-203.9c29.9,0.3,59.9-0.3,89.8,0.3c20.6,0.9,43.7,9.1,52.5,29.4    c11.9,28.2-0.4,63.3-25,80.7c-8.8,6.6-19.2,10.4-29.7,13.4c11.6,26.6,22.9,53.3,34.1,80c-17.9,0.1-35.7,0.2-53.7-0.1    c-9.9-25.9-20.3-51.6-30.4-77.5c-3.9,0-7.7,0-11.6,0c-4.3,25.9-9.2,51.6-13.4,77.5C1544.7,1084,1528.4,1083.8,1512.2,1083.9z     M1589.9,920.7c-3.6,17.5-6.5,35.2-9.9,52.7c14.6-0.6,29.5,1.7,43.9-1.6c18.7-4.1,27.9-32.3,14.2-45.9    C1623.5,917.7,1605.9,921.7,1589.9,920.7z"></path>
	</g>
	<path fill="#fff" d="M1711.9,919.6c2.2-13.2,4.4-26.4,7.2-39.5c52.6,0.2,105.3,0,157.9,0.1c-2.1,13.1-4.6,26.2-6.7,39.4   c-18.3,0.1-36.6,0.1-54.9,0c-10,54.7-19.3,109.6-28.8,164.4c-16.3-0.1-32.5,0-48.7-0.1c9.3-54.8,19.3-109.4,28.4-164.3   C1748,919.6,1729.9,919.6,1711.9,919.6z"></path>
</g>
<g>
	<path fill="#fff" d="M148.4,934.8c19.4-32.5,55.2-55.5,93.4-56c24.1-1.4,50.4,3.9,67.8,21.9c14.4,13.8,19.6,33.8,21.8,52.9   c-17,0.1-34-0.1-51,0.1c-3.7-9.8-8.6-20-18.4-25.1c-18-9.2-41.8-6.7-56.9,7c-20.9,17.4-28.7,46.7-25.2,73   c2.2,17.1,17.6,31.2,34.9,31.5c22.4,2,43.7-11,55.3-29.7c17,0.1,33.9,0.1,50.9,0c-14.2,35.4-45.3,64.4-83.2,72.1   c-26.2,5-56,4.1-78.4-12.2c-17.9-12.6-28.3-33.8-30.1-55.3C127.2,987.2,134.3,958.8,148.4,934.8z"></path>
	<g>
		<path fill="#fff" d="M582.1,880.3c26.6-0.3,53.3,0,79.9-0.2c17.1,0.1,35.6,2.2,49.5,13.1c12.8,9.9,19,26.8,17.4,42.7    c-0.8,33.1-27.3,61.3-59.1,67.8c11.8,26.5,22.7,53.3,34.3,79.9c-17.9,0.4-35.7,0.4-53.6,0c-9.8-25.9-20.4-51.4-30.2-77.3    c-3.9-0.1-7.9-0.1-11.8-0.2c-4.4,26-9.1,51.9-13.6,77.8c-16.1,0-32.3-0.1-48.4-0.1C558.6,1016,570.2,948.1,582.1,880.3z     M623.9,920.6c-3.6,17.6-6.4,35.3-10,52.9c14.7-0.5,29.8,1.7,44.3-1.7c18.6-4.3,27.8-32.6,13.8-46    C657.6,917.5,639.9,921.7,623.9,920.6z"></path>
	</g>
	<g>
		<path fill="#fff" d="M321.6,1083.8c36.7-67.1,73.1-134.3,109.5-201.5c18.9,0.2,37.7,0.1,56.6,0c12,67.3,25.8,134.2,38.1,201.4    c-17.1,0.3-34.1,0.2-51.2,0.1c-1.7-12.5-3.9-24.9-5.8-37.4c-25.7,0-51.3-0.1-77,0.1c-5.9,12.6-12.7,24.7-18.7,37.4    C356,1083.9,338.8,1083.9,321.6,1083.8z M411.1,1009.7c17.2-0.1,34.4,0,51.6,0c-3.9-25.3-8-50.7-12.7-75.8    C436.9,959.1,424,984.4,411.1,1009.7z"></path>
	</g>
</g>
<path fill="#fff" d="M923.9,880.1l45.6,95.8l43-51.5c0.6-0.7,0.7-1.6,0.3-2.4l-19.1-39c-1.4-2.9-4.4-4.7-7.6-4.6L923.9,880.1z"></path>
<polygon fill="#fff" points="1066.7,878.2 831.6,1163.8 904.2,1162.4 1001,1037.7 1022.9,1081.7 1092.6,1081.8 1045.4,981.1   1125,880.1 "></polygon>
<g>
	<path fill="#fff" d="M1052.7,1126.6c0-10.7-9.2-12.7-15.6-12.7c-12,0-23.5,8.2-27.2,24.2c-3.3,14.4-0.3,25.4,16.1,25.4   c5.8,0,16.4-2.6,22.8-16.8h8.7c-9,23.1-29.5,24.1-34.5,24.1c-15,0-27.7-9-22.3-32.5c4.3-18.8,18.9-31.8,38.2-31.8   c17,0,23.6,9.8,22.6,20L1052.7,1126.6L1052.7,1126.6z"></path>
	<path fill="#fff" d="M1146.7,1170.9c-24.7,0-27.9-19-24.8-32.2c3-13.2,15-32.2,39.7-32.2s27.9,19,24.8,32.2   C1183.3,1151.9,1171.4,1170.9,1146.7,1170.9z M1159.9,1113.9c-14.4,0-25.4,10.5-28.8,24.8c-3.3,14.4,2.9,24.8,17.3,24.8   s25.4-10.5,28.8-24.8C1180.5,1124.4,1174.2,1113.9,1159.9,1113.9z"></path>
	<path fill="#fff" d="M1299.7,1169.3l8.3-36.1c0.4-1.8,2.4-9.5,3.7-15.2h-0.2l-30.4,51.3h-8.8l-6.8-51.2h-0.2   c-1.3,5.6-2.9,13.4-3.3,15.1l-8.3,36.1h-8.7l14.1-61.1h12.8l7,51.6h0.2l30.7-51.6h12.7l-14.1,61.1L1299.7,1169.3L1299.7,1169.3z"></path>
	<path fill="#fff" d="M1387.1,1169.3h-8.9l14.1-61.1h29.8c12.3,0,17.9,7.3,15.7,17.2c-2,8.5-9.4,18.1-23.8,18.1h-21   L1387.1,1169.3z M1394.7,1136.4h17.8c8,0,14.1-2.7,16-11c1.8-7.7-3.4-10.2-10.7-10.2h-18.2L1394.7,1136.4z"></path>
	<path fill="#fff" d="M1497.4,1151.5l-11,17.8h-9.2l39-61.1h10.1l9.9,61.1h-9.8l-2.4-17.8H1497.4z M1522.4,1144.2l-3.6-26.9h-0.2   l-16.8,26.9H1522.4z"></path>
	<path fill="#fff" d="M1657.6,1108.2h8.7l-14.1,61.1h-10l-22.3-49.3h-0.2l-11.4,49.3h-8.7l14.1-61.1h10.6l21.7,49.3h0.2   L1657.6,1108.2z"></path>
	<path fill="#fff" d="M1749.6,1169.3h-8.9l5.7-24.6l-16.6-36.5h10.4l12.2,29.3l25.7-29.3h10.5l-33.4,36.5L1749.6,1169.3z"></path>
</g>
</svg>
