<?xml version="1.0" encoding="UTF-8"?>
<!-- Generator: Adobe Illustrator 18.0.0, SVG Export Plug-In . SVG Version: 6.00 Build 0)  -->
<svg xmlns="http://www.w3.org/2000/svg" xmlns:xlink="http://www.w3.org/1999/xlink" version="1.1" id="Layer_1" x="0px" y="0px" viewBox="0 0 2000 881.8" xml:space="preserve">
<g>
	<path fill="#fff" d="M182.6,315c29.7-0.1,59.4,0.1,89-0.1c-21,20-41.2,40.8-61.9,61.2c-9.3,8.6-17.7,18.1-27.2,26.5   c29,29,58.2,57.7,87.2,86.6c0.8,0.6,1.6,2.1,0.4,2.8c-11.8,11.7-23.6,23.4-35.6,34.8c-2.4,2.3-4.5,5-7.3,6.9   c-10.8-9.2-20.5-19.7-30.7-29.5c-11.6-11.7-23.6-23-35.4-34.6c-22.7-22-44.7-44.8-67.4-66.9v-0.2c3.8-3.2,7.3-6.7,10.8-10.2   c22-22.1,44.3-44,66.4-66C175,322.8,178.9,319,182.6,315z"></path>
	<path fill="#fff" d="M209.7,402.5c14.4-14.2,28.7-28.6,42.9-43c4.4,3.1,7.9,7.3,11.8,11c31.2,30.1,61.4,61.3,92.5,91.5   c9.9,9.4,19.5,19.2,29.3,28.8c-26.4,26.3-52.5,52.8-79.5,78.5c-3.2,3.1-6.4,6.3-9.5,9.5c-29.6,0-59.2,0-88.8,0   c9.4-9,18.3-18.6,27.9-27.4c20.3-20.3,40.7-40.3,61-60.6c-26.7-27-53.6-53.7-80.4-80.5C214.5,407.8,211.6,405.6,209.7,402.5z"></path>
</g>
<g>
	<path fill="#fff" d="M498.3,403.3c-13.3,0-23.8,4.4-31.5,13.3c-7.7,8.9-11.6,21-11.6,36.4c0,15.8,3.7,28.1,11.1,36.7   c7.4,8.6,18,13,31.8,13c8.4,0,18.1-1.5,28.9-4.6v12.3c-8.4,3.1-18.7,4.7-31.1,4.7c-17.8,0-31.6-5.4-41.3-16.2   c-9.7-10.8-14.5-26.2-14.5-46.1c0-12.5,2.3-23.4,7-32.8c4.7-9.4,11.4-16.6,20.2-21.7c8.8-5.1,19.2-7.6,31.1-7.6   c12.7,0,23.8,2.3,33.3,7l-6,12.1C516.6,405.4,507.5,403.3,498.3,403.3z"></path>
	<path fill="#fff" d="M621.8,481.3c0,10.7-3.9,19-11.6,24.9c-7.7,6-18.2,8.9-31.5,8.9c-14.4,0-25.4-1.8-33.1-5.5V496   c5,2.1,10.4,3.8,16.2,5c5.9,1.2,11.7,1.8,17.4,1.8c9.4,0,16.5-1.8,21.2-5.3c4.7-3.6,7.1-8.5,7.1-14.9c0-4.2-0.8-7.6-2.5-10.3   c-1.7-2.7-4.5-5.1-8.4-7.4c-3.9-2.3-10-4.8-18-7.7c-11.3-4-19.3-8.8-24.1-14.3c-4.8-5.5-7.2-12.7-7.2-21.6   c0-9.3,3.5-16.8,10.5-22.3c7-5.5,16.3-8.3,27.8-8.3c12,0,23.1,2.2,33.2,6.6l-4.4,12.3c-10-4.2-19.7-6.3-29.2-6.3   c-7.5,0-13.3,1.6-17.5,4.8c-4.2,3.2-6.3,7.6-6.3,13.3c0,4.2,0.8,7.6,2.3,10.3c1.5,2.7,4.2,5.1,7.8,7.4c3.7,2.2,9.3,4.7,16.9,7.4   c12.7,4.5,21.4,9.4,26.2,14.6C619.4,466.3,621.8,473,621.8,481.3z"></path>
	<path fill="#fff" d="M714.9,481.3c0,10.7-3.9,19-11.6,24.9c-7.7,6-18.2,8.9-31.5,8.9c-14.4,0-25.4-1.8-33.1-5.5V496   c5,2.1,10.4,3.8,16.2,5c5.9,1.2,11.7,1.8,17.4,1.8c9.4,0,16.5-1.8,21.2-5.3c4.7-3.6,7.1-8.5,7.1-14.9c0-4.2-0.8-7.6-2.5-10.3   c-1.7-2.7-4.5-5.1-8.4-7.4c-3.9-2.3-10-4.8-18-7.7c-11.3-4-19.3-8.8-24.1-14.3c-4.8-5.5-7.2-12.7-7.2-21.6   c0-9.3,3.5-16.8,10.5-22.3c7-5.5,16.3-8.3,27.8-8.3c12,0,23.1,2.2,33.2,6.6l-4.4,12.3c-10-4.2-19.7-6.3-29.2-6.3   c-7.5,0-13.3,1.6-17.5,4.8c-4.2,3.2-6.3,7.6-6.3,13.3c0,4.2,0.8,7.6,2.3,10.3c1.5,2.7,4.2,5.1,7.8,7.4c3.7,2.2,9.3,4.7,16.9,7.4   c12.7,4.5,21.4,9.4,26.2,14.6C712.5,466.3,714.9,473,714.9,481.3z"></path>
	<path fill="#fff" d="M838.9,450.4c0,20.2-5.6,35.8-16.7,46.7c-11.1,10.9-26.8,16.4-46.9,16.4h-39.2V392.4H778   c19.4,0,34.4,5,45,14.9C833.6,417.3,838.9,431.6,838.9,450.4z M805,451.5c0-11.1-2.2-19.3-6.6-24.7c-4.4-5.4-11.1-8-20-8h-9.5v67.8   h7.3c9.9,0,17.2-2.9,21.9-8.7C802.6,472.2,805,463.4,805,451.5z"></path>
	<path fill="#fff" d="M904,515.2c-15.6,0-27.8-4.2-36.4-12.5c-8.6-8.3-13-20.1-13-35.5c0-15.8,4-28,12-36.5   c8-8.5,19.4-12.7,34.3-12.7c14.1,0,25.1,3.7,32.8,11.1c7.7,7.4,11.6,18,11.6,31.8v14.4h-57.9c0.2,5.2,2.1,9.4,5.8,12.3   c3.6,3,8.5,4.5,14.8,4.5c5.7,0,10.9-0.5,15.7-1.6c4.8-1.1,10-2.9,15.5-5.5v23.3c-5.1,2.6-10.3,4.4-15.7,5.4   C918,514.7,911.5,515.2,904,515.2z M902.1,440c-3.8,0-7,1.2-9.6,3.6s-4.1,6.2-4.5,11.3h27.8c-0.1-4.5-1.4-8.1-3.9-10.9   C909.6,441.4,906.3,440,902.1,440z"></path>
	<path fill="#fff" d="M1036.1,484.7c0,10.1-3.4,17.6-10.3,22.8c-6.8,5.1-16.7,7.7-29.5,7.7c-7,0-13-0.4-18.1-1.1   c-5.1-0.7-10.4-2.1-15.7-4.1V484c5,2.2,10.5,4,16.5,5.5c6,1.4,11.3,2.2,16,2.2c7,0,10.5-1.6,10.5-4.8c0-1.7-1-3.1-2.9-4.4   c-2-1.3-7.7-3.8-17.1-7.6c-8.6-3.5-14.6-7.6-18.1-12.1c-3.4-4.5-5.1-10.2-5.1-17.1c0-8.7,3.4-15.5,10.1-20.4   c6.7-4.9,16.3-7.3,28.6-7.3c6.2,0,12,0.7,17.4,2c5.4,1.4,11.1,3.3,16.9,5.9l-8.8,20.9c-4.3-1.9-8.9-3.6-13.7-4.9   c-4.8-1.4-8.7-2-11.8-2c-5.3,0-8,1.3-8,3.9c0,1.6,0.9,3,2.8,4.1c1.8,1.1,7.2,3.4,16,6.9c6.6,2.7,11.5,5.4,14.7,8   c3.2,2.6,5.6,5.6,7.1,9.2C1035.3,475.4,1036.1,479.7,1036.1,484.7z"></path>
	<path fill="#fff" d="M1053.4,396.3c0-4.9,1.4-8.5,4.1-10.9c2.7-2.4,7.1-3.6,13.1-3.6c6,0,10.4,1.2,13.2,3.6   c2.8,2.4,4.1,6,4.1,10.8c0,9.5-5.8,14.2-17.3,14.2C1059.1,410.5,1053.4,405.8,1053.4,396.3z M1086.6,513.5h-32.4v-93.8h32.4V513.5z   "></path>
	<path fill="#fff" d="M1197.7,419.7v15.7l-12.8,4.7c1.8,3.2,2.7,6.9,2.7,11.2c0,10.1-3.5,17.9-10.6,23.5   c-7.1,5.6-17.7,8.4-31.8,8.4c-3.5,0-6.2-0.2-8.3-0.7c-0.8,1.4-1.2,2.8-1.2,4.1c0,1.6,1.3,2.8,3.9,3.7c2.6,0.9,6,1.3,10.2,1.3h15.6   c21,0,31.6,8.9,31.6,26.6c0,11.4-4.9,20.3-14.6,26.7c-9.7,6.3-23.4,9.5-41,9.5c-13.3,0-23.6-2.2-30.8-6.7   c-7.2-4.4-10.8-10.8-10.8-19.2c0-11.2,7-18.4,20.9-21.7c-2.9-1.2-5.4-3.2-7.5-5.9c-2.1-2.7-3.2-5.4-3.2-8c0-2.9,0.8-5.5,2.4-7.7   c1.6-2.2,4.9-4.9,10-8c-4.9-2.2-8.7-5.5-11.5-10.1c-2.8-4.6-4.2-10.2-4.2-16.7c0-10.2,3.5-18.1,10.4-23.8c7-5.6,16.9-8.4,29.8-8.4   c1.7,0,4.7,0.2,8.9,0.6c4.2,0.4,7.3,0.7,9.3,1.1H1197.7z M1127,525.2c0,2.7,1.4,4.8,4.3,6.4c2.9,1.6,6.7,2.4,11.5,2.4   c7.8,0,14.1-1,18.8-2.9c4.7-2,7.1-4.5,7.1-7.6c0-2.5-1.4-4.2-4.3-5.3c-2.9-1-7-1.5-12.3-1.5h-12.7c-3.5,0-6.4,0.8-8.8,2.4   C1128.2,520.8,1127,522.8,1127,525.2z M1137.2,450.4c0,9.6,3.3,14.4,10,14.4c3.1,0,5.5-1.2,7.2-3.6c1.7-2.4,2.5-5.9,2.5-10.7   c0-9.7-3.2-14.6-9.7-14.6C1140.5,436,1137.2,440.8,1137.2,450.4z"></path>
	<path fill="#fff" d="M1271.2,513.5v-51.2c0-6.2-0.9-10.9-2.7-14.1c-1.8-3.2-4.7-4.8-8.7-4.8c-5.5,0-9.4,2.2-11.8,6.5   c-2.4,4.4-3.6,11.8-3.6,22.4v41.1H1212v-93.8h24.4l4.1,11.6h1.9c2.8-4.4,6.6-7.7,11.5-9.9c4.9-2.2,10.5-3.3,16.9-3.3   c10.4,0,18.5,3,24.2,9c5.8,6,8.7,14.5,8.7,25.4v61H1271.2z"></path>
	<path fill="#fff" d="M1407.2,513.5l-15.1-38.5h-48.5l-14.9,38.5h-14.2l47.9-121.6h11.8l47.6,121.6H1407.2z M1387.8,462.3   l-14.1-37.5c-1.8-4.7-3.7-10.6-5.6-17.5c-1.2,5.3-3,11.1-5.2,17.5l-14.2,37.5H1387.8z"></path>
	<path fill="#fff" d="M1510.5,513.5l-16.6-53.3c-1-3.3-3-10.7-5.9-22.2h-0.7c-2.2,9.7-4.1,17.1-5.8,22.4l-17.1,53.1h-15.9   l-24.8-90.8h14.4c5.9,22.8,10.3,40.2,13.4,52.1c3.1,11.9,4.8,20,5.3,24.1h0.7c0.6-3.1,1.6-7.2,2.9-12.2c1.4-5,2.5-9,3.5-11.9   l16.6-52.1h14.9l16.2,52.1c3.1,9.5,5.2,17.5,6.3,23.9h0.7c0.2-2,0.8-5.1,1.8-9.2c1-4.1,6.7-26.4,17.3-66.8h14.2l-25.1,90.8H1510.5z   "></path>
	<path fill="#fff" d="M1624.2,513.5l-2.7-12.9h-0.7c-4.5,5.7-9,9.5-13.5,11.6c-4.5,2-10.1,3-16.9,3c-9,0-16.1-2.3-21.2-7   c-5.1-4.6-7.7-11.2-7.7-19.8c0-18.3,14.7-27.9,44-28.8l15.4-0.5v-5.6c0-7.1-1.5-12.4-4.6-15.8c-3.1-3.4-8-5.1-14.7-5.1   c-7.6,0-16.1,2.3-25.7,7l-4.2-10.5c4.5-2.4,9.4-4.3,14.7-5.7c5.3-1.4,10.7-2.1,16-2.1c10.8,0,18.8,2.4,24.1,7.2   c5.2,4.8,7.8,12.5,7.8,23.1v62H1624.2z M1593.1,503.8c8.6,0,15.3-2.3,20.2-7c4.9-4.7,7.3-11.3,7.3-19.7v-8.2l-13.8,0.6   c-10.9,0.4-18.8,2.1-23.6,5.1c-4.8,3-7.2,7.7-7.2,14c0,5,1.5,8.8,4.5,11.3C1583.5,502.5,1587.7,503.8,1593.1,503.8z"></path>
	<path fill="#fff" d="M1704.1,421.1c4,0,7.6,0.3,10.9,1l-1.9,12.8c-3.8-0.8-7.1-1.2-9.9-1.2c-7.3,0-13.6,3-18.8,8.9   c-5.2,6-7.8,13.4-7.8,22.3v48.7h-13.7v-90.8h11.3l1.6,16.8h0.7c3.4-5.9,7.4-10.5,12.2-13.7C1693.2,422.7,1698.4,421.1,1704.1,421.1   z"></path>
	<path fill="#fff" d="M1793.7,501.3h-0.7c-6.4,9.2-15.8,13.8-28.5,13.8c-11.9,0-21.1-4.1-27.7-12.2c-6.6-8.1-9.9-19.7-9.9-34.6   c0-15,3.3-26.6,9.9-34.9s15.8-12.4,27.7-12.4c12.3,0,21.8,4.5,28.3,13.4h1.1l-0.6-6.5l-0.3-6.4v-36.9h13.7v128.9h-11.2   L1793.7,501.3z M1766.2,503.6c9.4,0,16.2-2.6,20.4-7.7c4.2-5.1,6.3-13.3,6.3-24.7v-2.9c0-12.9-2.1-22-6.4-27.5   c-4.3-5.5-11.1-8.2-20.5-8.2c-8.1,0-14.2,3.1-18.5,9.4c-4.3,6.3-6.4,15.1-6.4,26.5c0,11.6,2.1,20.3,6.4,26.3   C1751.7,500.7,1758,503.6,1766.2,503.6z"></path>
	<path fill="#fff" d="M1894.4,488.7c0,8.4-3.1,15-9.4,19.5c-6.3,4.6-15.1,6.9-26.5,6.9c-12,0-21.4-1.9-28.2-5.7v-12.8   c4.4,2.2,9,3.9,14,5.2c5,1.3,9.8,1.9,14.5,1.9c7.2,0,12.7-1.1,16.6-3.4c3.9-2.3,5.8-5.8,5.8-10.5c0-3.5-1.5-6.6-4.6-9.1   c-3.1-2.5-9-5.5-17.9-8.9c-8.4-3.1-14.5-5.9-18-8.2c-3.6-2.3-6.2-5-8-8c-1.7-3-2.6-6.5-2.6-10.7c0-7.4,3-13.2,9-17.5   c6-4.3,14.3-6.4,24.8-6.4c9.8,0,19.3,2,28.7,6l-4.9,11.2c-9.1-3.8-17.4-5.6-24.8-5.6c-6.5,0-11.4,1-14.7,3.1c-3.3,2-5,4.9-5,8.4   c0,2.4,0.6,4.5,1.9,6.2c1.2,1.7,3.2,3.3,6,4.9c2.8,1.5,8.1,3.8,15.9,6.7c10.8,3.9,18,7.9,21.8,11.8   C1892.5,477.7,1894.4,482.7,1894.4,488.7z"></path>
</g>
</svg>
