<?xml version="1.0" encoding="UTF-8"?>
<!-- Generator: Adobe Illustrator 18.0.0, SVG Export Plug-In . SVG Version: 6.00 Build 0)  -->
<!DOCTYPE svg PUBLIC "-//W3C//DTD SVG 1.1//EN" "http://www.w3.org/Graphics/SVG/1.1/DTD/svg11.dtd">
<svg version="1.1" id="Layer_1" xmlns="http://www.w3.org/2000/svg" xmlns:xlink="http://www.w3.org/1999/xlink" x="0px" y="0px" viewBox="0 0 2000 881.8" enable-background="new 0 0 2000 881.8" xml:space="preserve">
<g>
	<g>
		<path fill="#fff" d="M836.7,63.8c34.8-19.7,76.1-24.1,115.4-21.7c29.5,1.6,59.5,8,84.9,23.7c24.3,15.5,43.9,38.2,55.9,64.5    c14.3,31.7,19.6,66.9,17.4,101.5c-42.6-0.1-85.3-0.1-127.9,0c-0.4-14-1.1-28.1-3.2-41.9c-2.3-13-10.4-25.7-23.2-30.4    c-16.1-6-36.8-5.5-49.6,7.3c-9.1,8.4-12.1,21.6-10.2,33.5c1.4,15.3,11.4,27.7,19.7,40c17.5,23.9,35.9,47.1,53.7,70.7    c78.2,102.4,156.5,204.7,234.6,307.1c-46.1,0-92.3,0-138.4,0c-22.3-26.6-44.3-53.6-66.6-80.2c-12.4,18.4-23.6,38.4-41.6,52.2    c-29.7,24.1-68.7,34.3-106.5,33.3c-40.2,0.2-81.2-10.3-113.7-34.5c-33.9-24.2-56.5-62.6-64-103.4c-5.5-31.4-4.7-64.1,3.5-95    c9.1-34.3,30.1-65.3,59.2-85.8c19.5-13.7,42.5-22.2,66.2-24.8c-9.7-17.2-21.3-33.6-27.6-52.5c-11.8-34.6-10.8-74.3,6.2-107.1    C792.9,96,813.2,76.6,836.7,63.8z M837.6,381.4c-16.6,2.7-32.7,11.9-41.1,26.8c-8.6,15.3-9.6,33.8-6.5,50.8    c3.6,19.3,17.4,36,35.3,43.9c25.3,10.9,58.4,7.8,77.9-12.9c16.6-16.5,20.9-42.7,14-64.6c-5.4-17.3-19.2-31-35.3-38.6    C868.1,380.2,852.4,379.2,837.6,381.4z"/>
	</g>
	<g>
		<path fill="#fff" d="M102.6,47c73.7,0,147.4,0,221.1,0.1c60.1,0.6,121.5,13.7,172.5,46.6c42.2,26.5,75.6,66.2,95.3,112    c21.6,49.1,27.6,103.9,23.3,157c-3.2,38.3-13.1,76.2-30.8,110.4c-16.6,32.5-40.2,61.4-69.1,83.7c-34.7,27.1-76.1,45-119.1,53.6    c-45.4,9.7-92.1,7.4-138.2,7.7c-51.7,0-103.4,0-155,0C102.6,427.6,102.6,237.3,102.6,47z M240.6,167.9c0,108.8-0.1,217.7,0,326.5    c29.8-0.3,59.7,1,89.4-1.1c37.7-2.9,75.9-16.1,103.2-43.2c25.2-24.4,38.6-58.8,42.1-93.2c3.8-40,0-82.6-20.9-117.8    c-17.9-30.5-48.4-52.4-82.1-62.3C329.7,163.7,284.6,168.9,240.6,167.9z"/>
	</g>
	<path fill="#fff" d="M1254.2,51c56.3,0,112.6,0,168.9,0c51.2,131.7,102.8,263.3,154.2,395c50.6-131.6,100.8-263.3,151.1-395   c55.9-0.1,111.8,0,167.7,0c0,189,0,378,0,566.9c-45.9,0-91.9,0-137.8,0c-0.2-118.1,0.3-236.3-0.3-354.4   c-40.9,118-82,235.8-122.4,353.9c-39.7,1.1-79.6,0.2-119.4,0.5c-41.4-118-82-236.3-123.4-354.3c-1.1,3.6-0.5,7.3-0.6,11   c0,114.4,0,228.8,0,343.2c-46,0-92,0-138,0C1254.2,429,1254.2,240,1254.2,51z"/>
	<path fill="#fff" d="M1787.2,710.6c6.9-15.3,23.5-23.7,39.5-25.3c16.8-1.8,35.1-0.3,49.2,10c11.1,7.8,17.7,21,18.6,34.4   c-13.1,0-26.2,0-39.3,0c-1.5-6.1-4.3-12.9-10.6-15.3c-6.7-2.3-15.6-1.7-19.9,4.7c-3.9,6.8-1.6,16.1,5.2,20.1   c17.3,10.4,39.1,12.1,54.6,25.9c14.4,12.8,16.8,35.8,7.4,52.2c-7.2,13-21.7,20.7-36.1,22.5c-18.2,2.1-38-0.1-53.2-11.3   c-11.3-8-17.9-21.4-18.5-35.2c12.9,0.1,25.9,0,38.8,0.1c0.4,12.7,13.8,21.9,25.8,17.7c10.6-2.7,12.6-18.5,4.2-24.8   c-18.4-13.2-44.6-13-60-30.8C1782.1,743.4,1781,724.9,1787.2,710.6z"/>
	<path fill="#fff" d="M1389,686.9c31.6,0.1,63.1,0,94.7,0.1c0,9.6,0,19.2,0,28.9c-19.3,0-38.6,0-58,0c-0.1,10.7,0,21.5,0,32.2   c17.1,0,34.3,0,51.4,0c0,9.2,0,18.4,0,27.6c-17.1,0-34.3,0-51.4,0c0,11.4,0,22.8,0,34.2c19.3,0,38.6,0,57.9,0c0,9.8,0,19.6,0,29.5   c-31.6,0-63.1,0-94.7,0C1389,788.4,1389.1,737.6,1389,686.9z"/>
	<path fill="#fff" d="M1652,686.9c39.8,0.1,79.5,0,119.3,0.1c-0.1,9.6,0,19.2,0,28.8c-13.8,0-27.6,0-41.4,0   c0,41.1,0,82.2,0,123.4c-12.3,0-24.6,0-36.9,0c0-41.1,0-82.2,0-123.3c-13.6-0.1-27.3-0.1-40.9,0   C1652.1,706.2,1652.2,696.5,1652,686.9z"/>
	<path fill="#fff" d="M102.6,688.2c350.8,0,701.6,0,1052.4,0c0,50.3,0,100.6,0,150.9c-350.8,0-701.6,0-1052.4,0   C102.6,788.8,102.6,738.5,102.6,688.2z"/>
	<path fill="#fff" d="M1192.7,687.8c14.9,0,29.9,0,44.8,0c13.6,35.3,27.5,70.4,41.2,105.6c13.7-35.1,27.1-70.3,40.4-105.5   c14.9-0.2,29.9,0,44.8-0.1c0,50.4,0,100.9,0,151.4c-12.2,0-24.4,0-36.6,0c-0.1-31.6,0.2-63.1-0.2-94.7   c-11.4,31.4-21.8,63.2-33.1,94.7c-10.5,0-21,0-31.5,0c-10.9-31.7-22.2-63.3-32.9-95.1c-0.4,31.7-0.1,63.4-0.2,95.1   c-12.3,0-24.5,0-36.7,0C1192.7,788.7,1192.7,738.2,1192.7,687.8z"/>
	<g>
		<path fill="#fff" d="M1493.7,839.2c18.8-50.4,37.2-100.9,56-151.4c14,0,28,0.1,42,0c18.9,50.4,37.2,101,56,151.4    c-13.1-0.3-26.3,0.6-39.4-0.5c-2.7-9.3-6.1-18.5-9.2-27.7c-19,0-38.1,0-57.1,0c-3.2,9.2-6.5,18.4-9.3,27.8    C1519.7,839.6,1506.7,838.9,1493.7,839.2z M1551.4,783.2c12.8,0.1,25.6,0.1,38.3,0c-6.2-18.7-12.6-37.4-19-56    C1563.9,745.7,1557.8,764.5,1551.4,783.2z"/>
	</g>
</g>
</svg>