<?xml version="1.0" encoding="UTF-8"?>
<!-- Generator: Adobe Illustrator 18.0.0, SVG Export Plug-In . SVG Version: 6.00 Build 0)  -->
<!DOCTYPE svg PUBLIC "-//W3C//DTD SVG 1.1//EN" "http://www.w3.org/Graphics/SVG/1.1/DTD/svg11.dtd">
<svg version="1.1" id="Layer_1" xmlns="http://www.w3.org/2000/svg" xmlns:xlink="http://www.w3.org/1999/xlink" x="0px" y="0px" viewBox="0 572 2000 852" enable-background="new 0 572 2000 852" xml:space="preserve">
<g>
	<path fill="#fff" d="M884,638.5c77.3-4.2,154.7-3.8,232-0.2c-16.8,7.9-32.6,17.8-46.4,30.3c-46.5-1.5-93.2-1.6-139.7,0   C916.3,656.2,900.6,646.3,884,638.5z"/>
	<g>
		<path fill="#fff" d="M699.2,646.1c55.2-4.8,112.6-3.1,165,16.7c29.9,11.3,57.8,33,69.4,63.7c13.2,35.5,6.5,76-12,108.3    c-22.9,40.9-62,71.2-105.3,88.3c-41.7,16.7-87.3,21.4-132,19.1c-53.2-1.6-107.1-7.9-157.4-26.3c-31.3-11.8-62.6-29-81.9-57.1    c-20.3-28.8-20.3-69.5-1.4-98.9c18.7-30,49.2-50.3,80.3-65.8C579,667.5,639,652.9,699.2,646.1z M693.7,678.9    c-46.7,6-92.8,17.4-136.3,35.5c-26.2,11.4-52.3,25.1-72.6,45.6c-12.7,12.9-22.6,29.7-23.1,48.2c0.1,19.9,11.7,38.2,27,50.4    c22.7,18.4,50.7,28.6,78.5,36.1c48.4,12.3,98.6,16.3,148.3,15.9c42-0.9,84.7-10.5,120.6-33c33.4-20.4,61.2-52.7,70.2-91.3    c6.1-24.3,0.7-52.1-17.1-70.1c-19.9-20.6-48.5-29.4-75.9-34.7C773.9,674.5,733.4,673.7,693.7,678.9z"/>
	</g>
	<g>
		<path fill="#fff" d="M1191.4,648.2c73.5-10.9,148.6-0.9,219.3,20.5c44.7,14.2,89.7,33,124.2,65.6    c22.7,21.4,38.2,52.4,34.2,84.1c-3,32.5-26.1,59.2-52.9,76c-44,27.4-95.8,38.3-146.7,44.1c-64.1,6.4-131.6,8.7-191.9-17.6    c-49.2-20.8-92.8-59.6-111-110.6c-13-36.8-10.4-82,16.3-112.2C1110.2,667.2,1151.8,654.4,1191.4,648.2z M1205.3,678.6    c-33,4.3-67.9,12.1-92.9,35.4c-20.2,19-26,49.4-18.5,75.5c12.4,46.5,50.7,82.2,93.9,101.1c44,19.8,93.2,22.2,140.7,19.2    c50.6-2.9,102-9.8,148.6-30.5c23.4-11,47.5-26.7,57.2-51.8c8.6-22-0.5-46.9-16.1-63.4c-28-30.3-67.2-47-105.4-60.7    C1346.3,681.5,1275.3,669.6,1205.3,678.6z"/>
	</g>
	<g>
		<path fill="#fff" d="M459.3,1283.1c25.4-8.6,55.3,12.6,53.3,39.9c1.5,23.7-21.1,43.9-44.4,41.3c-21.2-0.6-39.8-20.1-38-41.5    C428.9,1304.9,441.9,1287.4,459.3,1283.1z M459.3,1296.5c-20.6,8.7-22,41.2-2.5,51.8c17,10.4,41.7-1.6,42.8-21.8    C503.2,1304.9,478.8,1286.6,459.3,1296.5z"/>
	</g>
	<g>
		<path fill="#fff" d="M591.9,1283.2c14.9,0.1,29.8-0.9,44.6,0.4c22.6,4.2,27.7,38,9.8,50.7c-12.1,8.7-27.7,4.6-41.6,5.5    c0,7.9,0,15.7,0,23.7c-3.1,0-9.6,0-12.7,0C591.9,1336.8,592.2,1310,591.9,1283.2z M604.8,1328.8c9.8-0.3,19.9,1.3,29.4-2    c12.5-5.4,12.5-25.6,0-30.9c-9.3-3.1-19.5-1.5-29.2-2C604.6,1305.6,604.6,1317.1,604.8,1328.8z"/>
	</g>
	<path fill="#fff" d="M725,1283c22.8,0,45.7,0,68.4,0c0,2.7,0.1,8.3,0.1,11c-8.9,0-17.8,0-26.8-0.2c-0.7,23.2-0.2,46.4-0.3,69.6   c-4.3,0-8.5,0-12.7,0c0.1-23.1,0-46.2,0.1-69.3c-9.7-0.2-19.2-0.2-28.9-0.2C725,1291.3,725,1285.9,725,1283z"/>
	<path fill="#fff" d="M868.8,1283.1c4.2,0,8.4-0.1,12.7-0.1c0.1,26.8,0,53.6,0,80.4c-4.3,0-8.5,0-12.7,0   C868.9,1336.7,868.8,1309.9,868.8,1283.1z"/>
	<path fill="#fff" d="M979,1288.3c17-11.4,40.5-7.9,55.7,4.9c-2.1,3.3-4.2,6.6-6.3,10c-11.2-8.6-27.1-13.1-40.1-5.7   c-17.4,9.8-18.5,37.8-2.2,49.2c12.9,9,30.8,5.1,42.3-4.2c2.1,3.3,4.3,6.5,6.4,9.8c-16.2,14.7-42.8,16.6-59.8,2.3   C954.9,1338,956.3,1301.9,979,1288.3z"/>
	<path fill="#fff" d="M1112.6,1283.1c4.2,0,8.4-0.1,12.7-0.1c0.1,26.8,0,53.6,0,80.4c-4.3,0-8.5,0-12.7,0   C1112.6,1336.7,1112.6,1309.9,1112.6,1283.1z"/>
	<g>
		<path fill="#fff" d="M1232.4,1283.2c5.2-0.1,10.4-0.1,15.6-0.1c10.2,27,21.4,53.5,31.7,80.5c-4.7-0.2-9.3-0.4-14-0.6    c-2.2-5.9-4.5-11.8-7-17.5c-12.8,0.4-25.6,0.2-38.5,0.2c-2.4,5.9-4.9,11.9-7.3,17.7c-4.5,0-9,0-13.5,0    C1210.3,1336.7,1221.7,1310.1,1232.4,1283.2z M1239.6,1298.4c-5.2,12.4-10.4,24.8-15.6,37.2c10.6,0.2,21.2,0.2,31.7-0.1    C1249.8,1323.2,1246.9,1309.7,1239.6,1298.4z"/>
	</g>
	<path fill="#fff" d="M1354.7,1282.7c5.2,0.6,12.2-1,15.3,4.7c15.2,18.1,30.2,36.3,45.5,54.3c0.1-19.6-0.1-39.2,0.2-58.8   c4.5,0.1,8.9,0.1,13.4,0.2c0,26.8,0,53.5,0,80.3c-4,0-8-0.1-11.9-0.1c-16.5-19.6-32.6-39.7-49.9-58.7c-0.3,19.5-0.1,39.2-0.1,58.8   c-3.1,0-9.6,0-12.7,0C1354.7,1336.6,1354.6,1309.6,1354.7,1282.7z"/>
	<path fill="#fff" d="M1518.7,1286.4c15.3-8.1,33.9-4.8,49.3,1.4c-0.9,3-2.8,9.1-3.7,12.2c-11.1-4.5-23.8-8.4-35.7-4.4   c-5.9,1.7-9.4,9.4-4.6,14.1c12.1,7.8,28.2,5.9,39.6,15.1c10.2,8.6,7.2,26.3-3.6,33.3c-15.5,10.2-35.6,6.6-51.8-0.4   c0.8-3.3,2.4-9.7,3.1-12.9c13.9,7.9,39.3,14,46.2-5.5c-10.4-15.2-33-8.2-44.9-21.3C1504.6,1308.6,1507.7,1292.1,1518.7,1286.4z"/>
</g>
<g>
	<path fill="#fff" d="M1546,917.4c5.7-4.5,13.1-2.4,19.6-1.3c6.9,9.8,5.2,25.5-9,27.4c0.8-2.1,2.5-6.3,3.4-8.3   c10.1,0.8,3.7-13,2.6-17.6c-3,4-5.6,8.3-8.3,12.5l8.6,1c-5.9,8.9-15.9,2.7-15.3-6.3l6.5-1.6c-2.1-1.7-4.2-3.3-6.3-4.8   c-2.7,6.3-4.7,19.1,6.3,18.6c-2.2,1.6-4.3,3.1-6.4,4.7c-1.6-2.2-4.7-6.5-6.2-8.6C1542,927.8,1541.5,921.4,1546,917.4z"/>
	<path fill="#fff" d="M642.2,1070c28.9-13.3,63.2-7.9,91.4,4.4c-3.1,9.8-6.2,19.5-9,29.4c-20.1-8.9-43.6-16.8-65.1-8.9   c-8.9,3.4-10.1,17.2-0.7,20.9c21.5,9.3,47.1,9.9,65.8,25.2c19.8,17.2,15,52.4-7,65.6c-29.6,19.2-68.3,12.8-98.8-0.9   c2.6-10.4,5.2-20.9,7.7-31.3c19.8,12,44.9,19.7,67.6,11.5c9.6-2.5,13.9-16.8,5.1-22.8c-21.2-12.7-49.7-8.9-68.6-26.3   C610.8,1118.2,617.7,1081.3,642.2,1070z"/>
	<path fill="#fff" d="M1169.9,1086.4c30.2-32.5,86.6-31.7,118.5-2c-5.1,7.5-10.3,14.9-15.1,22.5c-17.7-12.8-41.9-19.9-63-11.4   c-21,8.3-31.9,33.2-27.4,54.7c2.8,16.4,14.6,31.4,30.9,36.2c20.4,6.2,42.7-0.3,59.5-12.7c4.9,7.7,10,15.2,15.1,22.9   c-21.1,18.9-51.2,26-78.8,19.9c-26.7-5.5-49.9-26.1-57.4-52.5C1144.4,1137.5,1150,1106.4,1169.9,1086.4z"/>
	<g>
		<path fill="#fff" d="M72.3,1064.7c24.9,0,49.7,0,74.5,0c18.3-0.3,37.2,8.7,46.1,25.2c12.6,24.1,8.8,58.6-14.8,74.7    c-21.8,15.2-49.7,8.7-74.5,10.1c0,13.8-0.1,27.5,0.1,41.3c-10.3-0.4-21.3,1.8-31.2-0.7C72,1165,72.4,1114.8,72.3,1064.7z     M103.6,1092.6c0,18.1,0,36,0,54.1c15.7-0.9,32.2,2.5,47.6-2.5c21.8-8,20.4-44.4-2.3-50.4C133.9,1091.1,118.6,1093.2,103.6,1092.6    z"/>
	</g>
	<path fill="#fff" d="M255.8,1065c40.2-0.5,80.3-0.4,120.5-0.1c-0.1,9.2-0.2,18.4-0.1,27.7c-29.9,0.1-59.8,0-89.8,0.1   c0.1,10.6,0,21.3-0.1,31.9c24.5,0.3,48.9,0.4,73.4-0.1c0.5,9.4,0.5,18.8,0.4,28.2c-24.6,0-49.1-0.2-73.7,0.1   c0.1,11.8,0.1,23.6,0.1,35.4c29.9,0.1,59.8,0,89.8,0c0,9.3,0,18.8-0.3,28.1c-40-0.5-79.9,0-119.9-0.3   C255.9,1165.8,256.2,1115.4,255.8,1065z"/>
	<g>
		<path fill="#fff" d="M437.1,1064.7c25,0.1,50.1-0.3,75.2,0.1c18.1,0.8,38.8,7.5,47.1,25.1c8.5,18.5,6.7,43.4-8.9,57.6    c-6.6,7-16,10.4-24.8,13.5c15.7,16.1,30.9,32.5,46.6,48.5c0.1,1.7,0.3,5,0.5,6.7c-11.8,0-23.5,0-35.4,0.1    c-17.2-18-33.6-36.5-50.9-54.4c-5.8,0.1-11.5,0.2-17.2,0.3c0.1,18,0.1,36,0,54c-10.7,0-21.4,0-32.1,0    C437.1,1165.7,437.1,1115.2,437.1,1064.7z M469.2,1092.7c0.1,14.6,0.1,29.3,0,43.9c16.2-0.8,32.8,2.2,48.5-1.9    c17.6-5.8,18-34.4,0.3-40.4C502.1,1090.7,485.5,1093.4,469.2,1092.7z"/>
	</g>
	<g>
		<path fill="#fff" d="M796,1064.7c25.1,0,50.2-0.1,75.3,0c18.4,0,37.7,8.8,46.2,25.7c12,24.1,8.2,58.1-15.2,74    c-21.6,15.3-49.4,8.8-74.1,10.2c0,13.8,0,27.5,0.1,41.3c-10.8,0.2-21.5,0.2-32.2,0C796.1,1165.7,796,1115.2,796,1064.7z     M828.1,1092.6c0,18.1,0,36,0,54.1c15.7-0.9,32.2,2.5,47.6-2.5c21.4-8.6,20.1-44.4-2.5-50.5    C858.3,1091.2,843.2,1093.2,828.1,1092.6z"/>
	</g>
	<path fill="#fff" d="M980.6,1064.7c40.1,0,80.1-0.1,120.2,0.1c-0.1,9.2-0.1,18.5,0,27.8c-29.9,0.1-59.9-0.1-89.9,0.1   c0.1,10.7,0.1,21.4,0,32c24.6,0.3,49.2-0.2,73.8,0.3c-0.2,9.2-0.2,18.5-0.2,27.7c-24.6-0.1-49-0.1-73.6,0c0,11.9,0,23.6,0,35.5   c29.9,0.2,59.8,0,89.8,0.1c0.1,9.4,0,18.8-0.4,28.2c-39.9-0.6-79.9,0-119.8-0.3C980.6,1165.7,980.6,1115.2,980.6,1064.7z"/>
	<path fill="#fff" d="M1330.3,1092.7c-0.2-9.3-0.2-18.7,0.1-28c43.4,0.2,86.7,0,130.2,0.1c0,9.3,0,18.6,0,27.9   c-16.1,0-32.1,0-48.3,0c0,41.2-0.1,82.3,0,123.6c-10.8,0.1-21.5,0.1-32.2,0c0.1-41.2,0-82.3,0-123.6   C1363.4,1092.6,1346.8,1092.5,1330.3,1092.7z"/>
	<path fill="#fff" d="M1514.7,1064.7c10.4,0,20.9,0,31.3,0c0.1,50.5,0,100.9,0.1,151.4c-10.5,0.1-21,0.1-31.4,0   C1514.7,1165.7,1514.6,1115.2,1514.7,1064.7z"/>
	<path fill="#fff" d="M1598.1,1064.8c11.7-0.1,23.2-0.1,34.9-0.1c14.8,40,28.4,80.3,43.6,120.2c15.4-39.9,29.8-80.1,45-120.2   c11.7,0,23.3,0,35,0c-19.6,50.6-40.2,100.8-59.7,151.3c-13.4,0.3-26.9,0.2-40.2,0.2C1637,1165.7,1617.3,1115.4,1598.1,1064.8z"/>
	<path fill="#fff" d="M1807.6,1064.7c40.1,0,80.1,0,120.2,0c0,9.3,0,18.6,0,27.9c-29.9,0-59.8,0-89.8,0c0,10.7,0,21.4,0,32.1   c24.6,0.1,49.1-0.1,73.7,0.1c-0.1,9.2-0.1,18.6-0.1,27.8c-24.6,0-49,0-73.5,0c-0.2,11.9-0.2,23.7,0.1,35.7   c29.8-0.2,59.6,0,89.5-0.1c0,9.3,0,18.6,0,27.9c-40.1,0-80.1,0-120.2,0C1807.6,1165.7,1807.6,1115.2,1807.6,1064.7z"/>
</g>
</svg>