<?xml version="1.0" encoding="UTF-8"?>
<!-- Generator: Adobe Illustrator 18.0.0, SVG Export Plug-In . SVG Version: 6.00 Build 0)  -->
<!DOCTYPE svg PUBLIC "-//W3C//DTD SVG 1.1//EN" "http://www.w3.org/Graphics/SVG/1.1/DTD/svg11.dtd">
<svg version="1.1" id="Layer_1" xmlns="http://www.w3.org/2000/svg" xmlns:xlink="http://www.w3.org/1999/xlink" x="0px" y="0px" viewBox="0 504 2000 1012" enable-background="new 0 504 2000 1012" xml:space="preserve">
<g>
	<g>
		<path fill="#fff" d="M688.8,615c25.5-20.8,50.2-47.3,85.2-49.7c-14.2,21.8-32.3,40.6-50.3,59.3c61,26.5,120,67.4,148.8,129.4    c31.5,66,17.2,145.2-18.4,206.5c-49.9,86.6-131.9,158.8-230.6,182c-42.7,11.7-87.2,15.8-131.4,14.6    c-50.1,91.9-96.5,192-180.8,257.9c-58.3,45.1-149,62.8-211.3,16.4c-62.4-48.5-41.9-167.8,39.1-183c33.5-3.8,84-2.4,98.4,34.2    c-25.6-6.3-52.2-23.4-79-12.8c-55.2,22.4-62.1,112.1-13.4,144.8c38.2,20.9,85.1,5.6,119.4-16.5c70-48.1,113.5-124.6,147.2-200.8    c63.5-145,108.5-298.1,184.4-437.5c21-41,48.6-78,72-117.6c-121.1-18.7-251.5-7-358.5,56.8c-69.7,40.6-131,104.3-149.2,185    c-12.2,47.2-7.6,103.4,27.4,139.9c16.6,18,44,24.6,66.5,14.5c31.2-13.8,52.8-42.7,67.8-72.5c11-21.3,13.4-46.9,29.2-65.6    c11.3,71.3-32.6,155.1-108.4,166c-62.6,8.5-115.4-46.4-124.5-105c-17.5-85,12.3-177,75.9-235.9C282.8,641.9,406.2,608,524.8,600    C579.8,596.8,635.8,599.1,688.8,615z M502.4,1133.8c103.5-2.8,203.9-53.3,266.9-135.7c52.1-66.4,89.7-157.2,60.4-241    c-18.7-53.7-70.1-84.7-120.2-104.7C629.8,808.2,576.1,975.3,502.4,1133.8z"/>
	</g>
	<g>
		<path fill="#fff" d="M1569.1,875.4c11-20.7,37.3-10.8,55.5-12.2c-53.8,82.3-98.7,169.9-140.9,258.5    c-8.6,21.8-23.6,47.6-10,70.5c13.8-1.4,25.7-8.6,33.9-19.8c31-37.9,47.7-84.6,66.3-129.4c-1.2-5.6-3.5-16.8-4.6-22.3    c15.8,0.1,31.5,0.5,47.4,1.2c-13.7,53.9-47.7,100.9-58.9,155.3c-5.3,21.7,27,17.7,35.3,6.5c15.7-14.2,18.4-37.7,33-53.1    c31.3-37.8,41.7-87.9,72-126.2c14.5-19,44.3-25.4,59.4-2.7c-16,0.3-38.8-4.1-45.8,15.3c-16.9,45,32.6,82.9,22.2,128    c-3.8,19-18.2,32.8-31.6,45.5c9,4.8,9.7,5.1,18.6,10.1c-40,5.3-81.5,23.1-110.6-14.8c-16.6,12.9-37.7,30.8-59.7,18.5    c-15.2-5.4-16.5-23.1-22.6-35.6c-16.2,18.7-35.3,42.5-63.3,39.1c-23.6-6.5-27.7-32.9-27.3-53.8c-19,25.2-46.5,66-83.4,48.9    c-18.9-5.1-18.8-28.1-25.1-42.8c-15.3,20.8-31.9,50.6-61.7,49c-29-5.3-27.4-39.2-25.3-61.4c-19.5,25.9-41,62.5-78.1,60.9    c-20.7-6.2-24.1-29-27-47.1c-15.2,19.4-30.7,42.3-56.7,47.2c-17.7-0.3-34.2-14.6-34.4-32.7c-2.7-41.8,28.8-73.7,42.9-110.4    c-2.2-18.2-27.6-13.7-39.9-20.4c-21,50.8-40.1,104.7-78.4,145.4c-13.3,14.8-38.5,27.8-55,10.3c-15.7-12.5-7.9-35.7-10.4-52.3    c-19.5,25.3-41.6,64.1-79.1,59.5c-28.6-13.5-27.6-50.8-20.5-76.9c16.5-57,59.9-115.7,123.2-121.2c25.5-4.1,50.3,11,58.5,35.3    c-20.1-2.4-35.4-27.5-56.2-16c-44.2,22.9-74.4,66.9-94.3,111.4c-6,16.7-16.8,43.4,6,51.9c51-24.3,68.6-82.5,98.8-125.9    c10.7-18,32.7-10.3,49.4-9.6c-28.8,40.4-55,86.1-55.4,137.3c13.6-4.2,26.8-10.8,34.9-23.1c45.9-60.4,67.6-134.4,86.3-206.8    c15-20.1,36,7.2,32,24.5c0.3,18.9-16.4,30.8-26.8,44.3c25.5-1.2,51-1.7,76.5-2.2c-13.9,56.3-62.4,103.3-55.4,164.1    c61.6-28.7,60.9-108.3,108.8-150.2c30.3-31.3,89.4-52.5,124-16.5c0.8,5.3,2.3,15.8,2.9,21.1c-15.8-12.4-34.6-32-56.2-18.5    c-45.8,28.2-79.5,75.9-95.2,127c-3.9,11-3.6,40.7,15.9,31.6c49-24.8,65.1-82.6,95.3-124.6c10.8-15.6,32.6-6.2,48.2-8.6    c-27.9,41.1-55.4,86.4-54.8,137.9c70.7-29,69-125.5,131.8-164.7c27.5-21.6,63.8-21.9,96.2-13.5    C1523.8,969.6,1544.8,921.6,1569.1,875.4z M1384.3,1105.9c-13.8,24-32.8,57.2-14.2,83.4c28-2.8,43.2-29.4,58-50    c23.2-37.7,48.5-74.7,64-116.4C1442.1,1024.5,1409.9,1068.4,1384.3,1105.9z M1646.5,1126.5c6.5,23.3,12.4,47.4,26.1,67.8    c43.2-39.6,21-101.8,18.2-152.1C1675.1,1069.9,1661,1098.3,1646.5,1126.5z M1636.1,1170.7c-7.1,11.2,6.8,31.3,19.9,26.3    C1662.5,1185.9,1648.7,1166.4,1636.1,1170.7z"/>
	</g>
	<path fill="#fff" d="M1602,958.2c12.2-9.7,38-4.5,36.7,13.9c3.1,21.5-29.2,40-44.1,21.9C1584.2,983.7,1590.7,965.3,1602,958.2z"/>
	<g>
		<path fill="#fff" d="M1832.8,1035.6c20.5-17,51.9-36.2,77.9-19.8c21.5,13.2,8.8,42.1-3.2,57.6c-22.2,32.5-61.4,44-97.4,53.1    c-0.2,23-13.2,67.4,22.1,68.6c57.8-4.3,71.9-70.9,104.2-108.3v13.6c-20.5,45.5-46,105.6-103.7,109.5    c-33.2,5.2-54.3-23.7-63.4-51.5c-6.7,11.4-14.8,23.5-24.8,32.4c-4.1-4.2-4.9-7.8-9.1-12C1781,1140.2,1785.9,1073.1,1832.8,1035.6z     M1818,1112.9c42.4-9.3,96.1-42.2,83.2-92.8C1863,1039.9,1838.3,1076.3,1818,1112.9z"/>
	</g>
</g>
<path fill="#fff" d="M1735.6,1178.8"/>
<path fill="#fff" d="M1692.5,1205.6c0,0,34.5-2,52.1-14.7l2.9-18.2l-12,6.2c0,0-9.7,10.7-42.1,17.5L1692.5,1205.6z"/>
<g>
	<path fill="#fff" d="M530.6,1278.1l40.2,122.5l39.8-122.5h21.3l-51.1,143.8h-20.1l-51-143.8H530.6L530.6,1278.1z"/>
	<path fill="#fff" d="M651.6,1278.1h102.1v17.6h-83.6v43.7h77.4v16.6h-77.4v48.7h85.1v17.1H651.6V1278.1z"/>
	<path fill="#fff" d="M780.1,1278.1h22.4l70.8,116.5v-116.5h18v143.8H870l-71.8-116.4v116.4h-18.1L780.1,1278.1L780.1,1278.1z"/>
	<path fill="#fff" d="M941.8,1278.1v88.9c0,10.4,1.9,19.1,5.7,26c5.7,10.4,15.2,15.7,28.6,15.7c16.1,0,27-5.6,32.8-16.9   c3.1-6.1,4.7-14.4,4.7-24.8v-88.9h19.3v80.8c0,17.7-2.3,31.3-7,40.8c-8.5,17.4-24.6,26-48.3,26s-39.7-8.7-48.2-26   c-4.6-9.5-7-23.1-7-40.8v-80.8L941.8,1278.1L941.8,1278.1z"/>
	<path fill="#fff" d="M1064.1,1278.1h102.1v17.6h-83.6v43.7h77.4v16.6h-77.4v48.7h85.1v17.1h-103.6V1278.1z"/>
	<path fill="#fff" d="M1247.7,1278.1h56.7c19.3,0,34.2,7,44.8,21c9.5,12.7,14.2,28.9,14.2,48.6c0,15.3-2.8,29.1-8.4,41.4   c-9.9,21.8-26.8,32.7-50.8,32.7h-56.6v-143.7H1247.7z M1300.6,1405.3c6.4,0,11.7-0.7,15.8-2.1c7.4-2.5,13.4-7.4,18.1-14.7   c3.8-5.8,6.5-13.2,8.1-22.3c1-5.4,1.4-10.4,1.4-15.1c0-17.8-3.5-31.6-10.3-41.5c-6.9-9.9-18-14.8-33.3-14.8h-33.7v110.4   L1300.6,1405.3L1300.6,1405.3z"/>
	<path fill="#fff" d="M1389.7,1278.1h102.1v17.6h-83.6v43.7h77.4v16.6h-77.4v48.7h85.1v17.1h-103.6V1278.1z"/>
	<path fill="#fff" d="M1618.5,1288.6c9.8,9.6,15.2,20.5,16.3,32.7h-18.5c-2.1-9.3-6.3-16.6-12.5-22c-6.3-5.4-15.1-8.1-26.4-8.1   c-13.8,0-24.9,5-33.4,14.9c-8.5,10-12.7,25.2-12.7,45.8c0,16.8,3.8,30.5,11.5,41s19.1,15.7,34.3,15.7c14,0,24.6-5.5,32-16.5   c3.9-5.8,6.8-13.4,8.7-22.9h18.5c-1.7,15.1-7.1,27.8-16.4,38.1c-11.1,12.3-26.1,18.5-45,18.5c-16.3,0-29.9-5.1-41-15.2   c-14.6-13.4-21.8-34-21.8-62c0-21.2,5.5-38.6,16.4-52.2c11.8-14.7,28.1-22.1,48.9-22.1C1594.9,1274.2,1608.7,1279,1618.5,1288.6z"/>
	<path fill="#fff" d="M1774.6,1298.7c9.3,12.7,13.9,29,13.9,48.8c0,21.5-5.3,39.3-15.9,53.5c-12.5,16.7-30.2,25.1-53.3,25.1   c-21.6,0-38.5-7.3-50.8-21.9c-11-14.1-16.5-31.9-16.5-53.4c0-19.4,4.7-36.1,14.1-49.9c12.1-17.7,29.9-26.6,53.6-26.6   C1744.4,1274.2,1762.7,1282.4,1774.6,1298.7z M1757.9,1390.3c7.5-12.3,11.2-26.4,11.2-42.4c0-16.9-4.3-30.5-12.9-40.8   s-20.4-15.5-35.3-15.5c-14.5,0-26.3,5.1-35.5,15.3c-9.2,10.2-13.7,25.3-13.7,45.2c0,15.9,3.9,29.4,11.8,40.3s20.6,16.4,38.2,16.4   C1738.3,1408.7,1750.4,1402.6,1757.9,1390.3z"/>
	<path fill="#fff" d="M1813.5,1278.1h64.9c10.7,0,19.5,1.6,26.4,4.8c13.2,6.1,19.7,17.5,19.7,34c0,8.6-1.7,15.7-5.2,21.1   c-3.5,5.5-8.3,9.9-14.5,13.2c5.5,2.3,9.6,5.3,12.4,9s4.3,9.8,4.6,18.1l0.7,19.3c0.2,5.5,0.6,9.6,1.3,12.2c1.1,4.6,3.2,7.5,6.1,8.8   v3.2h-23.3c-0.6-1.2-1.1-2.8-1.5-4.8s-0.7-5.7-1-11.4l-1.1-24c-0.4-9.4-3.8-15.7-10.2-18.9c-3.6-1.8-9.3-2.6-17.1-2.6h-43.2v61.7   h-19L1813.5,1278.1L1813.5,1278.1z M1876.3,1344c8.9,0,15.9-1.8,21.1-5.5s7.8-10.2,7.8-19.8c0-10.2-3.6-17.2-10.9-20.9   c-3.9-2-9.1-2.9-15.5-2.9h-46.4v49.1L1876.3,1344L1876.3,1344z"/>
</g>
</svg>