<?xml version="1.0" encoding="UTF-8"?>
<!-- Generator: Adobe Illustrator 18.0.0, SVG Export Plug-In . SVG Version: 6.00 Build 0)  -->
<!DOCTYPE svg PUBLIC "-//W3C//DTD SVG 1.1//EN" "http://www.w3.org/Graphics/SVG/1.1/DTD/svg11.dtd">
<svg version="1.1" id="Layer_1" xmlns="http://www.w3.org/2000/svg" xmlns:xlink="http://www.w3.org/1999/xlink" x="0px" y="0px" viewBox="0 654.4 2000 672.8" enable-background="new 0 654.4 2000 672.8" xml:space="preserve">
<g>
	<g>
		<path fill="#fff" d="M61.7,729.3c68.3,0.1,136.6-0.4,204.9,0.2c-7.4,11.2-16.4,21-24.8,31.5c-16.6,21-33.3,42-50.2,62.8    c-6.8,7.8-17.3,0.6-24-3.9c-11.6-8.7-30.1-8-39,4.3c-19.2,24.1-38.8,47.9-57.1,72.6c-4.8,4.4,1.2,9.3,4.6,12.3    c22.2,17.8,44.7,35.1,66.6,53.1c3.9,2.8,8.3,7.4,13.5,5c3-2.5,5.5-5.7,7.8-8.8c16.4-21.9,34.3-42.6,50.6-64.6    c6.3-8,7.2-19.4,3.6-28.7c-3.8-9.7-14.6-14.3-18.4-23.9c-2.1-3.9,1.5-7.4,3.5-10.4c24.6-31.7,50-62.7,74.4-94.6    c2.6-2.8,4.7-7.3,9.2-6.8c8.3-0.4,16.7,0.1,25,0c0,82.6,0,165.3,0,247.9c-83.4,0.2-166.8-0.1-250.2,0.1    C61.9,894.6,61.8,811.8,61.7,729.3z"/>
		<g>
			<path fill="#fff" d="M330.2,729.3c83.6-0.4,167.2-0.1,250.9-0.1c0,82.7,0,165.3,0,248c-83.6-0.1-167.3,0.2-250.9-0.1     C330.4,894.5,330.4,811.8,330.2,729.3z M371.5,768.8c-7.6,6.5-8.5,19.8-1.1,26.9c15.3,15.6,31.5,30.4,47.4,45.6     c-2.9,14.7-10,28.5-10.3,43.6c3.9,0.1,7.8,0.2,11.6,0.2c3.6-13.9,4.8-30.7,17.5-39.7c1.6,3.5,6.4,6.9,3.9,11.1     c-5.5,12.1-10.8,25.4-7.6,38.9c2.7,18.5,16.5,34.4,33.8,40.9c26,10.2,58.2-4.7,67.4-31.1c11.6-27.5-5.5-62.8-34.7-70     c-16.4-5.5-33.4,0.6-48,8.1c-2.7-3.1-5.4-6.2-8.1-9.4c13.4-6.3,27.6-10.6,41.4-15.9c-0.9-3.5-1.7-7-2.8-10.3     c-12.5,0-23.6,7.4-35.8,9.7c-4.4,1.2-7.5-2.7-10.3-5.3c-12.4-12.6-24.7-25.4-37.5-37.6C391.6,767.9,380.4,764,371.5,768.8z"/>
		</g>
		<g>
			<path fill="#fff" d="M635.8,730c47.3-0.8,94.6-1,141.9,0c24.8,1.8,50.3,4.4,73.2,15.1c32.3,17,50.9,53.7,51.1,89.5     c0.6-4.8,1.2-9.6,1.9-14.3c-1.2,11.7-1.5,23.5-0.1,35.3c-0.6-4-1.2-7.9-1.9-11.9c-0.1,26-9.8,51.9-27.1,71.4     c-19.5,20.3-47.8,28.2-75,31.4c-22.5,4.1-45.4-0.4-68,2.7c-0.8,28.3-0.3,56.7-0.4,85c-0.2,13.4,0.8,26.9-1.2,40.2     c-31.5,0.7-63.1,0.8-94.5,0C636,959.6,635.6,844.8,635.8,730z M732.6,807.5c-3.9,11-2.5,22.7-2.6,34.1c0,11.1-0.5,22.3,1.1,33.4     c18.4,1,37,1,55.2-2.1c14.1-2.6,21.4-18,20.8-31.2c1.2-13.2-5.5-27.7-19-31.4C770.1,805.5,751.1,807.8,732.6,807.5z"/>
		</g>
		<path fill="#fff" d="M941.2,729.7c31.3-0.2,62.6-0.6,93.8,0.3c1.2,84.1,0.2,168.3,0.5,252.4c-0.4,30.8,0.7,61.5-0.6,92.3    c-31.3,0.2-62.5-0.2-93.8,0.3C941.1,959.8,941,844.8,941.2,729.7z"/>
		<path fill="#fff" d="M1084.4,729.9c82.2,0.4,164.4,0.2,246.5,0.1c-0.6,13.6,0,27.3,0.5,41c0.1,10.8,0.7,22.4-4.8,32.1    c-6.8,12.4-16.4,22.8-24.3,34.4c-29.2,42.1-58.7,83.9-87.6,126.1c-6.6,9.7-14.2,18.8-19.2,29.4c33,1.1,66.1,0.3,99.2,0.5    c13.3,0.3,26.9-1.2,40.1,1.3c1.7,26.4,0.9,53,0.4,79.4c-37.7,1.6-75.5,0.3-113.3,0.6c-49.2-0.2-98.4,0.3-147.5-0.3    c-1.6-16.6-0.7-33.2-0.9-49.8c0.3-7.5-0.8-16,3.9-22.5c31.3-44.5,62.7-89,94.2-133.4c13.5-20,28.5-39,41.2-59.5    c-42.8-0.7-85.7,0.6-128.5-0.7C1084.7,782.4,1084.4,756.2,1084.4,729.9z"/>
		<g>
			<path fill="#fff" d="M1724.1,730.3c22.8-1.5,45.7-0.1,68.6-0.6c10.4,0.3,20.9-1.2,31.2,0.9c2,2.9,3.1,6.2,4.2,9.4     c31.1,109.9,62.9,219.7,94.3,329.5c2.1,4.3-4.4,5.7-7.4,5.4c-27.4-0.2-54.8,0.2-82.2-0.2c-8.3-0.4-8.2-10.3-10.3-16.2     c-4.9-17-7.4-34.9-14.6-51c-14.3-2.1-28.8-0.3-43.2-0.8c-13.6,0.5-27.4-1.1-40.9,0.8c-10.9,20.2-10.9,44.8-21.8,65.1     c-6.1,3-13,2.2-19.5,2.4c-18.3-0.2-36.7,0.3-55-0.4c2.2-13,6.4-25.4,9.8-38.1c27.4-96.3,54.4-192.7,81.8-289     C1720.4,741.5,1722.2,735.9,1724.1,730.3z M1758.3,854.2c-6.1,26.1-13.7,51.8-19.3,78c17.1,0.1,34.1,0,51.2,0.1     c-0.7-7.8-1.8-15.6-4-23.1c-7.5-25.6-12.3-51.9-20.7-77.2C1762.3,839.1,1760.1,846.6,1758.3,854.2z"/>
		</g>
		<path fill="#fff" d="M1363.6,730.4c82-0.7,164-0.4,246-0.2c0.6,16.7,0,33.5,0.3,50.2c-0.2,6.4,0.4,13.4-2.7,19.2    c-40.1,57.7-80.4,115.4-120.4,173.2c-4.6,6.3-9,12.8-12.5,19.8c46.4,0.7,92.8,0.3,139.3,0.2c0.3,22.4-0.4,44.9,0,67.3    c0.2,5-0.6,10-1.9,14.9c-69.7-0.3-139.4-0.2-209-0.2c-16.6-0.4-33.1,0.8-49.7-0.4c-1.9-18.8-0.6-37.9-0.8-56.9    c-0.5-7.4,2.9-14,7-19.9c41.3-58.2,82.2-116.7,123.6-174.7c3-4.2,5.4-8.7,7.7-13.3c-42.3-1.1-84.6,0.7-126.8-0.9    C1363.6,782.5,1363.7,756.5,1363.6,730.4z"/>
		<path fill="#fff" d="M126,851.3c2.6-9.2,8.2-19.2,17.9-22.2C140.1,838.1,134,846,126,851.3z"/>
		<path fill="#fff" d="M138.5,861.3c2.6-9.3,8.4-18.4,17.5-22.6C153.6,848.3,147,856.5,138.5,861.3z"/>
		<path fill="#fff" d="M449.5,849c3.9,0.5,6.2,4,8.9,6.5c6,6.4,12.7,12.3,17.6,19.6c0.1,1.4,0.2,4.1,0.3,5.5    c-10.1-7.1-18.7-16.1-27.5-24.8C446.4,853.8,447.4,850.5,449.5,849z"/>
		<path fill="#fff" d="M150.4,870.8c4.4-8.4,9.3-18.4,19.1-21.4C165.6,858.3,160.4,868.2,150.4,870.8z"/>
		<path fill="#fff" d="M104.9,877.3c3-9.1,8.5-18.7,18-22.1C119.6,864.2,114.1,873.3,104.9,877.3z"/>
		<path fill="#fff" d="M164.2,881.8c1.5-9.8,9.1-17.3,17.1-22.4C178.9,868.7,173.1,877.6,164.2,881.8z"/>
		<path fill="#fff" d="M132,865.6c1,0.5,3.1,1.5,4.1,2c-5.3,7.3-9.9,16-18.6,19.8C119.8,878.7,126.4,872.3,132,865.6z"/>
		<path fill="#fff" d="M176.1,891.2c4.2-8.8,9.9-17.9,19.2-21.9C191.8,878.5,185.8,887.7,176.1,891.2z"/>
		<path fill="#fff" d="M129.4,897.8c3.7-9.1,9.9-17.8,19-22C145.2,885.1,139,894.3,129.4,897.8z"/>
		<path fill="#fff" d="M190.1,902.8c1.5-10.3,9.2-18.5,17.7-23.9C205.2,888.8,197.9,896.6,190.1,902.8z"/>
		<path fill="#fff" d="M84.1,903.1c3.4-8.8,8.5-17.7,17.4-22C100.1,890.8,92.8,899.1,84.1,903.1z"/>
		<path fill="#fff" d="M143.2,908.1c2.4-9.3,8.8-17.6,17.1-22.4C158.7,895.3,151.9,903.8,143.2,908.1z"/>
		<path fill="#fff" d="M107.1,896.7c1.9-2.8,5.5-3,8.4-4c-4.3,8.5-10.4,16-17.6,22.2C96.6,907.3,102.9,902,107.1,896.7z"/>
		<path fill="#fff" d="M155.6,919.1c2.5-10,9.6-18.6,18.4-23.9C171.5,905.3,164.4,914,155.6,919.1z"/>
		<path fill="#fff" d="M109.8,923.8c3.1-9,8.6-18.2,17.9-21.9C124.5,911.1,118.7,919.7,109.8,923.8z"/>
		<path fill="#fff" d="M169.3,928.8c1.6-9.7,8.6-18,17.1-22.6C183.9,915.6,177.2,923.6,169.3,928.8z"/>
		<path fill="#fff" d="M134.8,915.1c1.6-2.1,4.4-1.6,6.7-1.8c-5.3,7.7-9.9,17.3-19.3,20.7C124.7,926.7,129.4,920.3,134.8,915.1z"/>
		<path fill="#fff" d="M134.3,942.6c5.1-7.6,10.7-15,17.5-21.1c1.5,9.8-8.5,15.6-13.2,23C137.5,944,135.4,943.1,134.3,942.6z"/>
		<path fill="#fff" d="M147.8,954.8c3-9.2,8.9-18,17.9-22.2C162.8,941.8,157,950.8,147.8,954.8z"/>
		<g>
			<path fill="#fff" d="M61.7,996.3c67.2-0.6,134.4-0.1,201.6-0.2c16.2,0.2,32.4-0.7,48.6,0.9c0,82.6-0.1,165.3,0,247.9     c-83.4,0-166.8,0-250.2,0C61.7,1161.9,61.9,1079.2,61.7,996.3z M71.7,1050.1c-0.1,43.5,0.1,86.9-0.1,130.4     c75.9,0.6,151.8,0.4,227.7,0.1c0.2-43.6,0-87.2,0-130.8C223.4,1049.9,147.6,1049.4,71.7,1050.1z"/>
		</g>
		<path fill="#fff" d="M496.1,1058.8c0.1-0.1,0.3-0.2,0.4-0.3c1.1-0.8,2.5-0.8,3.6-0.2c0.3,0.2,0.6,0.4,1,0.6    c1.1,0.6,1.4,2,0.9,3.1c0,0,0,0,0,0.1c-1.2,2.3-4.3,2.8-6.1,0.9c0,0,0,0-0.1-0.1C494.6,1061.7,494.8,1059.8,496.1,1058.8z"/>
		<g>
			<path fill="#fff" d="M98.4,1067.4c53.2,0.1,106.5,0,159.7,0c-0.3,15-0.4,30,0,45.1c-53.2,0.5-106.5,0.4-159.7,0     C98.1,1097.6,98.4,1082.4,98.4,1067.4z M102.1,1070.3c0,12.9-0.1,25.8-0.1,38.7c13.8,1.2,27.7,0.5,41.5,0.7     c37.1-0.1,74.2,0.3,111.3-0.3c0.4-13,0.6-26.1-0.1-39.1C203.9,1070.6,153,1070.4,102.1,1070.3z"/>
		</g>
		<path fill="#fff" d="M81,1080.8c-1.3-3.4,1.9-4.5,4.5-5.8c0.9-0.5,2.1,0.1,2.2,1.1c0.3,1.9,0.7,3.8,0.9,5.7    c0.2,1.6-1.2,3-2.8,2.9C83.2,1084.3,80.5,1084.2,81,1080.8z"/>
		<path fill="#fff" d="M106.6,1075.2c47.4,0,94.7,0.2,142.1-0.1c0,0.7,0.1,2.1,0.1,2.8c-47.4-0.1-94.8,0.1-142.3-0.1    C106.5,1077.2,106.6,1075.8,106.6,1075.2z"/>
		<path fill="#fff" d="M106.6,1124.4c47.4,0,94.7,0.2,142.1-0.1c0,0.7,0.1,2.1,0.1,2.8c-47.4-0.1-94.8,0.1-142.3-0.1    C106.5,1126.4,106.6,1125.2,106.6,1124.4z"/>
		<g>
			<path fill="#fff" d="M263.9,1074.8c9.4-0.1,18.8-0.1,28.1,0c0.3,12,0.3,24-0.1,36.1c-9.3,0.2-18.6,0.3-27.9,0.2     C264.1,1098.9,264.1,1086.8,263.9,1074.8z M271.5,1084.4c-3,3.3-3.4,8.9,0,12.2c4.9,5.4,15.8,1.7,14.9-6.1     C287.2,1082.6,276.5,1079.1,271.5,1084.4z"/>
		</g>
		<path fill="#fff" d="M116.4,1083.4c41.3-1.2,82.7-0.4,124.1-0.4c0.1,6.2,0.1,12.4-0.1,18.6c-41.4,0.3-82.7,0.2-124.1,0    C116.4,1095.6,116.4,1089.6,116.4,1083.4z"/>
		<g>
			<path fill="#fff" d="M98.4,1117.3c53,0.1,106-0.2,159,0.1c-0.2,15-0.2,30,0.1,45.1c-53.1-0.1-106.2-0.2-159.3,0.1     C97.8,1147.6,97.6,1132.3,98.4,1117.3z M101.5,1120.2c-1.1,13.1-0.7,26.2-0.6,39.4c51.2,0.4,102.4,0.3,153.6,0     c0.3-13.1,0.4-26.1,0-39.2C203.5,1119.8,152.5,1120.2,101.5,1120.2z"/>
		</g>
		<path fill="#fff" d="M84.4,1128.9c-1.5,0.3-3-0.8-3-2.4c-0.2-3.4-0.7-7.3,3.5-6.8c4.7-0.9,5.3,5.7,2.9,8.4    C86.6,1128.4,85.5,1128.8,84.4,1128.9z"/>
		<g>
			<path fill="#fff" d="M264,1119.4c9.3,0.2,18.6,0.1,27.8,0.1c0.4,12.4,0.6,24.7,0.3,37.1c-9.4,0.2-18.7,0.2-28.1-0.1     C264,1144.3,264.1,1131.8,264,1119.4z M273.8,1126.8c-8.2,3-5.1,17.1,3.7,16.4c6.4,0.8,10.4-6.3,8.4-11.8     C284.8,1125.8,278.2,1126.1,273.8,1126.8z"/>
		</g>
		<g>
			<path fill="#fff" d="M395.5,1121.7c4.1,0,8.2,0.1,12.3,0.2c-0.2,4-0.3,7.9-0.4,11.9c-3.9,0.2-7.9,0.3-11.8,0.5     C395.5,1130.1,395.5,1125.8,395.5,1121.7z M398.3,1126.2c-2.6,3.2,2.8,7.9,5.2,4.1C406.2,1126.9,400.8,1122.3,398.3,1126.2z"/>
		</g>
		<path fill="#fff" d="M115.1,1131.4c41.4-0.1,82.9,0.1,124.4-0.1c-0.1,6.5-0.3,12.9-0.5,19.3c-41.4,0.2-82.7-0.1-124.1,0.2    C114.7,1144.4,114.7,1137.9,115.1,1131.4z"/>
	</g>
	<g>
		<path fill="#fff" d="M1891.4,1116.4c10.4-11.3,27.3-9.7,40.4-4.9c0,5.9,0.1,11.8,0.2,17.7c-6.7-2.6-14.1-7-21.4-3.9    c-11.7,5.1-12.7,21.8-5.4,31c11.7,15.5,30.5,27.2,33.1,48v12.1c-1.9,9.4-5.6,19.2-13.9,24.7c-10.9,8.2-26.1,6.4-37.3-0.2    c-0.1-6-0.2-12-0.4-18c7.5,3.5,15.8,8.2,24.3,5c10.5-4.5,11.3-18.7,7.3-28c-5.9-11.6-16.8-19.4-25-29.3    C1879.7,1156.4,1878.7,1131.6,1891.4,1116.4z"/>
		<path fill="#fff" d="M610.7,1109.8c16.3,0.1,32.5,0,48.8,0c-0.1,5.1,0,10.1,0,15.2c-10.1,0-20.3,0.1-30.4,0    c0.1,14.3,0,28.6,0,42.9c8.7-0.1,17.5-0.1,26.2,0.1c0.3,5.1,0.5,10.1,0.7,15.2c-8.9,0.1-17.9,0.1-26.8,0c0,15.4,0,30.8,0,46.3    c10.1,0,20.3-0.1,30.4,0c-0.1,5.2-0.1,10.3,0,15.5c-16.3-0.1-32.6,0-48.8,0C610.7,1199.9,610.6,1154.8,610.7,1109.8z"/>
		<g>
			<path fill="#fff" d="M676.1,1136.4c2.1-11.2,8.3-23.3,20-26.8c13-4,30.1-1.6,37.5,11c7.4,12.1,8.1,26.7,9.4,40.4     c0.6,23.5,1.9,48-6.9,70.4c3.8,5.1,7.6,10.3,11.2,15.6c-3.9,2.7-7.8,5.3-11.7,7.9c-3-4.3-6.1-8.5-9-12.8     c-12.6,6.3-29.7,6.7-40-4.1c-9.6-10.7-11-25.7-12.6-39.4C672.5,1177.9,672.2,1156.9,676.1,1136.4z M694.3,1139.1     c-2.8,18.1-2.1,36.5-1.7,54.8c0.8,10.2,0.5,21.1,5.4,30.4c3.7,6.4,12.1,6.2,18.1,3.6c-3.9-5.8-8-11.5-11.9-17.4     c3.5-2.9,7-5.7,10.6-8.5c2.6,3.4,5.1,6.8,7.9,10c2.8-23,2.6-46.6-0.4-69.6c-0.7-8.1-5-18.9-14.9-17.9     C699.4,1124.2,695.2,1132.2,694.3,1139.1z"/>
		</g>
		<path fill="#fff" d="M761.9,1109.8c6,0,11.9,0,17.9,0c-0.1,32.7-0.1,65.5,0,98.3c0.5,6.4-0.1,14,4.7,19.1c5.3,3,12,2.7,17.4,0    c4.7-5.1,3.8-12.8,4.3-19.2c0-32.7,0.2-65.5-0.1-98.3c6,0,12,0,18.1,0c0,32.8,0,65.6,0,98.4c-0.2,9.2-0.9,18.8-5.1,27.1    c-6.3,9.6-18.9,12-29.6,11.3c-9.7-0.3-19.9-5.2-24.1-14.3c-3.3-8.4-3.4-17.6-3.4-26.5C761.9,1173.7,762.1,1141.8,761.9,1109.8z"/>
		<path fill="#fff" d="M844.8,1109.7c6,0.1,12.1,0,18.1,0c0,45.1,0,90.2,0,135.3c-6,0-12-0.1-18,0    C844.7,1199.9,844.8,1154.8,844.8,1109.7z"/>
		<g>
			<path fill="#fff" d="M883.9,1109.8c13,0.5,26.5-1.6,39.2,2c11.9,3.6,17.2,16.5,17.7,27.9c0.7,12.5,0.3,26.9-8.9,36.6     c-7.5,8.3-19.6,7.7-29.7,8.8c0,19.9,0,39.8,0,59.8c-6.1,0-12.1,0-18.2,0C883.9,1199.9,884,1154.8,883.9,1109.8z M902.1,1124.3     c-0.1,15.1-0.1,30.1,0,45.2c6.2-1,14.8-1,17.5-8c3.6-9.6,3.6-21.3-1.5-30.4C915,1125.3,907.8,1125.3,902.1,1124.3z"/>
		</g>
		<path fill="#fff" d="M961.1,1109.8c5.3,0,10.6,0,15.9,0.2c6.4,31.9,14.6,63.5,19,95.9c5-32.2,11.7-64,17.8-96    c5.4,0,10.7,0,16.1,0c3.7,45.1,8.2,90.1,12.3,135.2c-5.8,0-11.7,0-17.5,0c-1.7-30-4.9-60-4.3-90.1c-0.3,0-0.8-0.1-1-0.1    c-4.6,30.3-11.4,60.1-16.7,90.2c-4.1,0-8.2,0-12.4,0.1c-6.3-29.7-12.6-59.4-17.8-89.3c-2,29.8-3.2,59.6-5.2,89.4    c-5.8,0-11.5-0.1-17.2-0.3C953.5,1199.8,957.8,1154.8,961.1,1109.8z"/>
		<path fill="#fff" d="M1057.5,1109.8c16.1,0,32.2,0.1,48.3,0c0,5.1,0,10.1,0,15.2c-10.1,0.1-20.2,0-30.3,0.1    c0,14.3,0,28.5,0,42.7c9-0.1,18-0.1,27.1,0.5c-0.1,5-0.1,9.9-0.1,14.9c-9,0-17.9,0-26.8-0.1c-0.1,15.4,0,30.9,0,46.3    c10.1,0,20.1-0.1,30.2,0c0,5.1,0,10.3,0.1,15.5c-16.1,0.1-32.1,0.1-48.2,0C1057.5,1199.9,1057.6,1154.8,1057.5,1109.8z"/>
		<path fill="#fff" d="M1122.3,1109.8c5.7,0,11.3,0,17,0c10.4,31.9,22.6,63.4,30.4,96.2c-0.1-14.3-2.7-28.4-2.6-42.7    c0-17.8-0.1-35.7,0.1-53.5c6,0,12.1,0,18.1-0.1c0.1,45.1,0,90.2,0,135.3c-5.6,0-11.3-0.1-16.9-0.1c-10.5-32.1-22.6-63.7-30.5-96.5    c1.3,32.1,1.8,64.3,2.4,96.5c-6,0-12,0-17.9,0.1C1122.3,1199.9,1122.3,1154.8,1122.3,1109.8z"/>
		<path fill="#fff" d="M1195.5,1109.8c19.9,0,39.7,0,59.6,0c0,5.2,0,10.5,0.1,15.7c-6.9,0-13.8,0-20.6,0.4    c0.2,39.7,0.1,79.4,0,119.2c-6,0-12,0-18,0.1c-0.1-39.7,0-79.5,0-119.2c-7-0.3-14.1-0.3-21.1-0.4    C1195.4,1120.2,1195.4,1114.9,1195.5,1109.8z"/>
		<path fill="#fff" d="M1436.9,1115.3c10.6-10.1,26.7-8.4,39.3-3.6c0,6,0.1,12,0.2,18c-6.5-3.5-14.2-7.6-21.6-4.2    c-10.7,4.4-12,18.9-7.1,28.1c9.5,14.5,25.4,24.2,32.2,40.5c5.7,15.9,3.3,36.7-11.3,47.1c-10.9,8-26.1,6.5-37.2-0.3    c-0.1-6.2-0.2-12.3-0.3-18.4c7.2,4.3,15.8,8.7,24.4,5.5c9.4-4.5,11.2-17.3,7.7-26.3c-5.3-12.7-17.1-20.8-25.6-31.2    C1423.6,1156.1,1423,1130.1,1436.9,1115.3z"/>
		<path fill="#fff" d="M1498.2,1109.8c5.9,0,11.9,0,17.8,0c0.1,33.5,0,67.1,0.1,100.7c0.2,6,0.3,13.1,5.2,17.3    c5.1,1.7,11.1,2,16.1-0.2c5.1-4.1,4.6-11.4,5.1-17.3c0.2-33.5-0.2-67.1,0.2-100.6c5.8,0,11.7,0.1,17.6,0.1c0,32.7,0,65.4,0,98.2    c-0.5,9.9-0.3,20.8-6.3,29.2c-10.7,11.3-29.4,12-42.7,5.3c-11-5.4-12.5-18.9-13-29.8C1498,1178.3,1498.2,1144.1,1498.2,1109.8z"/>
		<g>
			<path fill="#fff" d="M1580.9,1109.8c14.3,0.8,29.7-2.5,43.1,3.8c11.2,5.6,13.9,19.5,14.1,30.9c0.2,11.5-1.4,24.4-10,32.9     c-7.8,7-19,6.7-28.8,7.6c0,20-0.1,40,0,59.9c-6.2,0-12.3,0-18.5,0C1580.8,1199.9,1580.9,1154.8,1580.9,1109.8z M1599.4,1124.4     c-0.1,15.1-0.1,30.1,0,45.2c6.3-1,14.9-1.2,17.6-8.3c3.5-9.9,3.8-22.3-2.5-31.2C1611.2,1125.2,1604.6,1125.4,1599.4,1124.4z"/>
		</g>
		<g>
			<path fill="#fff" d="M1652.3,1109.8c13.1,0.6,26.6-1.6,39.4,2c11.6,3.9,17.1,16.6,17.5,28c0.9,12.6,0.1,27-9.1,36.7     c-7.5,8.3-19.5,7.5-29.7,8.6c-0.3,19.9,0,39.9-0.1,59.9c-6,0.1-12,0-17.9,0C1652.3,1199.9,1652.5,1154.8,1652.3,1109.8z      M1670.8,1124.4c-0.8,15-0.5,30.1-0.4,45.1c6.8-0.7,16.1-1.4,18.4-9.3c2.6-9,2.6-19.4-1.4-28     C1684.4,1125.9,1676.9,1124.9,1670.8,1124.4z"/>
		</g>
		<path fill="#fff" d="M1723.5,1109.8c6,0,12,0,18,0c0.2,39.9,0,79.8,0.1,119.6c9.9,0,19.7,0,29.6,0.1c0,5.2,0,10.3,0,15.5    c-15.9,0-31.8-0.1-47.7,0.1C1723.4,1199.9,1723.3,1154.8,1723.5,1109.8z"/>
		<path fill="#fff" d="M1782.7,1109.8c6,0,12.1,0,18.1-0.1c0,45.1,0.1,90.2,0,135.3c-6,0-12,0-18,0    C1782.7,1199.9,1782.7,1154.8,1782.7,1109.8z"/>
		<path fill="#fff" d="M1821.7,1109.8c16.1,0.1,32.2,0,48.4,0c-0.1,5.1-0.1,10.1-0.2,15.2c-9.9,0-19.9,0-29.8,0    c0.1,14.3,0.1,28.5,0,42.8c8.9,0,17.7,0,26.6,0c0,5.1,0,10.2,0,15.3c-8.9,0-17.7,0.1-26.5,0c0.1,15.4-0.2,30.8,0.1,46.2    c9.9,0.2,19.8,0.1,29.7,0.1c0,5.2-0.1,10.4-0.1,15.6c-16.1-0.1-32.2,0-48.2-0.1C1821.9,1199.9,1821.7,1154.8,1821.7,1109.8z"/>
		<g>
			<path fill="#fff" d="M1309.8,1133.8c6.9-17,32.5-19.7,44.3-6.5c6,7.2,6.3,17.5,3.9,26.2c-3.6,10.3-11.7,18.1-18.8,26     c6.2,9.5,11.6,19.5,18.2,28.8c3.4-5.2,7-10.3,10.5-15.3c3.9,2.9,7.8,5.9,11.7,8.9c-4.7,6.9-9.7,13.6-14.5,20.4     c4.8,7.6,9.7,15.1,14.6,22.6c-6.8,0.1-13.6,0.1-20.3,0c-1.9-3.5-3.9-7-6-10.4c-9.3,10.7-26,15-38.3,7     c-13.2-7.6-18.4-24.8-14.1-38.9c2.9-10.1,10.2-18,17.1-25.6C1311.3,1164.1,1303.8,1148.4,1309.8,1133.8z M1325.8,1138.4     c-4.5,9.3,2.4,19,6,27.5c6.5-7.1,14.9-15.2,12.5-25.9C1342.8,1131.2,1329.3,1130.8,1325.8,1138.4z M1316.7,1212.7     c0,7.7,5.1,16.2,13.2,17.5c6.6,1.4,11.5-4.1,16.2-7.8c-6.5-10.5-12.7-21.2-19.3-31.6C1321.8,1197.1,1316.2,1204.1,1316.7,1212.7z     "/>
		</g>
	</g>
	<g>
		<polygon fill="#fff" points="426.5,1087.9 454.8,1087.9 454.8,1083.9 430.5,1083.9   "/>
		<polygon fill="#fff" points="456.2,1087.9 489.6,1087.9 489.6,1083.9 456.2,1083.9   "/>
		<polygon fill="#fff" points="432,1082.6 454.8,1082.6 454.8,1078.8 435.8,1078.8   "/>
		<path fill="#fff" d="M581,995c-83.6,0.1-167.2,0-250.8,0.1c0.2,83.2,0.1,166.5,0,249.7c83.6,0.2,167.1,0,250.7,0.1    C581.1,1161.6,581.1,1078.3,581,995z M383.7,1011.3c2-5.6,8.7-4.6,13.4-4.9c33,0,66,0,99,0c5.1,0.3,12.9-0.6,14.4,5.9    c2.1,10.8,0.7,21.9,1.1,32.9c-43.3-0.4-86.6-0.1-129.9-0.1C382.2,1033.8,379.5,1021.8,383.7,1011.3z M527.4,1187.7    c-3.4,0.2-6.8,0.4-10.1,0.5c-1,7.7-1.1,15.5-0.9,23.2c-1.8,0.4-5.3,1-7,1.4c-0.2,4.8-0.4,9.7-0.5,14.6c-6,0.3-12.1,0.3-18.1,0.3    c-0.1-4.8-0.3-9.6-0.3-14.4c-29.3,0-58.5,0-87.8,0c-0.5,4.3-1,8.7-1.4,13.1c-5.8,0-11.7,0-17.5,0.1c0.1-3.9,0.1-7.8,0.3-11.7    c-3.1-1.5-6.1-3-9.2-4.4c1.3-14.1,4.3-28,4.8-42.3c0.7-22.7,0-45.5,0-68.2c0.2-17-3.3-33.8-4.3-50.7c37-2.4,74.3-1,111.4-0.8    c9.8-0.7,19.7-0.9,29.5,0.5c0,8.4,0,16.8,0,25.3c-32.3,1.5-64.7,0.4-97,0.6c0.4,34-0.2,68.1,0.2,102.1c36.1,0,72.2-0.2,108.4,0.1    C527.5,1180.3,527.5,1184.1,527.4,1187.7z M534.2,1089.3H423l12.2-12H514L534.2,1089.3z M533.8,1142.1    c-0.5,10.3-5.8,20.1-14.8,25.5c-10.8,7.9-24.7,5.8-37.2,6.1c-13.7-0.2-28.3,2.2-41-4.4c-12.3-5.3-17.5-19.2-18.5-31.7    c-0.4-15.3,0-30.6-0.1-45.9c37.3-0.5,74.6-0.4,111.9-0.1C533.9,1108.3,534.7,1125.3,533.8,1142.1z"/>
		<polygon fill="#fff" points="491,1078.8 491,1082.6 520.2,1082.7 513.6,1078.8   "/>
		<polygon fill="#fff" points="491,1087.9 529.1,1087.9 522.5,1084.1 491,1083.9   "/>
		<polygon fill="#fff" points="456.2,1082.6 489.6,1082.6 489.6,1078.8 456.2,1078.8   "/>
	</g>
</g>
</svg>