<?xml version="1.0" encoding="UTF-8"?>
<!-- Generator: Adobe Illustrator 18.0.0, SVG Export Plug-In . SVG Version: 6.00 Build 0)  -->
<!DOCTYPE svg PUBLIC "-//W3C//DTD SVG 1.1//EN" "http://www.w3.org/Graphics/SVG/1.1/DTD/svg11.dtd">
<svg version="1.1" id="Layer_1" xmlns="http://www.w3.org/2000/svg" xmlns:xlink="http://www.w3.org/1999/xlink" x="0px" y="0px" viewBox="0 803.8 2000 369" enable-background="new 0 803.8 2000 369" xml:space="preserve">
<g>
	<path fill="#fff" d="M97.7,846.8h40.7c10.2,0,18.9,0.7,26,1.9c7.1,1.4,12.7,3.3,17,5.9c4.3,2.6,7.4,6.1,9.4,10.3   c1.9,4.2,2.9,9.1,2.9,15c0,13.7-2.6,26-7.9,36.7c-5.3,10.9-13.7,19.4-25.4,25.8l14.9,64.8h-37.8l-13.7-59H116l-11.4,59H66.7   L97.7,846.8z M128.9,917.3c8.7,0,15.2-1.9,19.4-5.7c4.2-3.8,6.4-11.1,6.4-21.8c0-4.3-1.5-7.4-4.6-9.1c-3-1.7-8.5-2.5-16.4-2.5h-4.2   l-7.4,39.2H128.9z"/>
	<path fill="#fff" d="M227.5,846.8H315l-5.8,30.8h-49.5l-6.3,32.5h46.3l-6.1,30.8h-46.3l-7,35.7h51.9l-5.8,30.8h-89.8   L227.5,846.8z"/>
	<path fill="#fff" d="M340.2,846.8h37.8l18.6,81.2l15.6-81.2h37.8l-30.9,160.5h-37.6L363,925.7l-15.8,81.6h-37.8L340.2,846.8z"/>
	<path fill="#fff" d="M462.6,927.1c3-15.6,6.5-28.6,10.6-39.2c4.1-10.6,9-19.1,14.9-25.4c5.8-6.4,12.6-11,20.4-13.7   s16.7-4.2,27-4.2c15.6,0,27,3.3,34.3,9.9c7.3,6.6,11.1,18,11.1,34.2c0,4.7-0.3,10.3-1,17c-0.7,6.7-1.8,13.8-3.3,21.5   c-3.1,15.7-6.6,28.8-10.7,39.3c-4,10.5-8.9,19-14.8,25.4c-5.8,6.4-12.6,11.1-20.4,13.7c-7.8,2.7-16.7,4.1-27,4.1   c-7.8,0-14.5-0.8-20.2-2.3c-5.7-1.6-10.5-4-14.2-7.4c-3.8-3.4-6.5-7.9-8.2-13.5c-1.8-5.6-2.6-12.5-2.6-20.6c0-5.3,0.3-11.1,1-17.5   C460,942,461,934.9,462.6,927.1z M500.4,927.3c-1.7,8.1-3,15.1-3.9,21c-0.8,5.9-1.3,10.9-1.3,15c0,5.6,1,9.6,3.1,12   c2.1,2.4,5.7,3.7,11.1,3.7c4.3,0,7.9-0.9,10.9-2.6c2.9-1.8,5.3-4.7,7.3-8.8c2.1-4,3.9-9.4,5.5-15.9c1.6-6.5,3.3-14.6,5.3-24.2   c1.7-8.7,3.1-16.1,4.1-22.2c1-6.1,1.5-11.1,1.5-15.2c0-5.5-1.1-9.3-3.3-11.4c-2.3-2.2-5.8-3.3-10.9-3.3c-4.5,0-8.1,0.8-11,2.3   c-2.7,1.6-5.3,4.2-7.3,8.1c-2.1,3.9-4,9.3-5.6,16C504.3,908.6,502.5,917,500.4,927.3z"/>
	<path fill="#fff" d="M606.3,846.8h37.2l2.1,103.4l41.9-103.4h37.8l-71.6,160.5h-37.8L606.3,846.8z"/>
	<path fill="#fff" d="M763,846.8h37.8l12.3,160.5h-39.1v-32.7h-34l-13.5,32.7h-37.8L763,846.8z M771.7,943.9v-44.1L753,943.9   H771.7z"/>
	<path fill="#fff" d="M944.4,846.8l-5.8,30.8h-31.7l-25.2,129.8h-37.8l25.2-129.8h-31.7l5.8-30.8H944.4z"/>
	<path fill="#fff" d="M960.7,846.8h37.8l-30.9,160.5h-37.8L960.7,846.8z"/>
	<path fill="#fff" d="M1010.9,927.1c3-15.6,6.5-28.6,10.6-39.2c4.1-10.6,9-19.1,14.9-25.4c5.8-6.4,12.6-11,20.4-13.7   c7.8-2.7,16.7-4.2,27-4.2c15.6,0,27,3.3,34.3,9.9c7.3,6.6,11.1,18,11.1,34.2c0,4.7-0.3,10.3-1,17c-0.7,6.7-1.8,13.8-3.3,21.5   c-3.1,15.7-6.6,28.8-10.7,39.3c-4,10.5-8.9,19-14.8,25.4c-5.8,6.4-12.6,11.1-20.4,13.7c-7.8,2.7-16.7,4.1-27,4.1   c-7.8,0-14.5-0.8-20.2-2.3c-5.7-1.6-10.5-4-14.2-7.4c-3.8-3.4-6.5-7.9-8.2-13.5c-1.8-5.6-2.6-12.5-2.6-20.6c0-5.3,0.3-11.1,1-17.5   C1008.2,942,1009.4,934.9,1010.9,927.1z M1048.8,927.3c-1.7,8.1-3,15.1-3.9,21c-0.8,5.9-1.3,10.9-1.3,15c0,5.6,1,9.6,3.1,12   c2.1,2.4,5.7,3.7,11.1,3.7c4.3,0,7.9-0.9,10.9-2.6c2.9-1.8,5.3-4.7,7.3-8.8c2.1-4,3.9-9.4,5.5-15.9c1.6-6.5,3.3-14.6,5.3-24.2   c1.7-8.7,3.1-16.1,4.1-22.2c1-6.1,1.5-11.1,1.5-15.2c0-5.5-1.1-9.3-3.3-11.4c-2.3-2.2-5.8-3.3-10.9-3.3c-4.5,0-8.1,0.8-11,2.3   c-2.7,1.6-5.3,4.2-7.3,8.1s-4,9.3-5.6,16C1052.6,908.6,1050.8,917,1048.8,927.3z"/>
	<path fill="#fff" d="M1168.3,846.8h37.8l18.6,81.2l15.6-81.2h37.8l-30.9,160.5h-37.6l-18.6-81.6l-15.8,81.6h-37.8L1168.3,846.8z   "/>
	<path fill="#fff" d="M1318.1,951.6c-0.9,4.5-1.4,8.6-1.4,12.1c0,4.8,0.9,8.6,2.7,11.2c1.8,2.6,4.9,4,9,4c1.8,0,3.8-0.3,5.6-0.9   c1.8-0.6,3.5-1.6,5-3c1.5-1.4,2.7-3,3.8-5c1-2.1,1.5-4.5,1.5-7.2c0-3.8-1.1-7-3.4-9.7c-2.3-2.7-5.1-5.4-8.6-7.9   c-3.4-2.5-7.2-5.1-11.3-7.7s-7.9-5.6-11.3-9c-3.4-3.4-6.3-7.3-8.6-11.8c-2.3-4.5-3.4-9.7-3.4-16c0-8.1,1.5-15.6,4.6-22.4   c3-6.9,7.1-12.8,12.3-17.7c5.1-5,11.3-8.9,18.4-11.8s14.5-4.3,22.4-4.3c7,0,12.9,1,17.7,3.2c4.8,2.1,8.7,4.9,11.8,8.5   c3,3.5,5.3,7.9,6.6,12.8c1.4,5,2.1,10.3,2.1,15.9c0,2.7-0.1,5.6-0.3,8.5c-0.2,2.9-0.7,5.8-1.3,9h-33.5c0.8-4.3,1.1-8.1,1.1-11.2   c0-4.8-0.8-8.7-2.3-11.5c-1.6-2.9-4-4.3-7.4-4.3c-1.4,0-3,0.3-4.7,0.9c-1.7,0.6-3.3,1.6-4.8,3.1c-1.5,1.4-2.7,3.2-3.8,5.5   c-1,2.3-1.5,4.9-1.5,8c0,3.9,1.1,7.3,3.4,10.3c2.3,3,5.3,5.7,8.7,8.2c3.5,2.5,7.3,5.1,11.4,7.7s7.9,5.5,11.4,8.9   c3.4,3.3,6.4,7.3,8.7,11.8c2.3,4.5,3.4,9.8,3.4,16.1c0,9.6-1.8,17.8-5.5,24.7c-3.7,6.9-8.3,12.5-14,16.7c-5.6,4.2-12,7.4-19.1,9.5   s-14,3.1-20.8,3.1c-12.6,0-22.6-3.2-30.3-9.5s-11.5-16.6-11.5-30.6c0-2.6,0.1-5.5,0.3-8.5c0.2-3.1,0.7-6.2,1.5-9.5L1318.1,951.6   L1318.1,951.6z"/>
	<path fill="#fff" d="M1481.3,846.8h40.7c10.4,0,19.1,0.6,26.1,1.8c7,1.3,12.7,3.2,16.9,5.7c4.3,2.5,7.4,5.9,9.3,10.2   c1.8,4.2,2.7,9.1,2.7,15c0,5.6-0.7,11.9-2.1,18.9c-1.7,8.7-4.1,16.4-7.3,22.8c-3.2,6.4-7.5,11.8-13,16c-5.5,4.2-12.2,7.3-20.4,9.5   c-8.1,2.1-17.7,3.2-29,3.2h-5.8l-11.2,57.6h-37.8L1481.3,846.8z M1509.2,918.6c5.3,0,9.5-0.3,12.8-1c3.2-0.7,5.9-1.8,7.9-3.4   c2.1-1.6,3.5-3.7,4.6-6.3s1.9-5.8,2.6-9.6c0.8-3.9,1.1-7,1.1-9.1c0-4-1.5-7-4.3-8.7c-2.9-1.7-8.5-2.5-16.6-2.5h-4.2l-7.9,40.6h4   V918.6z"/>
	<path fill="#fff" d="M1610.6,846.8h37.8l-25.2,129.8h47l-5.8,30.8h-84.8L1610.6,846.8z"/>
	<path fill="#fff" d="M1748.7,846.8l-16.7,87.2c-1.4,7.7-2.5,14.1-3.4,19.2c-0.9,5.3-1.4,9.6-1.4,13.1c0,4.5,0.9,7.7,2.6,9.6   c1.8,1.8,4.8,2.7,8.9,2.7c3.8,0,6.7-0.7,9.1-2.2c2.4-1.5,4.5-4,6.2-7.5c1.7-3.5,3.2-8.3,4.6-14.5c1.4-6.1,2.9-13.7,4.8-23.1   l16.2-84.7h37.8l-16.2,84.7c-3,15.4-6.2,28.1-9.6,38.2c-3.4,10.1-7.8,18.1-12.9,23.9c-5.1,5.9-11.3,10.1-18.8,12.5   c-7.3,2.4-16.5,3.7-27.3,3.7c-7.9,0-14.6-0.6-20.1-1.7c-5.5-1.1-9.9-3.2-13.5-5.9c-3.4-2.7-6.1-6.5-7.5-11.2   c-1.6-4.7-2.3-10.5-2.3-17.5c0-5.6,0.5-12,1.5-19.1c1-7.2,2.4-15.2,4.1-24.2l16-83.1L1748.7,846.8L1748.7,846.8z"/>
	<path fill="#fff" d="M1856.5,951.6c-0.9,4.5-1.4,8.6-1.4,12.1c0,4.8,0.9,8.6,2.7,11.2c1.8,2.6,4.9,4,9,4c1.8,0,3.8-0.3,5.6-0.9   c1.8-0.6,3.5-1.6,5-3c1.5-1.4,2.7-3,3.8-5c1-2.1,1.5-4.5,1.5-7.2c0-3.8-1.1-7-3.4-9.7c-2.3-2.7-5.1-5.4-8.6-7.9   c-3.4-2.5-7.2-5.1-11.3-7.7s-7.9-5.6-11.3-9c-3.4-3.4-6.3-7.3-8.6-11.8c-2.3-4.5-3.4-9.7-3.4-16c0-8.1,1.5-15.6,4.6-22.4   c3-6.9,7.1-12.8,12.3-17.7c5.1-5,11.3-8.9,18.4-11.8c7.1-2.9,14.5-4.3,22.4-4.3c7,0,12.9,1,17.7,3.2c4.8,2.1,8.7,4.9,11.8,8.5   c3,3.5,5.3,7.9,6.6,12.8c1.4,5,2.1,10.3,2.1,15.9c0,2.7-0.1,5.6-0.3,8.5c-0.2,2.9-0.7,5.8-1.3,9h-33.5c0.8-4.3,1.1-8.1,1.1-11.2   c0-4.8-0.8-8.7-2.3-11.5c-1.6-2.9-4-4.3-7.4-4.3c-1.4,0-3,0.3-4.7,0.9c-1.7,0.6-3.3,1.6-4.8,3.1c-1.5,1.4-2.7,3.2-3.8,5.5   c-1,2.3-1.5,4.9-1.5,8c0,3.9,1.1,7.3,3.4,10.3s5.3,5.7,8.7,8.2c3.5,2.5,7.3,5.1,11.4,7.7c4.1,2.5,7.9,5.5,11.4,8.9   c3.4,3.3,6.4,7.3,8.7,11.8c2.3,4.5,3.4,9.8,3.4,16.1c0,9.6-1.8,17.8-5.5,24.7c-3.7,6.9-8.3,12.5-14,16.7s-12,7.4-19.1,9.5   c-7.1,2.1-14,3.1-20.8,3.1c-12.6,0-22.6-3.2-30.3-9.5s-11.5-16.6-11.5-30.6c0-2.6,0.1-5.5,0.3-8.5c0.2-3.1,0.7-6.2,1.5-9.5   L1856.5,951.6L1856.5,951.6z"/>
</g>
<g>
	<path fill="#fff" d="M969,1053.4v62.9h-14.3v-62.9H969z"/>
	<path fill="#fff" d="M981.3,1085.3c0-5.7-0.2-10.5-0.3-14.5h11.9l0.7,6.2h0.2c1.9-2.9,5.9-7.2,13.8-7.2c5.8,0,10.5,3,12.5,7.8   h0.2c1.7-2.3,3.8-4.2,5.8-5.5c2.5-1.5,5.4-2.3,8.7-2.3c8.8,0,15.4,6.2,15.4,19.8v26.9h-13.8v-24.8c0-6.6-2.2-10.4-6.7-10.4   c-3.3,0-5.6,2.3-6.5,4.9c-0.3,1-0.6,2.5-0.6,3.7v26.6h-13.8v-25.6c0-5.8-2.1-9.7-6.5-9.7c-3.7,0-5.8,2.7-6.6,5.1   c-0.5,1.1-0.6,2.4-0.6,3.5v26.6h-13.7V1085.3z"/>
	<path fill="#fff" d="M1087.4,1116.3l-0.8-4.6h-0.2c-3,3.7-7.7,5.6-13,5.6c-9.3,0-14.8-6.7-14.8-14c0-11.9,10.6-17.5,26.8-17.5   v-0.7c0-2.4-1.3-5.8-8.3-5.8c-4.7,0-9.6,1.6-12.6,3.4l-2.6-9.1c3.2-1.8,9.4-4,17.7-4c15.2,0,20,8.9,20,19.7v15.9   c0,4.3,0.2,8.6,0.7,11.1H1087.4z M1085.8,1094.8c-7.4-0.1-13.3,1.7-13.3,7.2c0,3.7,2.4,5.4,5.6,5.4c3.5,0,6.4-2.3,7.3-5.3   c0.2-0.8,0.2-1.6,0.2-2.4v-4.9H1085.8z"/>
	<path fill="#fff" d="M1154.3,1070.7c-0.2,2.9-0.3,6.7-0.3,13.5v25.5c0,8.8-1.8,16-6.9,20.6c-5,4.3-11.9,5.6-18.5,5.6   c-5.9,0-12.3-1.3-16.5-3.5l2.7-10.7c2.9,1.7,7.9,3.4,13.3,3.4c6.7,0,11.9-3.7,11.9-12v-3h-0.2c-2.7,3.8-7.1,5.9-12.3,5.9   c-11.3,0-19.3-9.1-19.3-22.3c0-14.6,9.5-24,20.7-24c6.3,0,10.2,2.7,12.5,6.4h0.2l0.5-5.4L1154.3,1070.7L1154.3,1070.7z    M1139.7,1089.3c0-0.9-0.1-1.8-0.2-2.6c-1-3.8-3.8-6.3-7.7-6.3c-5.1,0-9.4,4.7-9.4,12.9c0,6.9,3.3,12.1,9.4,12.1   c3.7,0,6.5-2.4,7.4-5.8c0.3-1,0.5-2.5,0.5-3.8L1139.7,1089.3L1139.7,1089.3z"/>
	<path fill="#fff" d="M1180,1058c0,3.9-3,7.1-7.7,7.1c-4.5,0-7.4-3.2-7.3-7.1c-0.1-4.1,2.9-7.2,7.4-7.2   C1177,1050.8,1179.9,1053.9,1180,1058z M1165.4,1116.3v-45.6h14.2v45.6H1165.4z"/>
	<path fill="#fff" d="M1190.9,1085.3c0-5.7-0.2-10.5-0.3-14.5h12.3l0.7,6.3h0.2c1.8-2.9,6.5-7.3,14.1-7.3   c9.4,0,16.4,6.2,16.4,19.6v27.1H1220v-25.3c0-5.8-2.1-9.9-7.2-9.9c-3.9,0-6.3,2.7-7.2,5.4c-0.3,0.8-0.6,2.3-0.6,3.5v26.3h-14.2   L1190.9,1085.3L1190.9,1085.3z"/>
	<path fill="#fff" d="M1256.5,1098c0.5,5.8,6.3,8.7,12.9,8.7c4.8,0,8.8-0.7,12.6-1.8l1.8,9.6c-4.7,1.8-10.4,2.7-16.5,2.7   c-15.4,0-24.4-8.9-24.4-23.2c0-11.5,7.2-24.4,23.1-24.4c14.8,0,20.4,11.4,20.4,22.8c0,2.4-0.2,4.6-0.5,5.6H1256.5z M1273.2,1088.4   c0-3.4-1.5-9.3-8-9.3c-5.9,0-8.3,5.4-8.8,9.3H1273.2z"/>
	<path fill="#fff" d="M1314.1,1054.4c5.3-0.8,12-1.3,19.2-1.3c11.9,0,19.7,2.2,25.7,6.7c6.5,4.8,10.6,12.6,10.6,23.7   c0,12-4.3,20.4-10.4,25.5c-6.6,5.5-16.7,8.1-29,8.1c-7.3,0-12.6-0.5-16.1-0.9L1314.1,1054.4L1314.1,1054.4z M1328.4,1105.7   c1.3,0.2,3.2,0.2,4.9,0.2c12.9,0.1,21.3-7,21.3-22.1c0.1-13-7.5-20-19.8-20c-3.2,0-5.3,0.2-6.4,0.6V1105.7z"/>
	<path fill="#fff" d="M1389.6,1098c0.5,5.8,6.3,8.7,12.9,8.7c4.8,0,8.8-0.7,12.6-1.8l1.8,9.6c-4.7,1.8-10.4,2.7-16.5,2.7   c-15.4,0-24.4-8.9-24.4-23.2c0-11.5,7.2-24.4,23.1-24.4c14.8,0,20.4,11.4,20.4,22.8c0,2.4-0.2,4.6-0.5,5.6H1389.6z M1406.3,1088.4   c0-3.4-1.5-9.3-8-9.3c-5.9,0-8.3,5.4-8.8,9.3H1406.3z"/>
	<path fill="#fff" d="M1427.8,1104c2.6,1.6,8,3.4,12.2,3.4c4.3,0,6.1-1.5,6.1-3.8c0-2.3-1.4-3.4-6.7-5.3   c-9.4-3.2-13-8.3-12.9-13.7c0-8.5,7.3-15,18.5-15c5.4,0,10.1,1.3,12.9,2.6l-2.5,9.8c-2.1-1.1-5.9-2.6-9.9-2.6   c-3.4,0-5.4,1.4-5.4,3.8c0,2.2,1.8,3.3,7.3,5.3c8.7,3,12.3,7.3,12.5,14.1c0,8.5-6.7,14.8-19.8,14.8c-5.9,0-11.3-1.3-14.8-3.2   L1427.8,1104z"/>
	<path fill="#fff" d="M1483.1,1058c0,3.9-3,7.1-7.7,7.1c-4.5,0-7.4-3.2-7.3-7.1c-0.1-4.1,2.9-7.2,7.4-7.2   C1480,1050.8,1483,1053.9,1483.1,1058z M1468.4,1116.3v-45.6h14.2v45.6H1468.4z"/>
	<path fill="#fff" d="M1537.6,1070.7c-0.2,2.9-0.3,6.7-0.3,13.5v25.5c0,8.8-1.8,16-6.9,20.6c-5,4.3-11.9,5.6-18.5,5.6   c-5.9,0-12.3-1.3-16.5-3.5l2.7-10.7c2.9,1.7,7.9,3.4,13.3,3.4c6.7,0,11.9-3.7,11.9-12v-3h-0.2c-2.7,3.8-7.1,5.9-12.3,5.9   c-11.3,0-19.3-9.1-19.3-22.3c0-14.6,9.5-24,20.7-24c6.3,0,10.2,2.7,12.5,6.4h0.2l0.5-5.4L1537.6,1070.7L1537.6,1070.7z    M1523,1089.3c0-0.9-0.1-1.8-0.2-2.6c-1-3.8-3.8-6.3-7.7-6.3c-5.1,0-9.4,4.7-9.4,12.9c0,6.9,3.3,12.1,9.4,12.1   c3.7,0,6.5-2.4,7.4-5.8c0.3-1,0.5-2.5,0.5-3.8L1523,1089.3L1523,1089.3z"/>
	<path fill="#fff" d="M1548.5,1085.3c0-5.7-0.2-10.5-0.3-14.5h12.3l0.7,6.3h0.2c1.8-2.9,6.5-7.3,14.1-7.3   c9.4,0,16.4,6.2,16.4,19.6v27.1h-14.2v-25.3c0-5.8-2.1-9.9-7.2-9.9c-3.9,0-6.3,2.7-7.2,5.4c-0.3,0.8-0.6,2.3-0.6,3.5v26.3h-14.2   L1548.5,1085.3L1548.5,1085.3z"/>
	<path fill="#fff" d="M1662.6,1116.3c-1.3-1.4-2.6-2.7-4.1-4.5c-4.1,3.2-9.8,5.5-17.3,5.5c-15.2,0-22-9-22-17.8   c0-8.3,4.8-14.3,11.9-18.1v-0.3c-2.7-3-4.8-7.7-4.8-12.1c0-7.9,6.3-16.6,18.9-16.6c9.7,0,17,5.7,17,14.8c0,6.3-3.8,11.8-12.5,16.1   l-0.1,0.3c3.7,4,7.4,8.6,10.5,11.8c2.5-3.9,4.5-9.7,5.4-15.3h12.7c-1.7,9.5-4.8,17.6-10.4,23.9c3.5,4,7.2,8.1,11.1,12.3   L1662.6,1116.3L1662.6,1116.3z M1651.9,1104c-3.9-3.9-9-9.6-14.2-15.4c-2.6,1.8-4.9,4.6-4.9,8.7c0,5.4,4,9.9,10.4,9.9   C1647,1107.2,1650.1,1105.7,1651.9,1104z M1639.2,1067.7c0,3.2,1.5,5.9,4.3,9c4.6-3.2,6.9-5.6,6.9-9.3c0-3-1.8-6.3-5.5-6.3   C1641.3,1061.3,1639.2,1064.5,1639.2,1067.7z"/>
	<path fill="#fff" d="M1704.7,1054.4c3.8-0.8,11.3-1.3,18.4-1.3c8.7,0,14,0.8,18.5,3.5c4.3,2.3,7.5,6.6,7.5,12.3   c0,5.6-3.3,10.9-10.4,13.5v0.2c7.2,1.9,12.5,7.3,12.5,15.4c0,5.7-2.6,10.2-6.5,13.4c-4.6,3.7-12.2,5.7-24.7,5.7   c-7,0-12.2-0.5-15.4-0.9v-62H1704.7z M1718.8,1078.4h4.7c7.4,0,11.4-3.1,11.4-7.8c0-4.8-3.7-7.3-10.1-7.3c-3.1,0-4.8,0.2-6.1,0.3   L1718.8,1078.4L1718.8,1078.4z M1718.8,1106.3c1.4,0.2,3.1,0.2,5.5,0.2c6.4,0,12.1-2.4,12.1-9c0-6.3-5.7-8.9-12.8-8.9h-4.8   L1718.8,1106.3L1718.8,1106.3z"/>
	<path fill="#fff" d="M1803.6,1101.7c0,5.9,0.2,10.9,0.3,14.6h-12.3l-0.7-6.4h-0.2c-1.8,2.7-6.1,7.4-14.3,7.4   c-9.3,0-16-5.8-16-19.9v-26.8h14.3v24.6c0,6.6,2.2,10.6,7.1,10.6c3.9,0,6.2-2.7,7.1-4.9c0.3-0.8,0.5-1.9,0.5-3.1v-27.2h14.3V1101.7   z"/>
	<path fill="#fff" d="M1829.7,1058c0,3.9-3,7.1-7.7,7.1c-4.5,0-7.4-3.2-7.3-7.1c-0.1-4.1,2.9-7.2,7.4-7.2   C1826.6,1050.8,1829.6,1053.9,1829.7,1058z M1815,1116.3v-45.6h14.2v45.6H1815z"/>
	<path fill="#fff" d="M1840.6,1050.1h14.2v66.3h-14.2V1050.1z"/>
	<path fill="#fff" d="M1910.4,1050.1v52.6c0,5.1,0.2,10.5,0.3,13.6h-12.6l-0.7-6.7h-0.2c-2.9,5.1-8.3,7.8-14.3,7.8   c-10.9,0-19.6-9.3-19.6-23.4c-0.1-15.4,9.5-24.2,20.5-24.2c5.6,0,9.9,1.9,12,5.1h0.2v-24.7L1910.4,1050.1L1910.4,1050.1z    M1896.3,1090c0-0.8-0.1-1.8-0.2-2.5c-0.8-3.8-3.9-7-8.3-7c-6.4,0-9.8,5.8-9.8,12.9c0,7.8,3.8,12.6,9.7,12.6c4.1,0,7.3-2.7,8.2-6.9   c0.2-1,0.3-2.1,0.3-3.3v-5.8H1896.3z"/>
</g>
</svg>