<svg version="1.1" id="Layer_1" xmlns="http://www.w3.org/2000/svg" xmlns:xlink="http://www.w3.org/1999/xlink" x="0px" y="0px" viewBox="0 468 2000 1084" enable-background="new 0 468 2000 1084" xml:space="preserve">
<g>
	<g>
		<g>
			<path fill="#fff" d="M1545.2,578.9c31.4-18.7,77.2-5,91.5,29.1c4.3,11.1,0.6,22.2-3.9,32.7c-3.2,7.4-10.3,12.4-18.3,13.2h-0.1
				c1.9-11.3,3.8-22.5,5.6-33.7c2.1,0,6.3-0.2,8.4-0.3c-1.8-2.9-3.5-5.9-5.2-8.8c-1.9-3.2-6.6-2.9-8.2,0.5c-1.6,3.5-3.2,7-4.8,10.5
				c-2.7,5.9-3.3,12.5-1.9,18.8c0.9,4.1,1.8,8.1,2.7,12.2c-6.5-5.8-15.1-10.5-18.2-19.1c-3.9-10.5,0.8-21.3,3.4-31.5
				c-1.8-0.6-3.6-1.2-5.4-1.8c-7.2-2.4-15.1-2.2-22.1,0.7c-6.8,2.8-13.3,6.4-17.3,12.9c-9.2,26.8,1.7,55.5,22.7,73.4
				c-17.4,1.7-31.9,15-34.1,32.6c-2.1,19.3-3.9,41.6,9.2,57.6c11.3,15.9,27.4,27,43.3,37.8c3.7,1.1,11.1,3.3,14.8,4.4
				c-64.3,11.8-124-50.5-119.3-113.4C1488.9,659.7,1499,602.1,1545.2,578.9z M1503.4,737c5-10.7,10.9-21,17.7-30.7
				c-11.7-28.3-7.1-59.1-9.4-88.7C1502.8,656.5,1492.2,697.2,1503.4,737z"></path>
		</g>
		<g>
			<path fill="#fff" d="M1596.2,695.3c30.4-7.3,60.1,6,86.4,19.9c25.3,12.5,45,33.3,63.8,53.9c16.5,19.8,33.6,40.5,40.1,66.1
				c-25.2-16.9-53.8-31.3-84.7-32.2c-33.3,2.3-70.2,12.8-101.1-4.8c-15.6-8-25.1-22.5-34.1-37.1c-4.4-7.1-7.5-15-9.3-23.1
				c0-0.1,0-0.1,0-0.2c-1.1-5.4,0.1-11,3.5-15.4C1570,710.7,1581.4,699.1,1596.2,695.3z M1604.5,707.4c-11.6,0.4-22.7,6.4-28.3,16.7
				c-3.1,5.7-4.1,11.7,0.9,17.8c16.2,24,48.2,17.9,73,18.2c30.1-1.9,59.6,6.2,86.5,19.4c-24.5-27.8-53.2-53.3-88.6-65.9
				C1634.2,707.4,1619.4,706.9,1604.5,707.4z"></path>
		</g>
		<path fill="#fff" d="M643.3,751.1c22.8-6.9,52,8.8,50.2,34.8c-1.9,38.1-64.3,43.5-76.2,9C610.3,776,623.6,754,643.3,751.1z"></path>
		<path fill="#fff" d="M355.2,774.6c21.7,0,43.4,0,65.1-0.1c0,94.1,0,188.2,0,282.3c-21.7,0-43.3,0-65,0
			C355.2,962.8,355.3,868.7,355.2,774.6z"></path>
		<path fill="#fff" d="M88,787.3c21.3,0,42.6,0,63.9,0c0.1,47.9,0,95.7,0,143.5c0.4,16.7,0.1,34.8,9.8,49.3
			c13.1,19.2,41.3,22,61.2,12.7c19.1-9.9,24.4-32.8,24.1-52.6c0-51,0-102-0.1-153.1c21.6,0.2,43.2,0.1,64.9,0.1
			c-0.7,53.9,0.3,107.9-0.4,161.9c-0.5,33-13.7,67.1-40.5,87.4c-32.4,24.5-77.3,27.6-115.3,16c-40.1-12.5-65.5-53.6-66.9-94.4
			C87.3,901.4,88.8,844.4,88,787.3z"></path>
		<path fill="#fff" d="M480.3,792c21.6,0.1,43.2,0.1,64.9,0c-0.1,17.6-0.1,35.1,0,52.6c14,0,28,0,42,0c-0.1,18.2-0.1,36.3,0,54.5
			c-14.1,0-28.1,0-42.1,0c1,30-1.9,60.2,1.3,90.1c5.6,16.5,27.6,9.7,40.8,12c0,18.5,0,37,0,55.6c-27.3-0.1-57.6,2.4-80.9-14.4
			c-18.1-12.2-25.3-34.7-25.6-55.7c-0.6-29.2,0.2-58.4-0.1-87.6c-9.8,0-19.5-0.1-29.3-0.1c0-18.2,0.1-36.4,0-54.6
			c9.8,0.1,19.5,0.1,29.3,0.2C480.5,827.1,480.5,809.6,480.3,792z"></path>
		<path fill="#fff" d="M1409.8,792c21.6,0.1,43.2,0.1,64.9,0c-0.2,17.6-0.2,35.2-0.1,52.7c14,0,28,0,42,0
			c-0.1,18.2,0,36.3-0.1,54.5c-14,0-28,0-42,0c1.1,30.1-1.9,60.4,1.3,90.3c5.9,16.3,27.6,9.6,40.8,11.9c0,18.5,0,37,0,55.6
			c-27.4-0.2-57.8,2.5-81.2-14.5c-18-12.3-25-34.8-25.4-55.8c-0.6-29.2,0.2-58.5-0.1-87.7c-9.6,0.2-19.2,0.4-28.8,0.7
			c-0.5-18.4-0.5-36.7-0.5-55c9.8,0.1,19.5,0.1,29.3,0.1C1409.9,827.1,1409.9,809.6,1409.8,792z"></path>
		<path fill="#fff" d="M1711,828.9c3.2,0.7,9.6,2.1,12.8,2.8c51.2,17.7,106.3,34.6,143.8,76.1c15.5,16.3,25.5,37.1,28.3,59.5
			c-19-4.3-32.9-18.3-47-30.6c18.9,38.8,38.2,80.8,31.2,125.3c-5.1,24.6-8.7,52.5-28.6,70.2c-8.5,9.4-19.8,15.5-31.9,18.7
			c0.5-16.3,3.6-32.6,12.3-46.6c21.1-36.7,39.8-81.2,24.9-123.6c-6.5-16.5-12.2-33.3-14.2-51c-24-30.6-55.6-56.5-90.7-73.5
			c-12.6-6.4-25.4-12.2-38.3-17.9C1712.9,836,1711.6,831.2,1711,828.9z"></path>
		<path fill="#fff" d="M733.5,844.7c21.8,0,43.5,0,65.2-0.1c-0.1,11.5-0.3,23-0.7,34.6c18.8-32.3,59.9-45.4,94.6-33.3
			c19.7,5.3,33.3,21.3,44.2,37.6c10.5-13.8,22.3-27.5,38.7-34.4c33.9-15.1,79.5-7.3,101.6,24.1c14.9,20.7,16.7,47.1,17.2,71.7
			c0,37.3-0.1,74.6,0,111.9c-21.8,0-43.6,0-65.4,0c0-35.8,0-71.6,0.1-107.4c-0.4-12,0.2-25.1-6.9-35.4
			c-16.1-23.5-57.7-21.2-70.5,4.6c-5.7,10.9-4.9,23.5-5,35.4c0.3,34.3,0.1,68.5,0.2,102.8c-21.6,0-43.2,0-64.7,0.1
			c-0.4-39,0.6-78.1-0.3-117.1c-0.3-15.8-7.6-32.8-23.1-39c-16.7-5.6-38.2-3.7-49.8,10.8c-10.2,11.5-10.2,28-10.6,42.5
			c0.2,34.2,0.2,68.5,0.2,102.7c-21.7,0-43.4,0-65.1,0C733.6,986.2,733.6,915.5,733.5,844.7z"></path>
		<g>
			<path fill="#fff" d="M1162.7,859.1c25.5-19.6,62.7-23.9,91.4-8.9c13.5,6.8,22.4,19.4,31.1,31.2c-0.5-12.2-0.6-24.5-0.7-36.8
				c21.3,0,42.7,0,64,0c-0.2,70.7,0,141.4-0.1,212.1c-21.3,0-42.6,0-63.9,0c0.1-13,0.3-26,0.9-39c-8.5,13.6-18.4,27.4-33.6,34
				c-33.9,15.2-78.2,7-101.9-22.5c-23.4-28.4-28.5-67.5-23.5-103C1130.1,900.7,1141.8,875.2,1162.7,859.1z M1222,900.5
				c-31.8,9.5-37.8,50.8-25.8,77.6c12.9,28.5,56.4,32.7,76,9.2c15.1-18.4,16-46.1,5.1-66.8C1266.8,901.3,1242,894,1222,900.5z"></path>
		</g>
		<g>
			<path fill="#fff" d="M1559.8,882.6c40.9-57.5,142.5-55.1,179.1,6c13.5,21.8,15,48.2,13.6,73.1c-50,0.6-99.9,0-149.9,0.3
				c2.6,16.5,7.1,36.5,25.1,42.4c21.6,9.7,46.2-2.3,55.3-23.3c22.6-0.3,45.2-0.3,67.8,0c-7.4,26.1-22.7,51.1-47.4,63.9
				c-45.3,25.1-110.7,17.7-142.4-25.7C1533.3,980,1533,922.6,1559.8,882.6z M1622.9,899c-12.9,6.9-16,22.2-20.3,34.8
				c28.7,0.7,57.5,0.5,86.3,0.3c-2.2-8.4-3.3-17.4-7.6-25C1668.7,890.7,1641.2,888.7,1622.9,899z"></path>
		</g>
		<path fill="#fff" d="M621.5,844.7c21.7,0,43.3,0,65-0.1c0,70.8,0,141.5,0,212.3c-21.7,0-43.4,0-65.1,0
			C621.5,986.2,621.5,915.4,621.5,844.7z"></path>
		<path fill="#fff" d="M1745.5,859.8c50.6,23.4,98,73.5,93.8,132.9c-9.7-3.2-20.2-5.9-27.4-13.7c-19.4-19.5-24.7-47.5-35.4-71.8
			C1769.4,889.4,1756.2,875.3,1745.5,859.8z"></path>
		<path fill="#fff" d="M1877.9,978.6c26.6,15.1,58.8,15.3,84.5,32.2c-3.3,1.6-6.7,3.3-10,4.9c-8.5,4.1-18.4,4.6-27.1,0.9
			C1906.4,1008.6,1889.5,996.1,1877.9,978.6z"></path>
		<path fill="#fff" d="M1776.6,1085.6c32-23.9,56.7-56.6,73.5-92.7c-2.8,43.6-20,85.5-45.3,120.8c-18.7,26.8-48.9,41.1-73.7,61.3
			c0.2-15.3-2.3-31.9,5.6-45.9C1745.5,1111,1760.8,1097.3,1776.6,1085.6z"></path>
		<path fill="#fff" d="M1771.6,1036.1c19.7,0.4,36.3-11.9,54.5-17.7c-16.4,19.2-33.9,40.9-59.2,48c-11.1,3.4-21.8-2.1-32-6.4
			c-2.3-1-3.7-3.3-3.5-5.8v-0.1c0.4-5,3.4-9.5,8-11.5C1749.6,1038.2,1760.4,1035.7,1771.6,1036.1z"></path>
		<path fill="#fff" d="M1892.8,1013.4c26.2,33.7,34.6,79.8,19.5,120c-1.8-2.4-3.7-4.8-5.5-7.3c-8.3-10.9-12.4-24.5-11.3-38.2
			c0.5-5.8,1.2-11.5,1.6-17.2C1899.4,1051.5,1894.3,1032.4,1892.8,1013.4z"></path>
		<path fill="#fff" d="M544.9,1087.4c22.8-6.9,52.1,8.5,50.6,34.5c-1.7,36.5-59.3,43.7-74.6,13
			C510.8,1115.9,523.7,1090.6,544.9,1087.4z"></path>
		<path fill="#fff" d="M635.4,1110.9c21.7,0,43.4,0,65.1-0.1c-0.1,94.1,0,188.2,0,282.3c-21.7,0-43.3,0-65,0
			C635.4,1299,635.5,1204.9,635.4,1110.9z"></path>
		<path fill="#fff" d="M1261.3,1110.9c21.7,0,43.3,0,65-0.1c0,51.7-0.1,103.5,0.1,155.2c21.6-28,42.4-56.7,63.5-85
			c25.5,0.1,51,0.1,76.5-0.1c-28.6,35.3-57.3,70.5-85.6,106.1c29.7,35.1,58.5,70.9,87.9,106.2c-26.2,0-52.4,0.1-78.5-0.1
			c-21.1-30.5-42.5-60.7-63.9-90.9c-0.2,30.3-0.1,60.7-0.1,91c-21.7,0-43.3,0-65,0C1261.3,1299,1261.3,1205,1261.3,1110.9z"></path>
		<path fill="#fff" d="M124.8,1166.5c11.7-27,40.4-42.2,68.5-45.7c34.8-4.5,74.7,0.6,100.2,27.1c13.7,13.5,18.6,32.7,23,50.8
			c-23.2,0.2-46.5,0.1-69.7,0.1c-5.2-9.5-8.4-22.4-19.7-26.5c-11.8-4.7-28-3.1-35.6,8c-7,12.3-2.6,29.4,10.1,36.1
			c30.2,18.1,68.2,20.9,95.3,44.7c32.7,28.1,31,85.4-2.4,112.4c-31.5,26.7-77.8,26.2-115.4,14.7c-33.8-10.4-57.5-41.5-60.6-76.5
			c22.8,0,45.6,0,68.4,0.1c4.9,10.8,8.2,24.5,20.4,29.4c15.7,8.1,41.9,2.7,43.3-18c3.2-18.1-14.2-29.4-28.7-34.7
			c-27.7-11.9-59.4-17.4-82.2-38.4C117.2,1229.3,113.4,1194,124.8,1166.5z"></path>
		<path fill="#fff" d="M359.9,1181c21.7,0,43.4,0,65.1-0.1c-0.1,12.8-0.1,25.7-0.3,38.6c17.5-23.9,43.8-40.4,73.6-42.6
			c0.1,23.8,0,47.5,0.1,71.3c-20.3,0.6-43.9-2.8-60.4,11.9c-12.6,10.9-12.8,28.9-13.2,44.3c0,29.6,0.2,59.2,0.1,88.8
			c-21.7,0-43.3,0-65.1,0C360,1322.4,360,1251.7,359.9,1181z"></path>
		<g>
			<path fill="#fff" d="M763,1201.8c25.4-24.9,67.3-31.9,99-15.1c13.4,6.7,22.2,19.3,30.9,31.1c-0.4-12.2-0.7-24.5-0.7-36.8
				c21.3,0,42.6,0,64,0c-0.1,70.7,0,141.4,0,212.1c-21.3,0-42.6,0-63.9,0c0.1-13,0.2-26,0.7-39c-8.4,13.5-18.1,27.2-33.1,33.8
				c-32,14.4-73.5,8.4-98-17.7c-21.3-22.4-30.2-54.2-29.4-84.6C732.2,1255.5,740.9,1223.5,763,1201.8z M829.7,1236.8
				c-31.9,9.3-37.8,50.8-25.9,77.5c12.9,28.5,56.6,32.8,76.1,9.1c15.1-18.4,15.9-46.1,5-66.7
				C874.5,1237.6,849.8,1230.2,829.7,1236.8z"></path>
		</g>
		<path fill="#fff" d="M1105.5,1184.8c30-12.6,69-8.2,91.5,16.7c16.1,17.6,22,42.1,21.9,65.4c0.1,42-0.1,84.1,0,126.1
			c-21.7,0-43.4,0-65.1,0c0-35.7,0-71.5,0.2-107.3c-0.4-12.9,0.6-27.2-7.7-38.1c-15.6-23.1-55.2-21.3-69.5,2.2
			c-7.2,12-7.3,26.7-7.6,40.4c0.1,34.2,0.1,68.5,0.2,102.8c-21.7,0-43.4,0-65.1,0c0-70.7,0-141.4,0-212.1c21.7,0,43.4,0,65.2-0.1
			c0,12.5-0.1,25-0.3,37.6C1079,1205.1,1089.6,1191.1,1105.5,1184.8z"></path>
		<g>
			<path fill="#fff" d="M1510.2,1201.9c25.4-25,67.3-31.9,99-15.3c13.5,6.8,22.3,19.3,31,31.2c-0.5-12.3-0.7-24.5-0.7-36.8
				c21.3,0,42.6,0,64,0c-0.1,70.7,0,141.4,0,212.1c-21.3,0-42.6,0-63.9,0c0.1-13,0.2-26,0.7-39c-8.4,13.5-18.2,27.3-33.3,33.9
				c-31.9,14.2-73.2,8.2-97.6-17.6c-21.4-22.5-30.4-54.4-29.5-84.9C1479.4,1255.4,1488.2,1223.5,1510.2,1201.9z M1577.1,1236.7
				c-32,9.3-38,50.9-26,77.7c12.9,28.3,56.4,32.6,75.9,9.1c15.2-18.4,16.1-46.1,5.2-66.8C1621.8,1237.7,1597.1,1230.2,1577.1,1236.7
				z"></path>
		</g>
		<path fill="#fff" d="M523.4,1181c21.7,0,43.4,0,65.1-0.1c0,70.7,0,141.5,0,212.2c-21.7,0-43.3,0-65,0
			C523.3,1322.4,523.5,1251.7,523.4,1181z"></path>
	</g>
	<polygon fill="#fff" points="1608.6,650.2 1617,676.6 1615.8,652.9 	"></polygon>
	<path fill="#fff" d="M1646.7,526.8c-2.8,9.3-10.5,29.8-28.3,44.4c0,0,23.4-5.1,40.1-35.8c0,0,7.8-23.1-4.3-17.7
		C1650.5,519.4,1647.8,522.8,1646.7,526.8z"></path>
	<path fill="#fff" d="M1661,541.4c0,0-15.9,24.1-37.3,32.7c0,0,29-1.4,46.8-20.8c1.4-1.6,2.3-3.6,2.6-5.7
		C1674,541.6,1674.1,530.8,1661,541.4z"></path>
	<path fill="#fff" d="M1624,576.6c0,0,21,1.7,32.5-5.9c1.4-0.9,2.9-1.5,4.5-1.5c6.1,0,19.7,1,5.5,11.6c-1.6,1.2-3.5,2.1-5.4,2.4
		C1655,584.3,1640,585.7,1624,576.6z"></path>
	<path fill="#fff" d="M1609.6,560.5c0,0-5.4-19.5,0-30.9c0,0,10.1-12.6,10.5,12.3c0,0,3.9,1.2,7.4-11.7c0,0,8-13.4,10.1,0.4
		c0,0-5.3,22.8-23.4,39.6C1614.3,570.1,1610.1,562.3,1609.6,560.5z"></path>
	<g>
		<path fill="#fff" d="M634.2,1433c3.2-0.6,9.1-1.1,14.8-1.1c7.5,0,12.1,0.9,15.9,3.5c3.5,2,5.8,5.6,5.8,10.2
			c0,5-3.2,9.6-9.2,11.8v0.2c5.9,1.5,11.2,6,11.2,13.5c0,4.8-2.1,8.6-5.4,11.2c-4,3.4-10.5,5.1-20.6,5.1c-5.6,0-9.9-0.4-12.5-0.7
			V1433z M644.2,1454.4h5.2c7,0,11-3.2,11-7.8c0-5.1-4-7.4-10.4-7.4c-3,0-4.7,0.2-5.8,0.4V1454.4z M644.2,1479.5
			c1.3,0.2,3.1,0.2,5.4,0.2c6.5,0,12.3-2.4,12.3-9.1c0-6.3-5.6-8.9-12.6-8.9h-5v17.8H644.2z"></path>
		<path fill="#fff" d="M712.9,1462.5h-21v16h23.5v8.2h-33.6v-54.4h32.4v8.2H692v14h21L712.9,1462.5L712.9,1462.5L712.9,1462.5z"></path>
		<path fill="#fff" d="M724,1475.8c3.3,1.9,8.3,3.5,13.5,3.5c6.5,0,10.2-3,10.2-7.4c0-4.1-2.8-6.5-9.9-9c-9.2-3.2-15-8-15-15.8
			c0-8.9,7.6-15.7,19.7-15.7c6,0,10.5,1.3,13.4,2.7l-2.5,8c-2-1-5.9-2.6-11.1-2.6c-6.4,0-9.2,3.4-9.2,6.5c0,4.2,3.2,6.1,10.7,9
			c9.7,3.6,14.4,8.3,14.4,16.2c0,8.7-6.8,16.3-21.1,16.3c-5.9,0-12-1.6-15-3.4L724,1475.8z"></path>
		<path fill="#fff" d="M777.8,1440.6h-15.9v-8.3h42v8.3h-16v46.1h-10.2v-46.1H777.8z"></path>
		<path fill="#fff" d="M834.9,1440.6H819v-8.3h42v8.3h-16v46.1h-10.2v-46.1H834.9z"></path>
		<path fill="#fff" d="M877.7,1432.2v54.4h-10.2v-54.4H877.7z"></path>
		<path fill="#fff" d="M936.4,1464.5c-0.3-7-0.7-15.5-0.7-22.9h-0.2c-1.8,6.6-4.1,14-6.6,20.8l-8.1,23.6H913l-7.4-23.3
			c-2.1-6.9-4.1-14.4-5.6-21.2h-0.2c-0.2,7.1-0.6,15.7-1,23.2l-1.2,21.9H888l3.7-54.4h13.4l7.3,21.9c2,6.4,3.7,12.8,5.1,18.9h0.2
			c1.5-5.9,3.4-12.6,5.5-19l7.7-21.8h13.2l3.2,54.4h-9.9L936.4,1464.5z"></path>
		<path fill="#fff" d="M988.8,1462.5h-21v16h23.5v8.2h-33.6v-54.4H990v8.2h-22.2v14h21V1462.5z"></path>
		<path fill="#fff" d="M1024.6,1440.6h-15.9v-8.3h42v8.3h-16v46.1h-10.2L1024.6,1440.6L1024.6,1440.6z"></path>
		<path fill="#fff" d="M1104.4,1458.9c0,18.2-11.3,28.7-26.7,28.7c-15.7,0-25.6-11.7-25.6-27.7c0-16.7,10.7-28.5,26.4-28.5
			C1094.8,1431.3,1104.4,1443.4,1104.4,1458.9z M1062.9,1459.7c0,11.1,5.7,19.9,15.4,19.9c9.8,0,15.4-8.9,15.4-20.3
			c0-10.3-5.2-19.9-15.4-19.9C1068.2,1439.3,1062.9,1448.5,1062.9,1459.7z"></path>
		<path fill="#fff" d="M1140,1486.7l-18-54.4h11.1l7.6,24.7c2.1,6.9,4,13.2,5.5,19.9h0.2c1.5-6.5,3.5-13.1,5.7-19.7l8.1-24.9
			h10.8l-19.2,54.4H1140z"></path>
		<path fill="#fff" d="M1187,1432.2v54.4h-10.2v-54.4H1187z"></path>
		<path fill="#fff" d="M1198.4,1475.8c3.3,1.9,8.3,3.5,13.5,3.5c6.5,0,10.2-3,10.2-7.4c0-4.1-2.8-6.5-9.9-9
			c-9.2-3.2-15-8-15-15.8c0-8.9,7.6-15.7,19.7-15.7c6,0,10.5,1.3,13.4,2.7l-2.5,8c-2-1-5.9-2.6-11.1-2.6c-6.4,0-9.3,3.4-9.3,6.5
			c0,4.2,3.2,6.1,10.7,9c9.7,3.6,14.4,8.3,14.4,16.2c0,8.7-6.8,16.3-21.1,16.3c-5.9,0-12-1.6-15-3.4L1198.4,1475.8z"></path>
		<path fill="#fff" d="M1251.7,1432.2v54.4h-10.2v-54.4H1251.7z"></path>
		<path fill="#fff" d="M1274,1440.6h-15.9v-8.3h42v8.3h-16v46.1H1274V1440.6z"></path>
		<path fill="#fff" d="M1323.5,1475.8c3.3,1.9,8.3,3.5,13.5,3.5c6.5,0,10.2-3,10.2-7.4c0-4.1-2.8-6.5-9.9-9
			c-9.2-3.2-15-8-15-15.8c0-8.9,7.6-15.7,19.7-15.7c6,0,10.5,1.3,13.4,2.7l-2.5,8c-2-1-5.9-2.6-11.1-2.6c-6.4,0-9.3,3.4-9.3,6.5
			c0,4.2,3.2,6.1,10.7,9c9.7,3.6,14.4,8.3,14.4,16.2c0,8.7-6.8,16.3-21.1,16.3c-5.9,0-12-1.6-15-3.4L1323.5,1475.8z"></path>
		<path fill="#fff" d="M1366.6,1433c3.8-0.6,9.5-1.1,15.4-1.1c8,0,13.5,1.3,17.2,4.4c3.1,2.5,4.8,6.3,4.8,10.9
			c0,7-4.9,11.8-10.1,13.6v0.2c4,1.5,6.4,5.2,7.8,10.5c1.7,6.8,3.2,13.1,4.4,15.2h-10.5c-0.8-1.6-2.1-6.1-3.7-12.8
			c-1.6-7.1-4.2-9.4-10-9.5h-5.1v22.4h-10.1V1433H1366.6z M1376.7,1457h6c6.9,0,11.2-3.6,11.2-9c0-6-4.3-8.7-10.9-8.7
			c-3.2,0-5.3,0.2-6.3,0.5L1376.7,1457L1376.7,1457z"></path>
		<path fill="#fff" d="M1423.8,1432.2v54.4h-10.2v-54.4H1423.8z"></path>
		<path fill="#fff" d="M1452.5,1432.2h10.2v46.1h22.9v8.3h-33L1452.5,1432.2L1452.5,1432.2z"></path>
		<path fill="#fff" d="M1504.7,1471.2l-4.8,15.4h-10.5l17.8-54.4h13l18.1,54.4h-10.9l-5-15.4H1504.7z M1520.6,1463.7l-4.4-13.4
			c-1.1-3.3-2-7-2.8-10.2h-0.2c-0.8,3.1-1.7,6.9-2.6,10.2l-4.3,13.4H1520.6z"></path>
		<path fill="#fff" d="M1546.1,1486.7v-54.4h11.6l14.4,23.3c3.7,6.1,6.9,12.4,9.5,18.2h0.2c-0.7-7.3-0.9-14.3-0.9-22.6v-19h9.4
			v54.4h-10.5l-14.5-23.9c-3.6-6-7.3-12.7-10-18.8l-0.2,0.1c0.4,7,0.5,14.2,0.5,23.2v19.5L1546.1,1486.7L1546.1,1486.7z"></path>
		<path fill="#fff" d="M1601.9,1432.2h10.1v25h0.2c1.3-2.1,2.7-4,4-5.9l14.5-19.1h12.6l-19.2,23.2l20.4,31.2h-11.9l-15.8-24.9
			l-5,5.8v19.1h-10.1v-54.4L1601.9,1432.2L1601.9,1432.2z"></path>
		<path fill="#fff" d="M1662.1,1471.2l-4.8,15.4h-10.5l17.8-54.4h13l18.1,54.4h-10.9l-5-15.4H1662.1z M1678,1463.7l-4.4-13.4
			c-1.1-3.3-2-7-2.8-10.2h-0.2c-0.8,3.1-1.7,6.9-2.6,10.2l-4.3,13.4H1678z"></path>
	</g>
</g>
</svg>