<?xml version="1.0" encoding="UTF-8"?>
<!-- Generator: Adobe Illustrator 18.0.0, SVG Export Plug-In . SVG Version: 6.00 Build 0)  -->
<!DOCTYPE svg PUBLIC "-//W3C//DTD SVG 1.1//EN" "http://www.w3.org/Graphics/SVG/1.1/DTD/svg11.dtd">
<svg version="1.1" id="Layer_1" xmlns="http://www.w3.org/2000/svg" xmlns:xlink="http://www.w3.org/1999/xlink" x="0px" y="0px" viewBox="0 744 2000 648" enable-background="new 0 744 2000 648" xml:space="preserve">
<rect x="28.4" y="1167.1" fill="#A0A0A0" width="1942.7" height="175.3"/>
<g>
	<path fill="#fff" d="M82.7,911.6h89.4l38.7,130.4l48.9-130.4h83.6l51,130.7l38.9-130.7h88.9l-88.9,207.1H351l-48.9-124.6   l-47.2,124.6h-82.7L82.7,911.6z"/>
	<path fill="#fff" d="M556.9,832.8h92.5v105.3c12.6-11.2,25.1-19.2,37.5-24s27.1-7.2,44.1-7.2c25.1,0,44.9,6.6,59.4,19.7   s21.7,33.3,21.7,60.5v131.7h-92.9v-113.9c0-13-2.8-22.2-8.4-27.6c-5.6-5.4-13.5-8.1-23.6-8.1c-11.2,0-20.3,3.6-27.3,10.9   s-10.5,20.3-10.5,39.2v99.5h-92.5V832.8z"/>
	<path fill="#fff" d="M870.6,832.8h92.5v54h-92.5V832.8z M870.6,911.6h92.5v207.1h-92.5V911.6z"/>
	<path fill="#fff" d="M1133.7,845.9v65.7h50.9v58.1h-50.9v73.4c0,8.8,1,14.7,3,17.5c3,4.4,8.3,6.6,15.9,6.6   c6.8,0,16.4-1.7,28.6-5.1l6.8,54.8c-22.9,4.3-44.2,6.4-64.1,6.4c-23,0-40-2.5-50.9-7.6s-19-12.8-24.2-23.1   c-5.2-10.3-7.8-27-7.8-50.2v-72.8h-34.1v-58h34.1v-65.7H1133.7z"/>
	<path fill="#fff" d="M1496.5,1034.9h-185.4c1.7,12.7,5.7,22.2,12,28.5c8.9,9,20.6,13.5,35,13.5c9.1,0,17.7-2,25.9-5.8   c5-2.5,10.4-6.8,16.1-13.1l91.1,7.2c-13.9,20.8-30.8,35.7-50.4,44.8c-19.7,9-47.9,13.6-84.7,13.6c-31.9,0-57.1-3.9-75.4-11.6   s-33.5-20-45.5-36.9c-12-16.8-18.1-36.6-18.1-59.4c0-32.4,12.1-58.6,36.2-78.6c24.2-20,57.5-30,100.1-30c34.5,0,61.8,4.5,81.8,13.5   s35.2,22,45.7,39s15.7,39.2,15.7,66.5L1496.5,1034.9L1496.5,1034.9z M1402.5,996.9c-1.8-15.3-6.6-26.3-14.4-33   c-7.8-6.6-18.1-9.9-30.8-9.9c-14.7,0-26.4,5-35.2,15c-5.6,6.2-9.2,15.5-10.7,27.9H1402.5z"/>
	<path fill="#fff" d="M1527,828h98.8v65.3c0,24.1-5.8,43.1-17.5,57.1s-31.6,26.2-59.8,36.8l-21.6-34.7c17.6-7,29.6-14,36.2-21   s10.3-15.2,11-24.7H1527V828z"/>
	<path fill="#fff" d="M1639.9,1061.2l91.8-7.4c3.8,9.4,9.1,16.1,15.9,20.1s15.9,6,27.3,6c12.4,0,22-2.3,28.9-6.8   c5.3-3.4,8-7.6,8-12.7c0-5.7-3.5-10.1-10.5-13.2c-5-2.2-18.3-4.9-39.8-8.2c-32.1-4.8-54.4-9.2-66.9-13.3c-12.5-4.1-23-11-31.6-20.8   c-8.6-9.7-12.8-20.8-12.8-33.3c0-13.6,4.6-25.4,13.9-35.3c9.2-9.9,22-17.2,38.2-22.1s37.9-7.3,65.2-7.3c28.8,0,50,1.9,63.7,5.7   c13.7,3.8,25.1,9.6,34.3,17.6c9.2,7.9,16.8,18.7,22.8,32.2l-87.7,7.4c-2.3-6.6-6.1-11.5-11.4-14.6c-7.3-4.2-16.1-6.2-26.4-6.2   c-10.4,0-18.1,1.6-22.8,4.8c-4.8,3.2-7.2,7-7.2,11.6c0,5.1,3,8.9,9.1,11.5s19.2,4.9,39.5,7c30.8,3,53.6,7.1,68.6,12.5   c15,5.3,26.5,12.9,34.4,22.8c8,9.9,11.9,20.7,11.9,32.5c0,12-4.2,23.6-12.6,34.9s-21.7,20.3-39.8,27c-18.1,6.7-42.8,10-73.9,10   c-44.1,0-75.5-5.4-94.2-16.2C1657.2,1096.5,1645.2,1081.1,1639.9,1061.2z"/>
</g>
<g>
	<path fill="#fff" d="M87.3,1292.6v-58H73.5v-8.8h13.8v-7.1c0-4.5,0.6-7.8,1.7-10c1.5-2.9,4.1-5.3,7.9-7.1   c3.8-1.8,9.1-2.7,15.9-2.7c4.4,0,9.2,0.4,14.6,1.1l-2.3,9.9c-3.2-0.4-6.3-0.6-9.2-0.6c-4.7,0-8.1,0.7-10,2.2   c-2,1.5-2.9,4.2-2.9,8.2v6.2h17.9v8.8H103v58L87.3,1292.6L87.3,1292.6z"/>
	<path fill="#fff" d="M130.6,1259.2c0-12.4,4.7-21.5,14.2-27.5c7.9-4.9,17.5-7.4,28.9-7.4c12.6,0,23,3,31,9s12,14.3,12,24.9   c0,8.6-1.8,15.4-5.3,20.3c-3.6,4.9-8.7,8.7-15.5,11.5c-6.8,2.7-14.2,4.1-22.2,4.1c-12.9,0-23.3-3-31.2-9S130.6,1270.5,130.6,1259.2   z M146.6,1259.2c0,8.6,2.6,15,7.7,19.2c5.1,4.3,11.6,6.4,19.4,6.4c7.7,0,14.2-2.1,19.3-6.4s7.7-10.8,7.7-19.6   c0-8.3-2.6-14.5-7.8-18.8s-11.6-6.4-19.3-6.4c-7.8,0-14.3,2.1-19.4,6.4C149.2,1244.3,146.6,1250.7,146.6,1259.2z"/>
	<path fill="#fff" d="M232.8,1259.2c0-12.4,4.7-21.5,14.2-27.5c7.9-4.9,17.5-7.4,28.9-7.4c12.6,0,23,3,31,9s12,14.3,12,24.9   c0,8.6-1.8,15.4-5.3,20.3c-3.6,4.9-8.7,8.7-15.5,11.5c-6.8,2.7-14.2,4.1-22.2,4.1c-12.9,0-23.3-3-31.2-9S232.8,1270.5,232.8,1259.2   z M248.8,1259.2c0,8.6,2.6,15,7.7,19.2c5.1,4.3,11.6,6.4,19.4,6.4c7.7,0,14.2-2.1,19.3-6.4c5.1-4.3,7.7-10.8,7.7-19.6   c0-8.3-2.6-14.5-7.7-18.8c-5.2-4.3-11.6-6.4-19.3-6.4c-7.8,0-14.3,2.1-19.4,6.4S248.8,1250.7,248.8,1259.2z"/>
	<path fill="#fff" d="M400.4,1292.6v-8.4c-5.8,6.6-14.4,9.9-25.7,9.9c-7.3,0-14.1-1.5-20.2-4.4c-6.2-2.9-10.9-7-14.3-12.3   s-5.1-11.3-5.1-18.2c0-6.7,1.5-12.7,4.6-18.2c3.1-5.4,7.6-9.6,13.8-12.5c6.1-2.9,13-4.3,20.5-4.3c5.5,0,10.5,0.8,14.8,2.5   s7.8,3.9,10.6,6.6v-33.1h15.5v92.2h-14.5V1292.6z M351.2,1259.3c0,8.6,2.5,14.9,7.4,19.2c5,4.2,10.8,6.4,17.6,6.4   c6.8,0,12.6-2,17.4-6.1c4.8-4,7.1-10.2,7.1-18.5c0-9.1-2.4-15.9-7.3-20.1c-4.9-4.3-10.8-6.4-17.9-6.4c-6.9,0-12.7,2.1-17.4,6.2   C353.5,1244,351.2,1250.4,351.2,1259.3z"/>
	<path fill="#fff" d="M436.7,1272.7l15.4-1.8c0.9,4.5,3.3,7.9,7.2,10.3c4,2.4,9.5,3.6,16.6,3.6c7.2,0,12.5-1.1,15.9-3.2   c3.5-2.1,5.2-4.6,5.2-7.5c0-2.6-1.5-4.6-4.6-6c-2.1-1-7.4-2.3-15.9-3.8c-11.4-2.1-19.3-3.9-23.8-5.4c-4.4-1.5-7.8-3.6-10.1-6.4   c-2.3-2.7-3.4-5.7-3.4-9c0-3,0.9-5.7,2.8-8.3c1.9-2.5,4.4-4.6,7.7-6.3c2.4-1.3,5.7-2.4,9.9-3.3c4.2-0.9,8.7-1.4,13.5-1.4   c7.2,0,13.6,0.8,19,2.3c5.5,1.5,9.5,3.6,12.1,6.1c2.6,2.6,4.4,6,5.4,10.4l-15.2,1.5c-0.7-3.4-2.7-6.1-6-8.1   c-3.3-1.9-8-2.9-14.1-2.9c-7.2,0-12.3,0.9-15.3,2.6c-3.1,1.7-4.6,3.7-4.6,6c0,1.5,0.6,2.8,1.9,4s3.3,2.2,6,3   c1.6,0.4,6.1,1.4,13.8,2.9c11,2.1,18.7,3.9,23.1,5.2c4.4,1.4,7.8,3.3,10.3,5.9s3.7,5.8,3.7,9.7c0,3.8-1.5,7.3-4.6,10.7   c-3,3.3-7.4,5.9-13.1,7.7c-5.7,1.8-12.2,2.7-19.4,2.7c-12,0-21.1-1.8-27.3-5.4C442.5,1285.1,438.5,1279.8,436.7,1272.7z"/>
	<path fill="#fff" d="M598.1,1271.1l16.1,1.5c-2.5,6.8-7.2,12.1-14.1,15.9c-6.9,3.8-15.6,5.7-26.3,5.7c-13.5,0-24.1-3-32-9   s-11.8-14.5-11.8-25.3c0-11.2,4-20,12-26.2s18.3-9.3,31-9.3c12.3,0,22.3,3,30.1,9.1s11.7,14.6,11.7,25.7c0,0.7,0,1.7-0.1,3h-68.6   c0.6,7.3,3.4,13,8.6,16.9c5.1,3.9,11.5,5.8,19.2,5.8c5.7,0,10.6-1.1,14.6-3.3C592.6,1279.4,595.8,1275.9,598.1,1271.1z M547,1252.8   h51.4c-0.7-5.6-2.7-9.8-5.9-12.6c-5-4.4-11.4-6.5-19.3-6.5c-7.2,0-13.2,1.7-18.1,5.2C550.2,1242.3,547.5,1247,547,1252.8z"/>
	<path fill="#fff" d="M637.2,1292.6v-66.8h14v10.1c3.6-4.7,6.9-7.9,9.9-9.4s6.4-2.3,10-2.3c5.3,0,10.6,1.2,16,3.7l-5.4,10.5   c-3.8-1.6-7.6-2.4-11.4-2.4c-3.4,0-6.5,0.7-9.2,2.2s-4.6,3.6-5.8,6.2c-1.7,4-2.6,8.4-2.6,13.2v35L637.2,1292.6L637.2,1292.6z"/>
	<path fill="#fff" d="M725.5,1292.6l-35-66.8H707l19.7,40c2.1,4.3,4.1,8.8,5.9,13.5c1.4-3.5,3.3-7.8,5.8-12.7l20.4-40.8h16   l-34.8,66.8H725.5z"/>
	<path fill="#fff" d="M792.3,1213.4v-13h15.6v13H792.3z M792.3,1292.6v-66.8h15.6v66.8H792.3z"/>
	<path fill="#fff" d="M895.2,1268.1l15.3,1.4c-1.7,7.7-6,13.7-12.9,18s-15.4,6.5-25.4,6.5c-12.6,0-22.7-3-30.4-9   s-11.5-14.5-11.5-25.7c0-7.2,1.6-13.5,4.9-18.9c3.3-5.4,8.3-9.5,15-12.2s14-4.1,22-4.1c10,0,18.2,1.8,24.5,5.5s10.4,8.9,12.2,15.6   l-15.2,1.7c-1.4-4.5-4-7.9-7.7-10.1c-3.7-2.3-8.1-3.4-13.3-3.4c-7.9,0-14.2,2-19.1,6.1c-4.9,4.1-7.4,10.6-7.4,19.4   c0,9,2.4,15.5,7.1,19.6c4.7,4.1,10.9,6.1,18.5,6.1c6.1,0,11.2-1.4,15.3-4.1C891.5,1278,894.1,1273.8,895.2,1268.1z"/>
	<path fill="#fff" d="M990.3,1271.1l16.1,1.5c-2.5,6.8-7.2,12.1-14.1,15.9c-6.9,3.8-15.6,5.7-26.3,5.7c-13.5,0-24.1-3-32-9   s-11.8-14.5-11.8-25.3c0-11.2,4-20,11.9-26.2c8-6.2,18.3-9.3,31-9.3c12.3,0,22.3,3,30.1,9.1s11.7,14.6,11.7,25.7c0,0.7,0,1.7-0.1,3   h-68.6c0.6,7.3,3.4,13,8.6,16.9c5.1,3.9,11.5,5.8,19.2,5.8c5.7,0,10.6-1.1,14.6-3.3C984.8,1279.4,988,1275.9,990.3,1271.1z    M939.2,1252.8h51.4c-0.7-5.6-2.7-9.8-5.9-12.6c-5-4.4-11.4-6.5-19.3-6.5c-7.2,0-13.2,1.7-18.1,5.2   C942.4,1242.3,939.7,1247,939.2,1252.8z"/>
	<path fill="#fff" d="M1145.3,1271.1l16.1,1.5c-2.6,6.8-7.3,12.1-14.1,15.9c-6.9,3.8-15.7,5.7-26.3,5.7c-13.4,0-24.1-3-32-9   s-11.8-14.5-11.8-25.3c0-11.2,4-20,11.9-26.2c8-6.2,18.3-9.3,31-9.3c12.3,0,22.3,3,30.1,9.1c7.8,6.1,11.7,14.6,11.7,25.7   c0,0.7,0,1.7-0.1,3h-68.6c0.6,7.3,3.4,13,8.6,16.9c5.1,3.9,11.5,5.8,19.2,5.8c5.7,0,10.6-1.1,14.7-3.3   C1139.8,1279.4,1143,1275.9,1145.3,1271.1z M1094.2,1252.8h51.4c-0.7-5.6-2.7-9.8-5.9-12.6c-5-4.4-11.4-6.5-19.3-6.5   c-7.2,0-13.2,1.7-18.1,5.2C1097.4,1242.3,1094.7,1247,1094.2,1252.8z"/>
	<path fill="#fff" d="M1243.2,1318.2v-32.7c-2.4,2.5-5.8,4.5-10.2,6.2c-4.4,1.6-9,2.4-13.9,2.4c-10.9,0-20.3-3.2-28.2-9.5   c-7.9-6.3-11.8-15-11.8-26c0-6.7,1.6-12.7,4.8-18.1c3.2-5.3,7.9-9.4,14-12.1s12.8-4.1,20-4.1c11.4,0,20.3,3.5,26.8,10.4v-8.9h14   v92.4L1243.2,1318.2L1243.2,1318.2z M1195.1,1259c0,8.6,2.5,15,7.4,19.3c5,4.3,10.9,6.4,17.8,6.4c6.6,0,12.4-2,17.1-6.1   c4.8-4.1,7.2-10.3,7.2-18.7c0-8.9-2.5-15.6-7.6-20.1s-11-6.7-17.8-6.7c-6.7,0-12.5,2.1-17.2,6.3   C1197.5,1243.7,1195.1,1250.2,1195.1,1259z"/>
	<path fill="#fff" d="M1347,1292.6v-9.8c-7.2,7.6-16.9,11.3-29.2,11.3c-5.4,0-10.5-0.8-15.2-2.3s-8.2-3.4-10.5-5.7   c-2.3-2.3-3.9-5.1-4.8-8.4c-0.6-2.2-0.9-5.7-0.9-10.6v-41.4h15.6v37.1c0,5.9,0.3,9.9,0.9,12c1,3,3.1,5.3,6.2,7   c3.2,1.7,7.1,2.6,11.8,2.6c4.7,0,9.1-0.9,13.2-2.6s7-4.1,8.7-7.1s2.6-7.3,2.6-13.1v-35.8h15.6v66.8H1347z"/>
	<path fill="#fff" d="M1389,1213.4v-13h15.6v13H1389z M1389,1292.6v-66.8h15.6v66.8H1389z"/>
	<path fill="#fff" d="M1431.9,1318.2v-92.4h14.2v8.7c3.4-3.4,7.1-5.9,11.4-7.6c4.2-1.7,9.3-2.5,15.3-2.5c7.9,0,14.8,1.5,20.8,4.4   s10.5,7.1,13.6,12.4s4.6,11.2,4.6,17.6c0,6.8-1.7,13-5.1,18.5s-8.3,9.7-14.7,12.6c-6.4,2.9-13.2,4.4-20.3,4.4   c-5.2,0-9.9-0.8-14-2.4s-7.5-3.6-10.2-6v32.5h-15.6V1318.2z M1446,1259.6c0,8.6,2.4,14.9,7.2,19.1c4.8,4.1,10.6,6.2,17.4,6.2   c6.9,0,12.9-2.1,17.8-6.4s7.4-10.9,7.4-19.8c0-8.5-2.4-14.9-7.2-19.1c-4.8-4.2-10.6-6.4-17.3-6.4c-6.6,0-12.5,2.3-17.6,6.8   C1448.6,1244.4,1446,1251,1446,1259.6z"/>
	<path fill="#fff" d="M1534.1,1292.6v-66.8h13.9v9.4c2.9-3.3,6.7-5.9,11.5-7.9s10.3-3,16.4-3c6.8,0,12.4,1,16.8,3.1   s7.4,4.9,9.2,8.6c7.3-7.8,16.7-11.7,28.4-11.7c9.1,0,16.1,1.8,21,5.5s7.4,9.3,7.4,17v45.9h-15.5v-42.1c0-4.5-0.5-7.8-1.5-9.8   s-2.8-3.6-5.5-4.8c-2.7-1.2-5.8-1.8-9.4-1.8c-6.5,0-11.8,1.6-16.1,4.7c-4.3,3.1-6.4,8.1-6.4,15v38.8h-15.6v-43.4   c0-5-1.3-8.8-3.8-11.3s-6.7-3.8-12.5-3.8c-4.4,0-8.4,0.8-12.2,2.5c-3.7,1.7-6.4,4.1-8.1,7.4c-1.7,3.2-2.5,7.9-2.5,14v34.7h-15.5   V1292.6z"/>
	<path fill="#fff" d="M1748.3,1271.1l16.1,1.5c-2.6,6.8-7.2,12.1-14.1,15.9s-15.7,5.7-26.3,5.7c-13.5,0-24.1-3-32-9   s-11.8-14.5-11.8-25.3c0-11.2,4-20,12-26.2s18.3-9.3,31-9.3c12.3,0,22.3,3,30.1,9.1c7.8,6.1,11.7,14.6,11.7,25.7c0,0.7,0,1.7-0.1,3   h-68.6c0.6,7.3,3.4,13,8.6,16.9c5.1,3.9,11.5,5.8,19.2,5.8c5.7,0,10.6-1.1,14.7-3.3C1742.7,1279.4,1745.9,1275.9,1748.3,1271.1z    M1697.1,1252.8h51.3c-0.7-5.6-2.7-9.8-5.9-12.6c-5-4.4-11.4-6.5-19.3-6.5c-7.2,0-13.2,1.7-18.1,5.2   C1700.4,1242.3,1697.6,1247,1697.1,1252.8z"/>
	<path fill="#fff" d="M1787.5,1292.6v-66.8h14v9.5c6.8-7.3,16.5-11,29.3-11c5.6,0,10.6,0.7,15.3,2.2c4.6,1.5,8.1,3.3,10.4,5.7   c2.3,2.4,3.9,5.1,4.9,8.4c0.6,2.1,0.9,5.8,0.9,11v41.1h-15.6v-40.6c0-4.6-0.6-8.1-1.8-10.3c-1.2-2.3-3.4-4.1-6.4-5.5   c-3.1-1.4-6.7-2-10.9-2c-6.6,0-12.4,1.5-17.2,4.6c-4.8,3.1-7.2,8.9-7.2,17.4v36.5h-15.7V1292.6z"/>
	<path fill="#fff" d="M1923.8,1282.5l2.2,10c-4.4,0.7-8.3,1-11.8,1c-5.7,0-10-0.7-13.2-2c-3.1-1.3-5.3-3-6.6-5.1   c-1.3-2.1-1.9-6.6-1.9-13.4v-38.4h-11.4v-8.8h11.4v-16.5l15.5-0.3v16.8h15.7v8.8H1908v39.1c0,3.2,0.3,5.3,0.8,6.2   c0.6,0.9,1.4,1.7,2.7,2.2c1.2,0.5,3,0.8,5.3,0.8C1918.6,1282.9,1920.9,1282.8,1923.8,1282.5z"/>
</g>
</svg>