<svg version="1.1" id="Layer_1" xmlns="http://www.w3.org/2000/svg" xmlns:xlink="http://www.w3.org/1999/xlink" x="0px" y="0px" viewBox="0 642.4 2000 749.9" enable-background="new 0 642.4 2000 749.9" xml:space="preserve">
<g>
	<path fill="#fff" d="M108.4,924.5l-33.6-157c-1.2-5.5-2.9-9.8-5.1-12.8s-5.4-5-9.4-6.1v-34.2h80.5v34.2
		c-6.9,0.5-10.4,4-10.4,10.5c0,2.9,0.2,5.8,0.6,8.7l18.7,97.6l29.4-151H222l32.1,150.2l14.4-94.7l1.3-10.2c0-3.1-0.8-5.5-2.3-7.2
		s-4.2-2.9-8.1-3.9v-34.2h70.3v34.2c-4.8,1.7-8.1,4.1-9.8,7.2c-1.8,3.1-3.2,7.8-4.2,14.1l-28.6,154.6h-65.8l-24.9-115.1l-21.3,115.1
		H108.4z"></path>
	<path fill="#fff" d="M420.6,867.3c0,5.5,0.2,9.5,0.6,12.1c0.4,2.5,1.5,4.6,3.3,6.3s4.5,2.8,8.2,3.5v35.3h-80.8v-35.3
		c3.6-0.6,6.4-1.8,8.2-3.5c1.9-1.7,3-3.8,3.5-6.3s0.7-6.5,0.7-12v-97.2c0-7.5-0.7-12.8-2.1-15.8s-4.8-5-10.4-6v-34h80.8v34
		c-3.7,0.6-6.4,1.8-8.1,3.5s-2.8,3.8-3.3,6.4c-0.5,2.6-0.7,6.5-0.7,11.9v28h51.8v-28c0-7.8-0.7-13.2-2-16c-1.3-2.9-4.7-4.8-10.1-5.8
		v-34H541v34c-3.6,0.6-6.4,1.8-8.2,3.6c-1.9,1.8-3,3.9-3.5,6.4s-0.7,6.5-0.7,11.8v97.2c0,5.5,0.2,9.5,0.7,12s1.6,4.6,3.5,6.3
		s4.6,2.9,8.2,3.5v35.3h-80.8v-35.3c5.4-1,8.8-2.9,10.1-5.8c1.3-2.9,2-8.2,2-16v-33.5h-51.8L420.6,867.3L420.6,867.3z"></path>
	<path fill="#fff" d="M574.9,785.1c0-9.9,0.2-17.8,0.7-23.5s1.6-11.2,3.4-16.5c1.8-5.3,4.7-10.1,8.8-14.6
		c6.5-7.2,15.4-12.4,26.7-15.5c11.3-3.2,25.3-4.8,42.2-4.8c16.6,0,30.5,1.6,41.6,4.8s20.1,8.4,26.8,15.5c5.6,6.2,9.2,13.3,10.7,21.3
		s2.2,19.1,2.2,33.3v68.8c0,14.2-0.7,25.3-2.2,33.3s-5.1,15.1-10.7,21.3c-6.6,7.1-15.5,12.3-26.7,15.5c-11.2,3.3-25.1,4.9-41.7,4.9
		c-16.8,0-30.9-1.6-42.2-4.9s-20.2-8.4-26.7-15.5c-3.9-4.3-6.8-9.1-8.7-14.4c-1.9-5.3-3-10.8-3.5-16.5s-0.7-13.6-0.7-23.6
		L574.9,785.1L574.9,785.1z M630.8,783.3v72.1c0,10.8,2,18.6,5.9,23.5s10.6,7.4,20,7.4s15.9-2.5,19.7-7.5s5.7-12.8,5.7-23.5v-72.1
		c0-10.6-1.9-18.4-5.6-23.3c-3.7-5-10.3-7.5-19.8-7.5s-16.2,2.5-20.1,7.4C632.8,764.8,630.8,772.7,630.8,783.3z"></path>
	<path fill="#fff" d="M936,924.5H771.7v-35.3c3.6-0.6,6.4-1.8,8.2-3.5c1.9-1.7,3-3.8,3.5-6.3s0.7-6.5,0.7-12v-97.2
		c0-7.5-0.7-12.8-2.1-15.8c-1.4-3-4.8-5-10.4-6v-34h80.8v34c-3.7,0.6-6.4,1.8-8.1,3.5c-1.7,1.7-2.8,3.8-3.3,6.4
		c-0.5,2.6-0.7,6.5-0.7,11.9v114.4h18.4c8.3,0,14.5-1.1,18.6-3.2c4.1-2.2,6.8-5.5,8-9.9s1.8-10.8,1.8-19.1v-23.2H936V924.5z"></path>
	<path fill="#fff" d="M960.3,924.5v-35.3c3.6-0.6,6.4-1.8,8.2-3.5c1.9-1.7,3-3.8,3.5-6.3s0.7-6.5,0.7-12v-97.2
		c0-7.5-0.7-12.8-2.1-15.8c-1.4-3-4.8-5-10.4-6v-34h171.3v64.2h-52.7v-2.2c0-8.3-2.1-14-6.4-17.1s-11.8-4.7-22.7-4.7H1029v43.9h66.5
		v35.3H1029v50.5h24.6c9.8,0,16.5-1.7,20-5c3.5-3.4,5.3-9.2,5.3-17.6v-7.6h52.7v70.4L960.3,924.5L960.3,924.5z"></path>
	<path fill="#fff" d="M1162.9,904.5v-52.6h54.8v4.1c0,10.1,2.3,17.6,6.9,22.5c4.6,4.8,11.8,7.3,21.6,7.3c7.5,0,13.6-2,18.3-6
		c4.8-4,7.1-9.3,7.1-16s-2.7-12.3-8.2-16.6c-5.4-4.3-13.9-8.3-25.5-12c-7.7-2.4-14.4-4.5-20.3-6.4c-5.8-1.8-11.6-4-17.5-6.6
		c-5.8-2.5-10.8-5.1-14.8-7.8c-8.1-5.4-14.1-11.6-17.9-18.4c-3.8-6.9-5.8-15.1-5.8-24.8c0-12.4,3.3-23.3,10-32.5
		c6.7-9.3,16.3-16.3,28.8-21.2s27-7.3,43.4-7.3c14.8,0,28.9,1.9,42.1,5.7c13.3,3.8,25.8,9.5,37.5,17.3v49.5h-53.5V779
		c0-9.1-2.2-16-6.6-20.7s-11-7-19.7-7c-8.1,0-14.6,1.8-19.3,5.4c-4.8,3.6-7.1,8.3-7.1,14.1c0,4.4,1.6,8.1,4.8,11.2
		c3.2,3,8,5.8,14.3,8.3s15,5.3,26,8.6c16.2,4.8,28.9,9.7,38.1,14.8s16.1,11.6,20.6,19.4s6.8,17.8,6.8,30c0,13.1-3.3,24.6-9.8,34.5
		c-6.6,9.9-16,17.6-28.4,23.1s-26.9,8.2-43.7,8.2c-15.5,0-30.3-2.1-44.6-6.2C1187.1,918.3,1174.3,912.3,1162.9,904.5z"></path>
	<path fill="#fff" d="M1350.1,924.5v-35.3c4.4-1.1,7.5-3.3,9.4-6.6s3.7-8.4,5.3-15.5l34.4-152.7h83.6l37.9,156.1
		c1.4,5.9,3.1,10.2,5,13c2,2.8,5,4.6,9,5.7v35.3h-82.8v-35.3c4-0.3,7.1-1.3,9.1-3.2c2-1.8,3-4.1,3-6.8c0-1.7-0.2-3.7-0.6-6.2
		l-2.1-8.7h-47l-2.1,7.9c-0.4,2.6-0.6,4.7-0.6,6.5c0,3.4,1.1,6,3.2,7.7s5.4,2.7,9.9,2.8v35.3H1350.1z M1420.4,834.3h33.1l-16.6-80.3
		L1420.4,834.3z"></path>
	<path fill="#fff" d="M1718.6,924.5h-164.2v-35.3c3.6-0.6,6.4-1.8,8.2-3.5c1.9-1.7,3-3.8,3.5-6.3s0.7-6.5,0.7-12v-97.2
		c0-7.5-0.7-12.8-2.1-15.8s-4.8-5-10.4-6v-34h80.8v34c-3.7,0.6-6.4,1.8-8.1,3.5s-2.8,3.8-3.3,6.4c-0.5,2.6-0.7,6.5-0.7,11.9v114.4
		h18.4c8.3,0,14.5-1.1,18.6-3.2c4.1-2.2,6.8-5.5,8-9.9s1.8-10.8,1.8-19.1v-23.2h48.7L1718.6,924.5L1718.6,924.5z"></path>
	<path fill="#fff" d="M1742.8,924.5v-35.3c3.6-0.6,6.4-1.8,8.2-3.5c1.9-1.7,3-3.8,3.5-6.3s0.7-6.5,0.7-12v-97.2
		c0-7.5-0.7-12.8-2.1-15.8s-4.8-5-10.4-6v-34H1914v64.2h-52.7v-2.2c0-8.3-2.1-14-6.4-17.1s-11.8-4.7-22.7-4.7h-20.8v43.9h66.5v35.3
		h-66.5v50.5h24.6c9.8,0,16.5-1.7,20-5c3.5-3.4,5.3-9.2,5.3-17.6v-7.6h52.7v70.4L1742.8,924.5L1742.8,924.5z"></path>
</g>
<g>
	<path fill="#fff" d="M534.1,991.5v106c0,7.2,0.8,12.1,2.3,14.9s4.9,4.5,10.1,5.1v35.3H476v-35.3c8.7,0,13.1-6.2,13.1-18.6V997.7
		c0-6.7-0.9-11.6-2.8-14.6S481,978,476,977v-34.2h86.4l31.6,119.7l30-119.7h87.7V977c-5.9,1.2-9.5,3.3-10.9,6.2s-2.2,8.1-2.2,15.3
		v95.3c0,8.5,0.8,14.4,2.5,17.7c1.7,3.4,5.2,5.4,10.6,6v35.3h-79.9v-35.3c5.1-0.7,8.4-2.9,9.9-6.4s2.2-9.3,2.2-17.4v-99l-42.8,158.1
		h-23L534.1,991.5z"></path>
	<path fill="#fff" d="M743.7,1152.9v-35.4c3.6-0.6,6.4-1.8,8.2-3.5c1.9-1.7,3-3.8,3.5-6.3s0.7-6.5,0.7-12v-97.2
		c0-7.5-0.7-12.8-2.1-15.8c-1.4-3-4.8-5-10.4-6v-34H915v64.2h-52.7v-2.2c0-8.3-2.1-14-6.4-17.1c-4.3-3.1-11.8-4.7-22.7-4.7h-20.8
		v43.9h66.5v35.3h-66.5v50.5H837c9.8,0,16.5-1.7,20-5c3.5-3.4,5.3-9.2,5.3-17.6v-7.5H915v70.4H743.7z"></path>
	<path fill="#fff" d="M936.6,1152.9v-35.4c4.4-1.1,7.5-3.3,9.4-6.6c1.9-3.3,3.7-8.4,5.3-15.5l34.4-152.7h83.6l37.9,156.1
		c1.4,5.9,3.1,10.2,5,13c2,2.8,5,4.6,9,5.7v35.3h-82.8v-35.3c4-0.3,7.1-1.3,9.1-3.2c2-1.8,3-4.1,3-6.8c0-1.7-0.2-3.7-0.6-6.2
		l-2.1-8.7h-47l-2.1,7.9c-0.4,2.6-0.6,4.7-0.6,6.5c0,3.4,1.1,6,3.2,7.7c2.1,1.8,5.4,2.7,9.9,2.8v35.3L936.6,1152.9L936.6,1152.9
		L936.6,1152.9z M1006.9,1062.7h33.1l-16.6-80.3L1006.9,1062.7z"></path>
	<path fill="#fff" d="M1201,982.7c-8,0.2-13.7,2.1-17.1,5.9c-3.4,3.7-5.1,9.8-5.1,18.2v21.3h-45.2v-85.2h191.1v85.2h-44.9v-21.3
		c0-8.4-1.7-14.4-5.2-18.2c-3.4-3.8-9.2-5.7-17.4-5.8v113.1c0,5.5,0.2,9.5,0.6,12.1c0.4,2.5,1.5,4.6,3.3,6.3
		c1.7,1.7,4.5,2.8,8.2,3.5v35.3h-80.8v-35.6c3.6-0.6,6.4-1.8,8.2-3.5c1.9-1.7,3-3.8,3.5-6.3s0.7-6.5,0.7-12v-113L1201,982.7
		L1201,982.7z"></path>
	<path fill="#fff" d="M1351.5,1132.9v-52.6h54.8v4.1c0,10.1,2.3,17.6,6.9,22.5c4.6,4.8,11.8,7.3,21.6,7.3c7.5,0,13.6-2,18.3-6
		c4.8-4,7.1-9.3,7.1-16s-2.7-12.3-8.2-16.6c-5.4-4.3-13.9-8.3-25.5-12c-7.7-2.4-14.4-4.5-20.3-6.4c-5.8-1.8-11.6-4-17.5-6.6
		c-5.8-2.5-10.8-5.1-14.8-7.8c-8.1-5.4-14.1-11.6-17.9-18.4c-3.8-6.8-5.8-15.1-5.8-24.8c0-12.4,3.3-23.3,10-32.5
		s16.3-16.3,28.8-21.2s27-7.3,43.4-7.3c14.8,0,28.9,1.9,42.1,5.7c13.3,3.8,25.8,9.5,37.5,17.3v49.5h-53.5v-3.7
		c0-9.1-2.2-16-6.6-20.7s-11-7-19.7-7c-8.1,0-14.6,1.8-19.3,5.4c-4.8,3.6-7.1,8.3-7.1,14.1c0,4.4,1.6,8.1,4.8,11.2
		c3.2,3,8,5.8,14.3,8.3s15,5.3,26,8.6c16.2,4.8,28.9,9.7,38.1,14.8s16.1,11.6,20.6,19.4s6.8,17.8,6.8,30c0,13.1-3.3,24.6-9.8,34.5
		s-16,17.6-28.4,23.1s-26.9,8.2-43.7,8.2c-15.5,0-30.3-2.1-44.6-6.2C1375.8,1146.8,1362.9,1140.8,1351.5,1132.9z"></path>
</g>
<g>
	<path fill="#fff" d="M515.5,1302.4l-10.5,6.1c-4.9-4.5-9.2-9-12.7-13.3c-3.5-4.4-6.5-8.8-8.9-13.2c-2.4-4.4-4.2-9-5.4-13.8
		c-1.2-4.7-1.8-9.6-1.8-14.5s0.6-9.8,1.8-14.5c1.2-4.8,3-9.4,5.4-13.8s5.3-8.9,8.9-13.2c3.5-4.4,7.8-8.8,12.7-13.3l10.5,6.1
		c-2.8,3.6-5.2,7.4-7.3,11.2c-2.1,3.8-3.9,8-5.5,12.5s-2.7,8.7-3.5,12.8c-0.8,4.1-1.1,8.1-1.1,12.4c0,4.2,0.4,8.3,1.1,12.3
		c0.7,4.1,1.9,8.3,3.5,12.8s3.5,8.6,5.5,12.5C510.3,1295.1,512.7,1298.8,515.5,1302.4z"></path>
	<path fill="#fff" d="M527,1234.1c0-5,0.2-8.9,0.7-11.9s1.5-5.7,3.2-8c2.5-3.5,6.1-6.1,10.9-7.6c4.8-1.5,11-2.3,18.6-2.3
		c10.8,0,21.5,2.1,32,6.2v23.7h-21.6v-1.7c0-7.5-3.5-11.3-10.4-11.3c-3.9,0-6.6,1-8.2,2.9c-1.6,2-2.4,5.1-2.4,9.3v28.8
		c0,4.3,0.8,7.4,2.4,9.4c1.6,2,4.3,2.9,8.1,2.9s6.5-1,8-3s2.3-5.1,2.3-9.4v-6h21.6v28.8c-4.6,2.1-9.7,3.6-15.2,4.8
		c-5.5,1.1-11.1,1.7-16.7,1.7c-6.9,0-12.6-0.7-17.2-2c-4.6-1.3-8.2-3.4-10.9-6.2c-1.6-1.7-2.7-3.6-3.5-5.7s-1.2-4.3-1.5-6.6
		c-0.2-2.3-0.3-5.4-0.3-9.5v-27.3L527,1234.1L527,1234.1z"></path>
	<path fill="#fff" d="M607.5,1234.1c0-4,0.1-7.1,0.3-9.4s0.7-4.5,1.4-6.6s1.9-4.1,3.6-5.8c2.6-2.9,6.3-4.9,10.9-6.2
		c4.6-1.3,10.3-1.9,17.2-1.9c6.8,0,12.4,0.6,17,1.9c4.5,1.3,8.2,3.3,10.9,6.2c2.3,2.5,3.8,5.3,4.4,8.5c0.6,3.2,0.9,7.6,0.9,13.3
		v27.4c0,5.7-0.3,10.1-0.9,13.3c-0.6,3.2-2.1,6-4.4,8.5c-2.7,2.8-6.3,4.9-10.9,6.2c-4.6,1.3-10.2,2-17,2c-6.9,0-12.6-0.7-17.2-2
		c-4.6-1.3-8.2-3.4-10.9-6.2c-1.6-1.7-2.8-3.6-3.5-5.8c-0.8-2.1-1.2-4.3-1.4-6.6c-0.2-2.3-0.3-5.4-0.3-9.4L607.5,1234.1
		L607.5,1234.1z M630.3,1233.4v28.8c0,4.3,0.8,7.4,2.4,9.4c1.6,2,4.3,2.9,8.1,2.9s6.5-1,8-3s2.3-5.1,2.3-9.4v-28.7
		c0-4.2-0.8-7.3-2.3-9.3s-4.2-3-8.1-3c-3.9,0-6.6,1-8.2,2.9C631.1,1226.1,630.3,1229.2,630.3,1233.4z"></path>
	<path fill="#fff" d="M704.7,1289.8l-15.3-62.9c-0.5-2.2-1.2-3.9-2-5s-2.2-1.9-4.2-2.5v-13.6h34.2v13.7c-1.8,0.3-3.1,0.8-3.9,1.5
		c-0.8,0.7-1.2,1.7-1.2,3c0,0.9,0.1,1.8,0.4,2.7l10.8,47.2l9.9-46.6c0.2-0.8,0.3-1.9,0.3-3.1c0-1.4-0.4-2.5-1.2-3.2s-2.1-1.2-4-1.5
		v-13.6H759v13.6c-2.8,1-4.7,3.5-5.6,7.3l-14.5,63H704.7z"></path>
	<path fill="#fff" d="M767.1,1289.8v-14.1c1.5-0.3,2.6-0.7,3.4-1.4c0.8-0.7,1.2-1.5,1.4-2.5s0.3-2.6,0.3-4.8v-38.8
		c0-3-0.3-5.1-0.8-6.3c-0.6-1.2-2-2-4.2-2.4v-13.6H837v25.6h-21.5v-0.9c0-3.3-0.9-5.6-2.6-6.8c-1.7-1.2-4.8-1.9-9.2-1.9h-8.5v17.6
		h27.1v14.1h-27.1v20.2h10c4,0,6.7-0.7,8.1-2c1.4-1.3,2.1-3.7,2.1-7v-3h21.5v28.1L767.1,1289.8L767.1,1289.8z"></path>
	<path fill="#fff" d="M849.3,1289.8v-14.1c2.2-0.2,3.6-0.9,4.2-2.2c0.6-1.2,0.9-3.3,0.9-6.3v-40.5c0-2.3-0.3-4-1-5
		c-0.7-1.1-2-1.8-4.1-2.2v-13.6h25.8l24.9,47.2V1228c0-2.8-0.4-4.8-1.1-6.1s-2.1-2.1-4.3-2.4v-13.6H926v13.6c-1.7,0.4-3,1-3.7,1.8
		c-0.7,0.7-1.2,1.6-1.4,2.7s-0.3,2.7-0.3,4.9v61h-20.8l-24.9-47.6v25c0,2.9,0.3,5,1,6.3c0.7,1.2,2.1,2,4.2,2.2v14.1L849.3,1289.8
		L849.3,1289.8z"></path>
	<path fill="#fff" d="M963.2,1221.8c-3.3,0.1-5.6,0.9-7,2.3c-1.4,1.5-2.1,3.9-2.1,7.2v8.5h-18.4v-34h77.9v34h-18.3v-8.5
		c0-3.3-0.7-5.8-2.1-7.3c-1.4-1.5-3.8-2.3-7.1-2.3v45.1c0,2.2,0.1,3.8,0.3,4.8s0.6,1.8,1.3,2.5s1.8,1.1,3.3,1.4v14.1h-32.9v-14.1
		c1.5-0.3,2.6-0.7,3.4-1.4c0.8-0.7,1.2-1.5,1.4-2.5s0.3-2.6,0.3-4.8L963.2,1221.8L963.2,1221.8z"></path>
	<path fill="#fff" d="M1052.2,1266.9c0,2.2,0.1,3.8,0.3,4.8c0.2,1,0.6,1.8,1.3,2.5c0.7,0.7,1.8,1.1,3.4,1.4v14.1h-32.9v-14.1
		c1.5-0.3,2.6-0.7,3.4-1.4s1.2-1.5,1.4-2.5c0.2-1,0.3-2.6,0.3-4.8v-38.8c0-3-0.3-5.1-0.8-6.3c-0.6-1.2-2-2-4.2-2.4v-13.6h38.9
		c11.2,0,19.4,1.9,24.7,5.7c5.3,3.8,7.9,10,7.9,18.5c0,5.2-1.3,9.5-3.8,12.8c-2.6,3.3-6.3,5.5-11.2,6.6c4.8,0.9,8.1,2.4,9.9,4.3
		s2.7,4.9,2.7,8.9v4.5c0,2.9,0.3,4.9,0.8,6.1s1.7,2,3.5,2.3v14.1h-24.5c-0.9-1.7-1.5-3.4-1.7-5.2s-0.3-4.2-0.3-7.1v-10.7
		c0-2.7-0.3-4.8-0.9-6.3s-1.8-2.5-3.5-3.2c-1.7-0.6-4.2-0.9-7.5-0.9h-7.1v10.7H1052.2z M1052.2,1241.6h9c4.2,0,7.2-0.8,9.2-2.3
		c2-1.6,2.9-4.1,2.9-7.5c0-3.5-1-6.1-2.9-7.7s-4.9-2.5-9-2.5h-9.2V1241.6z"></path>
	<path fill="#fff" d="M1124.7,1289.8v-14.1c1.9-0.3,3.3-1.1,4-2.3c0.8-1.2,1.2-3.1,1.2-5.6v-10.2l-19.2-33.2
		c-1.6-2.9-3.4-4.6-5.3-5v-13.6h29v10.3c0,3.7,0.6,6.6,1.9,8.9l6.6,11.6l6.5-11.1c1.4-2.4,2.1-5.5,2.1-9.4v-10.3h25.5v13.7
		c-1.8,0.5-3.6,2.1-5.3,4.8l-19,32.3v11c0,2.8,0.3,4.8,0.9,6s2,1.9,4.1,2.1v14.1L1124.7,1289.8L1124.7,1289.8z"></path>
	<path fill="#fff" d="M1181.8,1302.4c2.7-3.6,5.2-7.4,7.4-11.3c2.2-3.9,4-8,5.4-12.1c1.5-4.1,2.5-8.3,3.3-12.4
		c0.7-4.2,1.1-8.5,1.1-12.9s-0.4-8.8-1.1-13c-0.8-4.2-1.9-8.4-3.3-12.5c-1.5-4.1-3.2-8.1-5.4-12.1c-2.1-3.9-4.6-7.7-7.4-11.2
		l10.4-6.1c4.8,4.3,9,8.7,12.6,13.2s6.7,9,9.1,13.6c2.5,4.6,4.3,9.2,5.4,13.8c1.2,4.6,1.8,9.4,1.8,14.4s-0.6,9.8-1.8,14.4
		c-1.2,4.6-3,9.2-5.4,13.8c-2.5,4.6-5.5,9.1-9,13.5c-3.6,4.4-7.8,8.8-12.8,13.2L1181.8,1302.4z"></path>
	<path fill="#fff" d="M1343,1289.8h-66.9v-14.1c1.5-0.3,2.6-0.7,3.4-1.4s1.2-1.5,1.4-2.5c0.2-1,0.3-2.6,0.3-4.8v-38.8
		c0-3-0.3-5.1-0.8-6.3c-0.6-1.2-2-2-4.2-2.4v-13.6h32.9v13.6c-1.5,0.3-2.6,0.7-3.3,1.4c-0.7,0.7-1.1,1.5-1.3,2.6
		c-0.2,1-0.3,2.6-0.3,4.7v45.7h7.5c3.4,0,5.9-0.4,7.6-1.3s2.8-2.2,3.3-3.9c0.5-1.8,0.7-4.3,0.7-7.6v-9.3h19.9v38L1343,1289.8
		L1343,1289.8z"></path>
	<path fill="#fff" d="M1377.4,1221.8c-3.3,0.1-5.6,0.9-7,2.3c-1.4,1.5-2.1,3.9-2.1,7.2v8.5H1350v-34h77.9v34h-18.3v-8.5
		c0-3.3-0.7-5.8-2.1-7.3s-3.8-2.3-7.1-2.3v45.1c0,2.2,0.1,3.8,0.3,4.8c0.2,1,0.6,1.8,1.3,2.5c0.7,0.7,1.8,1.1,3.3,1.4v14.1h-32.9
		v-14.1c1.5-0.3,2.6-0.7,3.4-1.4c0.8-0.7,1.2-1.5,1.4-2.5c0.2-1,0.3-2.6,0.3-4.8v-45L1377.4,1221.8L1377.4,1221.8z"></path>
	<path fill="#fff" d="M1471.3,1289.8h-32.9v-14.1c1.5-0.3,2.6-0.7,3.4-1.4s1.2-1.5,1.4-2.5c0.2-1,0.3-2.6,0.3-4.8v-38.8
		c0-3-0.3-5.1-0.8-6.3c-0.6-1.2-2-2-4.2-2.4v-13.6h32.9c9.8,0,17.4,0.9,22.9,2.8s9.4,5.1,11.8,9.6s3.6,10.9,3.6,19.3v20.1
		c0,6.7-0.6,12-1.8,16.1c-1.2,4.1-3.3,7.3-6.1,9.6c-2.9,2.3-6.7,4-11.5,5C1485.3,1289.3,1479,1289.8,1471.3,1289.8z M1466.4,1272.9
		h6.7c2.8,0,5.1-0.2,6.9-0.5s3.2-1,4.2-1.9s1.6-2.1,2-3.5s0.6-3.4,0.6-5.8v-25.3c0-3.4-0.3-6-0.9-8c-0.6-1.9-1.8-3.3-3.5-4.2
		c-1.8-0.9-4.4-1.4-8-1.4h-1.3l-6.6,0.1L1466.4,1272.9L1466.4,1272.9z"></path>
</g>
<rect x="60.2" y="1255.2" fill="#fff" width="361.7" height="10.6"></rect>
<rect x="1544.9" y="1249.8" fill="#fff" width="361.7" height="10.6"></rect>
</svg>